<svg xmlns="http://www.w3.org/2000/svg" xmlns:xlink="http://www.w3.org/1999/xlink" width="112.884" height="65.973" viewBox="0 0 112.884 65.973">
  <defs>
    <clipPath id="clip-path">
      <rect id="Rectangle_332" data-name="Rectangle 332" width="7.128" height="7.369" transform="translate(0 0)" fill="#ff413c"/>
    </clipPath>
    <clipPath id="clip-path-2">
      <rect id="Rectangle_332-2" data-name="Rectangle 332" width="4.881" height="5.046" transform="translate(0 0)" fill="#ff413c"/>
    </clipPath>
    <clipPath id="clip-path-3">
      <rect id="Rectangle_332-3" data-name="Rectangle 332" width="4.987" height="5.156" transform="translate(0 0)" fill="#ec9fa7"/>
    </clipPath>
    <clipPath id="clip-path-4">
      <rect id="Rectangle_332-4" data-name="Rectangle 332" width="5.203" height="5.379" transform="translate(0 0)" fill="#ec9fa7"/>
    </clipPath>
    <clipPath id="clip-path-5">
      <rect id="Rectangle_332-5" data-name="Rectangle 332" width="7.128" height="7.369" transform="translate(0 0)" fill="#601fa1"/>
    </clipPath>
    <clipPath id="clip-path-6">
      <rect id="Rectangle_332-6" data-name="Rectangle 332" width="9.472" height="9.793" transform="translate(0 0)" fill="#51d42f"/>
    </clipPath>
    <clipPath id="clip-path-7">
      <rect id="Rectangle_332-7" data-name="Rectangle 332" width="8.329" height="8.611" transform="translate(0 0)" fill="#51d42f"/>
    </clipPath>
    <clipPath id="clip-path-8">
      <rect id="Rectangle_332-8" data-name="Rectangle 332" width="9.759" height="10.089" transform="translate(0 0)" fill="#50b4ea"/>
    </clipPath>
    <clipPath id="clip-path-9">
      <rect id="Rectangle_332-9" data-name="Rectangle 332" width="9.228" height="9.541" transform="translate(0 0)" fill="none"/>
    </clipPath>
  </defs>
  <g id="Group_536" data-name="Group 536" transform="translate(-23.5 -2002.524)">
    <g id="Group_527" data-name="Group 527" transform="translate(107.005 2041.69)">
      <g id="Group_524" data-name="Group 524" transform="translate(0 0)" clip-path="url(#clip-path)">
        <path id="Path_1427" data-name="Path 1427" d="M7.128,3.694a.251.251,0,0,1-.16.234l-1.5.574A1.95,1.95,0,0,0,4.339,5.657L3.77,7.225a.2.2,0,0,1-.019.031.217.217,0,0,1-.015.025.2.2,0,0,1-.03.033.232.232,0,0,1-.058.039.191.191,0,0,1-.041.012.166.166,0,0,1-.041.005l-.044-.005a.191.191,0,0,1-.041-.012.232.232,0,0,1-.089-.071l-.014-.021a.227.227,0,0,1-.022-.035L2.789,5.657A1.943,1.943,0,0,0,1.658,4.5l-1.5-.574a.25.25,0,0,1,.014-.472l1.369-.431A1.952,1.952,0,0,0,2.8,1.792L3.361.146A.236.236,0,0,1,3.386.1.129.129,0,0,1,3.41.066.2.2,0,0,1,3.487.015.145.145,0,0,1,3.516.007a.185.185,0,0,1,.1,0,.145.145,0,0,1,.029.009.223.223,0,0,1,.071.046.269.269,0,0,1,.022.025.2.2,0,0,1,.032.059l.557,1.646A1.95,1.95,0,0,0,5.584,3.025l1.369.431a.248.248,0,0,1,.175.238" transform="translate(0 0)" fill="#ff413c"/>
      </g>
    </g>
    <g id="Group_529" data-name="Group 529" transform="matrix(0.966, 0.259, -0.259, 0.966, 53.806, 2002.524)">
      <g id="Group_524-2" data-name="Group 524" transform="translate(0 0)" clip-path="url(#clip-path-2)">
        <path id="Path_1427-2" data-name="Path 1427" d="M4.881,2.529a.172.172,0,0,1-.109.16l-1.025.393a1.335,1.335,0,0,0-.776.791l-.39,1.073a.137.137,0,0,1-.013.021.148.148,0,0,1-.011.017.14.14,0,0,1-.02.022.159.159,0,0,1-.04.027.131.131,0,0,1-.028.008.113.113,0,0,1-.028,0l-.03,0a.131.131,0,0,1-.028-.008.159.159,0,0,1-.061-.049l-.009-.015A.156.156,0,0,1,2.3,4.947L1.91,3.874a1.33,1.33,0,0,0-.775-.791L.11,2.69A.171.171,0,0,1,.12,2.367l.937-.3a1.337,1.337,0,0,0,.863-.844L2.3.1A.162.162,0,0,1,2.319.065a.088.088,0,0,1,.016-.02A.137.137,0,0,1,2.388.01L2.407,0a.126.126,0,0,1,.068,0l.02.006a.153.153,0,0,1,.049.031l.015.017A.14.14,0,0,1,2.581.1l.381,1.127a1.335,1.335,0,0,0,.862.844l.937.3a.17.17,0,0,1,.12.163" transform="translate(0 0)" fill="#ff413c"/>
      </g>
    </g>
    <g id="Group_528" data-name="Group 528" transform="translate(91.141 2014.856)">
      <g id="Group_524-3" data-name="Group 524" transform="translate(0 0)" clip-path="url(#clip-path-3)">
        <path id="Path_1427-3" data-name="Path 1427" d="M4.987,2.585a.175.175,0,0,1-.112.164l-1.047.4a1.364,1.364,0,0,0-.793.808l-.4,1.1a.14.14,0,0,1-.013.022.152.152,0,0,1-.011.018.143.143,0,0,1-.021.023.162.162,0,0,1-.041.027.134.134,0,0,1-.028.008.116.116,0,0,1-.028,0l-.031,0a.134.134,0,0,1-.028-.008.162.162,0,0,1-.062-.05l-.009-.015a.159.159,0,0,1-.015-.024l-.4-1.1A1.359,1.359,0,0,0,1.16,3.15l-1.047-.4a.175.175,0,0,1,.009-.33l.958-.3a1.366,1.366,0,0,0,.882-.863L2.352.1A.165.165,0,0,1,2.369.066a.09.09,0,0,1,.017-.02A.14.14,0,0,1,2.44.011L2.46,0a.129.129,0,0,1,.069,0l.02.006A.156.156,0,0,1,2.6.043l.015.018A.143.143,0,0,1,2.637.1l.39,1.151a1.364,1.364,0,0,0,.881.863l.958.3a.173.173,0,0,1,.122.166" transform="translate(0 0)" fill="#ec9fa7"/>
      </g>
    </g>
    <g id="Group_532" data-name="Group 532" transform="translate(54.164 2059.586)">
      <g id="Group_524-4" data-name="Group 524" transform="translate(0 0)" clip-path="url(#clip-path-4)">
        <path id="Path_1427-4" data-name="Path 1427" d="M5.2,2.7a.183.183,0,0,1-.117.171l-1.092.419a1.423,1.423,0,0,0-.827.843L2.752,5.273a.146.146,0,0,1-.014.022.158.158,0,0,1-.011.018.149.149,0,0,1-.022.024.169.169,0,0,1-.043.028.14.14,0,0,1-.03.009.121.121,0,0,1-.03,0l-.032,0a.14.14,0,0,1-.03-.009.169.169,0,0,1-.065-.052L2.467,5.3a.166.166,0,0,1-.016-.025L2.035,4.129a1.418,1.418,0,0,0-.826-.843L.118,2.867a.182.182,0,0,1,.01-.345l1-.315a1.425,1.425,0,0,0,.92-.9l.407-1.2A.172.172,0,0,1,2.472.069.094.094,0,0,1,2.489.048.146.146,0,0,1,2.545.011L2.566,0a.135.135,0,0,1,.072,0l.021.006a.163.163,0,0,1,.052.033l.016.019a.149.149,0,0,1,.024.043l.407,1.2a1.423,1.423,0,0,0,.919.9l1,.315A.181.181,0,0,1,5.2,2.7" transform="translate(0 0)" fill="#ec9fa7"/>
      </g>
    </g>
    <g id="Group_530" data-name="Group 530" transform="translate(23.5 2014.521)">
      <g id="Group_524-5" data-name="Group 524" transform="translate(0 0)" clip-path="url(#clip-path-5)">
        <path id="Path_1427-5" data-name="Path 1427" d="M7.128,3.694a.251.251,0,0,1-.16.234l-1.5.574A1.95,1.95,0,0,0,4.339,5.657L3.77,7.225a.2.2,0,0,1-.019.031.217.217,0,0,1-.015.025.2.2,0,0,1-.03.033.232.232,0,0,1-.058.039.191.191,0,0,1-.041.012.166.166,0,0,1-.041.005l-.044-.005a.191.191,0,0,1-.041-.012.232.232,0,0,1-.089-.071l-.014-.021a.227.227,0,0,1-.022-.035L2.789,5.657A1.943,1.943,0,0,0,1.658,4.5l-1.5-.574a.25.25,0,0,1,.014-.472l1.369-.431A1.952,1.952,0,0,0,2.8,1.792L3.361.146A.236.236,0,0,1,3.386.1.129.129,0,0,1,3.41.066.2.2,0,0,1,3.487.015.145.145,0,0,1,3.516.007a.185.185,0,0,1,.1,0,.145.145,0,0,1,.029.009.223.223,0,0,1,.071.046.269.269,0,0,1,.022.025.2.2,0,0,1,.032.059l.557,1.646A1.95,1.95,0,0,0,5.584,3.025l1.369.431a.248.248,0,0,1,.175.238" transform="translate(0 0)" fill="#601fa1"/>
      </g>
    </g>
    <g id="Group_526" data-name="Group 526" transform="translate(124.134 2059.295) rotate(-20)">
      <g id="Group_524-6" data-name="Group 524" transform="translate(0 0)" clip-path="url(#clip-path-6)">
        <path id="Path_1427-6" data-name="Path 1427" d="M9.472,4.909a.333.333,0,0,1-.212.311l-1.988.763A2.591,2.591,0,0,0,5.766,7.518L5.01,9.6a.266.266,0,0,1-.025.041.288.288,0,0,1-.021.033.272.272,0,0,1-.039.044.309.309,0,0,1-.078.052.254.254,0,0,1-.054.016.22.22,0,0,1-.054.007l-.059-.007a.254.254,0,0,1-.054-.016.308.308,0,0,1-.118-.095c-.007-.009-.012-.019-.018-.028A.3.3,0,0,1,4.462,9.6L3.706,7.518A2.582,2.582,0,0,0,2.2,5.983L.214,5.22a.332.332,0,0,1,.018-.627L2.051,4.02A2.594,2.594,0,0,0,3.726,2.381L4.466.194A.314.314,0,0,1,4.5.126.172.172,0,0,1,4.532.088a.267.267,0,0,1,.1-.068A.193.193,0,0,1,4.672.009a.245.245,0,0,1,.131,0A.193.193,0,0,1,4.841.02a.3.3,0,0,1,.095.061.358.358,0,0,1,.029.034.271.271,0,0,1,.043.079l.74,2.187A2.591,2.591,0,0,0,7.421,4.02l1.819.573a.329.329,0,0,1,.232.316" transform="translate(0 0)" fill="#51d42f"/>
      </g>
    </g>
    <g id="Group_531" data-name="Group 531" transform="translate(32.314 2053.434) rotate(-20)">
      <g id="Group_524-7" data-name="Group 524" transform="translate(0 0)" clip-path="url(#clip-path-7)">
        <path id="Path_1427-7" data-name="Path 1427" d="M8.329,4.316a.293.293,0,0,1-.187.274l-1.748.671A2.279,2.279,0,0,0,5.07,6.61L4.406,8.442a.234.234,0,0,1-.022.036.253.253,0,0,1-.018.029.239.239,0,0,1-.035.038.271.271,0,0,1-.068.045.223.223,0,0,1-.048.014.194.194,0,0,1-.048.006L4.116,8.6a.223.223,0,0,1-.048-.014.271.271,0,0,1-.1-.084c-.006-.008-.011-.016-.016-.025a.266.266,0,0,1-.026-.04L3.258,6.61A2.27,2.27,0,0,0,1.937,5.261L.189,4.59A.292.292,0,0,1,.2,4.038l1.6-.5A2.281,2.281,0,0,0,3.276,2.094L3.927.171a.276.276,0,0,1,.03-.06A.151.151,0,0,1,3.985.077.234.234,0,0,1,4.074.018a.169.169,0,0,1,.034-.01.216.216,0,0,1,.115,0,.169.169,0,0,1,.034.01A.261.261,0,0,1,4.34.071.315.315,0,0,1,4.366.1.238.238,0,0,1,4.4.171l.651,1.923A2.278,2.278,0,0,0,6.525,3.534l1.6.5a.289.289,0,0,1,.2.278" transform="translate(0 0)" fill="#51d42f"/>
      </g>
    </g>
    <g id="Group_535" data-name="Group 535">
      <g id="Group_525" data-name="Group 525" transform="translate(120.5 2007.344)">
        <g id="Group_524-8" data-name="Group 524" transform="translate(0 0)" clip-path="url(#clip-path-8)">
          <path id="Path_1427-8" data-name="Path 1427" d="M9.759,5.057a.343.343,0,0,1-.219.321l-2.049.786A2.67,2.67,0,0,0,5.941,7.746L5.162,9.892a.274.274,0,0,1-.026.042.3.3,0,0,1-.021.034.28.28,0,0,1-.041.045.318.318,0,0,1-.08.053.262.262,0,0,1-.056.016.227.227,0,0,1-.056.007l-.06-.007a.262.262,0,0,1-.056-.016.317.317,0,0,1-.121-.1c-.007-.009-.013-.019-.019-.029a.311.311,0,0,1-.03-.047L3.818,7.746A2.66,2.66,0,0,0,2.269,6.164L.221,5.378a.342.342,0,0,1,.019-.646l1.874-.591A2.673,2.673,0,0,0,3.839,2.453L4.6.2A.323.323,0,0,1,4.637.13a.177.177,0,0,1,.033-.04.275.275,0,0,1,.1-.07.2.2,0,0,1,.04-.012.253.253,0,0,1,.135,0,.2.2,0,0,1,.04.012.305.305,0,0,1,.1.063.369.369,0,0,1,.03.035A.279.279,0,0,1,5.16.2l.763,2.253A2.669,2.669,0,0,0,7.646,4.141l1.874.591a.339.339,0,0,1,.24.326" transform="translate(0 0)" fill="#50b4ea"/>
        </g>
      </g>
      <path id="Path_1429" data-name="Path 1429" d="M123.375,2010.991,101.694,2032.2l22.466-19.626Z" transform="translate(0 2)" fill="#50b4ea"/>
    </g>
    <g id="Group_534" data-name="Group 534">
      <g id="Group_533" data-name="Group 533" transform="translate(46.275 2026.576) rotate(30)">
        <g id="Group_524-9" data-name="Group 524" transform="translate(0 0)" clip-path="url(#clip-path-9)">
          <path id="Path_1427-9" data-name="Path 1427" d="M9.228,4.782a.325.325,0,0,1-.207.3l-1.937.743a2.525,2.525,0,0,0-1.466,1.5L4.881,9.353a.26.26,0,0,1-.024.04.281.281,0,0,1-.02.033.265.265,0,0,1-.038.042.3.3,0,0,1-.076.05.248.248,0,0,1-.053.015.214.214,0,0,1-.053.007L4.56,9.534a.248.248,0,0,1-.053-.015.3.3,0,0,1-.115-.093c-.006-.009-.012-.018-.018-.028a.294.294,0,0,1-.028-.045L3.61,7.324a2.515,2.515,0,0,0-1.464-1.5L.209,5.086a.324.324,0,0,1,.018-.611L2,3.916A2.527,2.527,0,0,0,3.63,2.32L4.351.189A.306.306,0,0,1,4.384.123.167.167,0,0,1,4.415.086a.26.26,0,0,1,.1-.066A.188.188,0,0,1,4.551.009a.239.239,0,0,1,.128,0A.188.188,0,0,1,4.716.02a.289.289,0,0,1,.092.059.349.349,0,0,1,.028.033.264.264,0,0,1,.042.077L5.6,2.32a2.524,2.524,0,0,0,1.629,1.6L9,4.474a.321.321,0,0,1,.226.308" transform="translate(0 0)" fill="#ffc229"/>
        </g>
      </g>
      <path id="Path_1430" data-name="Path 1430" d="M123.375,2010.991,101.694,2032.2l22.466-19.626Z" transform="translate(-77.194 23.208)" fill="#ffc229"/>
    </g>
  </g>
</svg>
