<svg xmlns="http://www.w3.org/2000/svg" xmlns:xlink="http://www.w3.org/1999/xlink" width="144.28" height="107.421" viewBox="0 0 144.28 107.421">
  <defs>
    <clipPath id="clip-path">
      <rect id="Rectangle_332" data-name="Rectangle 332" width="5.763" height="5.958" transform="translate(0 0)" fill="#4a0095"/>
    </clipPath>
    <clipPath id="clip-path-2">
      <rect id="Rectangle_332-2" data-name="Rectangle 332" width="5.763" height="5.958" transform="translate(0 0)" fill="#66d12c"/>
    </clipPath>
    <clipPath id="clip-path-4">
      <rect id="Rectangle_332-4" data-name="Rectangle 332" width="4.544" height="4.698" transform="translate(0 0)" fill="#ffc050"/>
    </clipPath>
    <clipPath id="clip-path-5">
      <rect id="Rectangle_332-5" data-name="Rectangle 332" width="4.544" height="4.698" transform="translate(0 0)" fill="#4a0095"/>
    </clipPath>
    <clipPath id="clip-path-6">
      <rect id="Rectangle_332-6" data-name="Rectangle 332" width="4.544" height="4.698" transform="translate(0 0)" fill="#ff413c"/>
    </clipPath>
  </defs>
  <g id="Group_567" data-name="Group 567" transform="translate(-196.5 -2196.871)">
    <g id="Group_558" data-name="Group 558" transform="translate(196.5 2207.568)">
      <g id="Group_559" data-name="Group 559">
        <path id="Path_1664" data-name="Path 1664" d="M92.845,67a5.059,5.059,0,0,0-4.381-.278c-2.6.932-3.186,4.437-2.545,7.28s-2.942,12.553-2.942,12.553,1.862,2.618,8.369,1.616c0,0,4.852-8.818,4.492-15.147S92.845,67,92.845,67" transform="translate(-57.613 -46.081)" fill="#4a0095"/>
        <path id="Path_1665" data-name="Path 1665" d="M121.978,103.839c2.445-.782,3.942,1.254,5.343,5.044s1.872,4.17,1.872,4.17l5.408,3.475-.449,2.025s-5.147-2.015-6.392-3.3-4.824-7.775-4.824-7.775Z" transform="translate(-84.692 -71.983)" fill="#ef6e4b"/>
        <path id="Path_1666" data-name="Path 1666" d="M76.213,184.31a68.907,68.907,0,0,0-.886,13.462s-4.181,6.165-.731,23.756h1.81s1.479-14.966,2.61-19.022,5.309-5.3,5.535-17.631Z" transform="translate(-50.847 -127.971)" fill="#ff8b66"/>
        <path id="Path_1667" data-name="Path 1667" d="M28.094,196.919c-1.052-3.466-3.755-9.271-10.689-17.14a1.03,1.03,0,0,0-.973.128c-.59.361-.59.785-.59.785s3.477,7.578,5.694,13.13a4.916,4.916,0,0,0,4.565,3.1Z" transform="translate(-10.999 -124.779)" fill="#ff8b66"/>
        <path id="Path_1668" data-name="Path 1668" d="M48.783,186.034s.024,2.586-1.673,2.63c-2.4.064-2.484-2.545-5.2-2.461s-8.315.764-10.1-3.479c-.92-2.192.339-5.006-2.63-7.127s-1.527-4.5,0-5.77-.658-2.661.933-3.309a1.557,1.557,0,0,1,1.1-.02,2.561,2.561,0,0,1,.577.292,5.579,5.579,0,0,1,1.432,1.534c4.5-12.316,12.5-13.942,12.5-13.942l7.918,2.732c.19,19.161-4.863,28.918-4.863,28.918" transform="translate(-19.063 -107.193)" fill="#4a0095"/>
        <path id="Path_1669" data-name="Path 1669" d="M95.855,101.686a10.371,10.371,0,0,1-4.475.224c-2.627-.4-3.481-2.049-5.329-.987-2.773,1.594-1.475,7.081-.779,9.934a14.263,14.263,0,0,1-.038,6.164s3.692,2.873,7.918,2.73l2.305-5.014a11.127,11.127,0,0,0,.4-13.051" transform="translate(-58.569 -69.83)" fill="#ffc050"/>
        <path id="Path_1670" data-name="Path 1670" d="M105.146,88.238a11.333,11.333,0,0,1-.653,4.957s1.371,2.024,2.679.692a13.072,13.072,0,0,1,1.589-5.07c.984-1.8-3.616-.579-3.616-.579" transform="translate(-72.552 -60.984)" fill="#ef6e4b"/>
        <path id="Path_1671" data-name="Path 1671" d="M97.4,88.919s-1.156-.731-1.026.4c.151,1.308,1.427,1.563,1.563,1.105s-.537-1.5-.537-1.5" transform="translate(-66.91 -61.576)" fill="#ff8b66"/>
        <path id="Path_1672" data-name="Path 1672" d="M121.365,83.6s.734-1.155,1.1-.078c.421,1.247-.624,2.022-.942,1.666s-.155-1.588-.155-1.588" transform="translate(-84.238 -57.67)" fill="#ff8b66"/>
        <path id="Path_1673" data-name="Path 1673" d="M103.108,81.649c-2.1.47-3.588-.635-4.508-4.744-.475-2.12.313-3.661,2.662-4.187s3.63.552,4.1,2.672c.989,4.415-.092,5.774-2.258,6.259" transform="translate(-68.369 -50.398)" fill="#ff8b66"/>
        <path id="Path_1674" data-name="Path 1674" d="M117.7,86.555a.509.509,0,1,1-.611-.177.455.455,0,0,1,.611.177" transform="translate(-81.065 -59.942)" fill="#db614d"/>
        <path id="Path_1675" data-name="Path 1675" d="M103.571,89.863a.509.509,0,1,1-.552-.315.455.455,0,0,1,.552.315" transform="translate(-71.228 -62.17)" fill="#db614d"/>
        <path id="Path_1676" data-name="Path 1676" d="M112.638,79.937a.108.108,0,0,1-.06-.018,1.232,1.232,0,0,0-.872-.111.107.107,0,1,1-.053-.208,1.437,1.437,0,0,1,1.045.141.107.107,0,0,1-.06.2" transform="translate(-77.467 -55.239)" fill="#0e3944"/>
        <path id="Path_1677" data-name="Path 1677" d="M101.9,82.017a.107.107,0,0,1-.092-.163,1.438,1.438,0,0,1,.886-.573.109.109,0,0,1,.125.085.107.107,0,0,1-.085.126,1.241,1.241,0,0,0-.742.473.107.107,0,0,1-.092.052" transform="translate(-70.675 -56.435)" fill="#0e3944"/>
        <path id="Path_1678" data-name="Path 1678" d="M114.122,83.617c.058.26-.012.5-.157.53s-.309-.153-.368-.413.012-.5.157-.53.309.153.368.413" transform="translate(-78.859 -57.768)" fill="#1a4850"/>
        <path id="Path_1679" data-name="Path 1679" d="M104.589,85.669c.058.26-.012.5-.157.53s-.309-.152-.367-.413.012-.5.157-.53.309.153.367.413" transform="translate(-72.241 -59.193)" fill="#1a4850"/>
        <path id="Path_1680" data-name="Path 1680" d="M108.909,93.3a4.345,4.345,0,0,0,1.941-.611s-.164,1.052-.9,1.126a1.071,1.071,0,0,1-1.044-.514" transform="translate(-75.618 -64.353)" fill="#1a4850"/>
        <path id="Path_1681" data-name="Path 1681" d="M112.943,82.78s.047-.684.31-.695.576.5.576.5l.328-.281-.361.132s-.322-.53-.572-.475c-.355.078-.281.822-.281.822" transform="translate(-78.415 -56.903)" fill="#1a4850"/>
        <path id="Path_1682" data-name="Path 1682" d="M103.394,84.974s-.335-.6-.576-.5-.31.695-.31.695l-.416-.114.383-.035s.066-.617.315-.673c.355-.081.6.624.6.624" transform="translate(-70.885 -58.562)" fill="#1a4850"/>
        <path id="Path_1683" data-name="Path 1683" d="M110.088,88.508l-.108-.2a.268.268,0,0,0,.171-.3.287.287,0,0,0-.2-.228c-.042,0-.078.034-.106.108l-.217-.081a.334.334,0,0,1,.341-.259.509.509,0,0,1,.409.412.5.5,0,0,1-.29.556" transform="translate(-76.117 -60.781)" fill="#db614d"/>
        <path id="Path_1684" data-name="Path 1684" d="M97.72,76.452a10.3,10.3,0,0,1-.263-4.063A4.567,4.567,0,0,1,102.8,71.1a14.207,14.207,0,0,1,1.562,4.035,9.2,9.2,0,0,0-.219-2.728c-.35-1.883-2.021-3.053-4.312-2.676s-4.743,2.656-2.115,6.717" transform="translate(-67.061 -48.37)" fill="#0e3944"/>
        <path id="Path_1685" data-name="Path 1685" d="M100.7,69.089a4.567,4.567,0,0,1-.465,2.221.66.66,0,0,0-.944,0c-.509.454-1.543.3-1.9.548a1.089,1.089,0,0,0-.353.807,2.225,2.225,0,0,1,0-1.537,3.079,3.079,0,0,0-.6,1.951s-.931-.15-.889-1.687a4.816,4.816,0,0,1,4.677-3.861c2.45.161,3.034,4.041,3.034,4.041a.716.716,0,0,0-.573-.1,5.082,5.082,0,0,0-.6-1.856,2.749,2.749,0,0,1,0,1.553,2.218,2.218,0,0,0-1.221-.246,2.3,2.3,0,0,0-.17-1.835" transform="translate(-66.346 -46.883)" fill="#4a0095"/>
        <path id="Path_1686" data-name="Path 1686" d="M83,102.573c1.192-.94,2.121.256,2.349,1.91s-1.929,11.411-3.592,11.051c-.642-.139-.9-2.695-.9-2.695a58.676,58.676,0,0,0,1.071-6.872c.193-1.9.453-2.9,1.075-3.394" transform="translate(-56.135 -70.989)" fill="#ff8b66"/>
        <path id="Path_1687" data-name="Path 1687" d="M64.675,119.222c-1.605-1.53-4.484-6.606-5.215-9.192l1.218-.49s3.669,5.248,5.341,6.572,2.261,2.8,1.514,4.059-2.52-.628-2.858-.949" transform="translate(-41.285 -76.056)" fill="#ff8b66"/>
        <path id="Path_1688" data-name="Path 1688" d="M51.523,98.78c-.084,1.66,1.269,2.053.669,3.327a.87.87,0,0,1-.508.472,1.029,1.029,0,0,1-1.062-.273,11.741,11.741,0,0,0-2.166-1.641c-.6-.347-.261-.442-.261-.442-.058-.028-.115-.05-.172-.073-.429-.18-.772-.248-.461-.439.35-.218,1.592.236,1.592.236-1.616-1.076-2.055-.814-1.759-1.043.4-.313,1.939.407,1.985.429-.854-.807-1.473-.99-1.134-1.112s2.033,1.1,2.649,1.56c.139.1.224.169.224.169-.021-1.357.405-1.171.405-1.171" transform="translate(-32.847 -68.192)" fill="#ff8b66"/>
        <path id="Path_1689" data-name="Path 1689" d="M58.78,103.344c.139.1.224.169.224.169a1.125,1.125,0,0,0,.085,1.117,1,1,0,0,1-.309-1.286" transform="translate(-40.734 -71.754)" fill="#ef6e4b"/>
        <path id="Path_1690" data-name="Path 1690" d="M51.1,104.989a3.856,3.856,0,0,0-1.283-.51c-.058-.028-.115-.05-.172-.073.218-.287,1.292.466,1.454.584" transform="translate(-34.47 -72.446)" fill="#ef6e4b"/>
        <path id="Path_1691" data-name="Path 1691" d="M73.885,186.3a.326.326,0,1,1-.326-.326.326.326,0,0,1,.326.326" transform="translate(-50.847 -129.124)" fill="#6097b2"/>
        <path id="Path_1692" data-name="Path 1692" d="M92.925,193.642a.326.326,0,1,1-.326-.326.326.326,0,0,1,.326.326" transform="translate(-64.067 -134.224)" fill="#6097b2"/>
        <path id="Path_1693" data-name="Path 1693" d="M109.149,197.58a.326.326,0,1,1-.326-.326.326.326,0,0,1,.326.326" transform="translate(-75.331 -136.958)" fill="#6097b2"/>
        <path id="Path_1694" data-name="Path 1694" d="M84.221,172.361a.326.326,0,1,1-.326-.326.326.326,0,0,1,.326.326" transform="translate(-58.023 -119.448)" fill="#6097b2"/>
        <path id="Path_1695" data-name="Path 1695" d="M87.815,182.5a.326.326,0,1,1-.326-.326.326.326,0,0,1,.326.326" transform="translate(-60.519 -126.489)" fill="#6097b2"/>
        <path id="Path_1696" data-name="Path 1696" d="M104.7,188.282a.326.326,0,1,1-.326-.326.326.326,0,0,1,.326.326" transform="translate(-72.241 -130.502)" fill="#6097b2"/>
        <path id="Path_1697" data-name="Path 1697" d="M107.014,170.789a.326.326,0,1,1-.326-.326.326.326,0,0,1,.326.326" transform="translate(-73.849 -118.357)" fill="#6097b2"/>
        <path id="Path_1698" data-name="Path 1698" d="M95.952,167.148a.326.326,0,1,1-.326-.326.326.326,0,0,1,.326.326" transform="translate(-66.168 -115.829)" fill="#6097b2"/>
        <path id="Path_1699" data-name="Path 1699" d="M64.441,207.116a.326.326,0,1,1-.326-.326.326.326,0,0,1,.326.326" transform="translate(-44.29 -143.579)" fill="#6097b2"/>
        <path id="Path_1700" data-name="Path 1700" d="M49.23,202.578a.326.326,0,1,1-.326-.326.326.326,0,0,1,.326.326" transform="translate(-33.728 -140.428)" fill="#6097b2"/>
        <path id="Path_1701" data-name="Path 1701" d="M40.282,194.311a.328.328,0,0,1-.6-.18.244.244,0,0,1,.024-.112,2.56,2.56,0,0,1,.577.292" transform="translate(-27.551 -134.712)" fill="#6097b2"/>
        <path id="Path_1702" data-name="Path 1702" d="M69.891,221.035a.326.326,0,1,1-.326-.326.326.326,0,0,1,.326.326" transform="translate(-48.074 -153.244)" fill="#6097b2"/>
        <path id="Path_1703" data-name="Path 1703" d="M42.592,236.162a.326.326,0,1,1-.326-.326.326.326,0,0,1,.326.326" transform="translate(-29.119 -163.747)" fill="#6097b2"/>
        <path id="Path_1704" data-name="Path 1704" d="M53.744,226.992a.326.326,0,1,1-.326-.326.326.326,0,0,1,.326.326" transform="translate(-36.862 -157.38)" fill="#6097b2"/>
        <path id="Path_1705" data-name="Path 1705" d="M37.135,218.879a.326.326,0,1,1-.326-.326.326.326,0,0,1,.326.326" transform="translate(-25.33 -151.747)" fill="#6097b2"/>
        <path id="Path_1706" data-name="Path 1706" d="M50.542,250.826a.326.326,0,1,1-.326-.326.326.326,0,0,1,.326.326" transform="translate(-34.639 -173.928)" fill="#6097b2"/>
        <path id="Path_1707" data-name="Path 1707" d="M60.7,194.709a.326.326,0,1,1-.326-.326.326.326,0,0,1,.326.326" transform="translate(-41.694 -134.965)" fill="#6097b2"/>
        <path id="Path_1708" data-name="Path 1708" d="M70.958,176.735a.326.326,0,1,1-.326-.326.326.326,0,0,1,.326.326" transform="translate(-48.814 -122.485)" fill="#6097b2"/>
        <path id="Path_1709" data-name="Path 1709" d="M82.563,161.775a.326.326,0,1,1-.326-.326.326.326,0,0,1,.326.326" transform="translate(-56.872 -112.098)" fill="#6097b2"/>
        <path id="Path_1710" data-name="Path 1710" d="M59.045,183.569a.326.326,0,1,1-.326-.326.326.326,0,0,1,.326.326" transform="translate(-40.543 -127.23)" fill="#6097b2"/>
        <path id="Path_1711" data-name="Path 1711" d="M72.025,166.081a.326.326,0,1,1-.326-.326.326.326,0,0,1,.326.326" transform="translate(-49.555 -115.088)" fill="#6097b2"/>
        <path id="Path_1712" data-name="Path 1712" d="M51.609,214.138a.326.326,0,1,1-.326-.326.326.326,0,0,1,.326.326" transform="translate(-35.38 -148.455)" fill="#6097b2"/>
        <path id="Path_1713" data-name="Path 1713" d="M38.2,204.712a.326.326,0,1,1-.326-.326.326.326,0,0,1,.326.326" transform="translate(-26.071 -141.91)" fill="#6097b2"/>
        <path id="Path_1714" data-name="Path 1714" d="M77.087,201.51a.326.326,0,1,1-.326-.326.326.326,0,0,1,.326.326" transform="translate(-53.07 -139.687)" fill="#6097b2"/>
        <path id="Path_1715" data-name="Path 1715" d="M99.154,207.116a.326.326,0,1,1-.326-.326.326.326,0,0,1,.326.326" transform="translate(-68.392 -143.579)" fill="#6097b2"/>
        <path id="Path_1716" data-name="Path 1716" d="M98.087,176.735a.326.326,0,1,1-.326-.326.326.326,0,0,1,.326.326" transform="translate(-67.651 -122.485)" fill="#6097b2"/>
        <path id="Path_1717" data-name="Path 1717" d="M110.916,178.972a.326.326,0,1,1-.326-.326.326.326,0,0,1,.326.326" transform="translate(-76.558 -124.038)" fill="#6097b2"/>
        <path id="Path_1718" data-name="Path 1718" d="M85.288,215.206a.326.326,0,1,1-.326-.326.326.326,0,0,1,.326.326" transform="translate(-58.764 -149.196)" fill="#6097b2"/>
        <path id="Path_1719" data-name="Path 1719" d="M76.02,234.192a.326.326,0,1,1-.326-.326.326.326,0,0,1,.326.326" transform="translate(-52.329 -162.379)" fill="#6097b2"/>
        <path id="Path_1720" data-name="Path 1720" d="M59.636,237.229a.326.326,0,1,1-.326-.326.326.326,0,0,1,.326.326" transform="translate(-40.953 -164.488)" fill="#6097b2"/>
        <path id="Path_1721" data-name="Path 1721" d="M104.7,221.035a.326.326,0,1,1-.326-.326.326.326,0,0,1,.326.326" transform="translate(-72.241 -153.244)" fill="#6097b2"/>
        <path id="Path_1722" data-name="Path 1722" d="M89.95,229.127a.326.326,0,1,1-.326-.326.326.326,0,0,1,.326.326" transform="translate(-62.001 -158.862)" fill="#6097b2"/>
        <path id="Path_1723" data-name="Path 1723" d="M67.756,252.961a.326.326,0,1,1-.326-.326.326.326,0,0,1,.326.326" transform="translate(-46.591 -175.411)" fill="#6097b2"/>
        <path id="Path_1724" data-name="Path 1724" d="M84.221,247.4a.326.326,0,1,1-.326-.326.326.326,0,0,1,.326.326" transform="translate(-58.023 -171.552)" fill="#6097b2"/>
        <path id="Path_1725" data-name="Path 1725" d="M100.082,241.115a.326.326,0,1,1-.326-.326.326.326,0,0,1,.326.326" transform="translate(-69.036 -167.186)" fill="#6097b2"/>
        <path id="Path_1726" data-name="Path 1726" d="M92.925,259.477a.326.326,0,1,1-.326-.326.326.326,0,0,1,.326.326" transform="translate(-64.067 -179.935)" fill="#6097b2"/>
        <path id="Path_1727" data-name="Path 1727" d="M80.83,304.852H75.471c-.349-1,.3-2,.187-2.878-.187-1.487.679-.665.679-.665.153-1.6,2.4-1.9,2.376-1.188a3.432,3.432,0,0,0,.465,2.131c.6.872,1.6.866,1.765,1.49.017.061.031.122.041.177.166.78-.153.933-.153.933" transform="translate(-52.328 -208.129)" fill="#ffc050"/>
        <path id="Path_1728" data-name="Path 1728" d="M85.163,309.587c-1.11.258-3.669-.078-3.771-.723-.1-.625,1.28-.916,1.965-.943.6.872,1.6.865,1.765,1.49.017.061.031.122.041.176" transform="translate(-56.509 -213.797)" fill="#ffc050"/>
        <path id="Path_1729" data-name="Path 1729" d="M6.472,174.313c-.57-.519-1.5.339-1.5.339s.5.74.176,1.039-.7-.384-1.33-.085a1.226,1.226,0,0,0-.156.088,7.336,7.336,0,0,0-1.429,1.388c-.085.1-.166.183-.241.261-.485.509-1.738.808-1.972-.55s1.293-2.949,2.97-4.412,2.759-.594,2.759-.594a2.634,2.634,0,0,1,.38,1c0,.38.339.57.529.933a.461.461,0,0,1-.19.594" transform="translate(0 -119.099)" fill="#ffc050"/>
        <path id="Path_1730" data-name="Path 1730" d="M5.813,181.463a7.336,7.336,0,0,0-1.429,1.388c-.628.149-1.191.105-1.28-.485-.214-1.425,2.63-3.238,2.4-2.236a1.779,1.779,0,0,0,.305,1.334" transform="translate(-2.148 -124.867)" fill="#ffc050"/>
        <path id="Path_1731" data-name="Path 1731" d="M324.848,295.685a2.075,2.075,0,0,1-.727-.83,8.307,8.307,0,0,1,0-2.34c.189-1.2-.333-2.178-2.03-2.545-1.65-.358-2.629.437-2.248,3.754v0a7.576,7.576,0,0,0,.269,4.277h5.078s.8-1.717-.343-2.317" transform="translate(-221.951 -201.279)" fill="#ff413c"/>
        <path id="Path_1732" data-name="Path 1732" d="M331.486,249.721a15.409,15.409,0,0,1-1.866,6.7c-1.9,3.456-4.251,8.2-4.251,8.2s-1.566,1.527-2.56-1c0,0,.7-8.808,2.314-12.033s6.363-1.866,6.363-1.866" transform="translate(-224.134 -173.19)" fill="#ff8b66"/>
        <path id="Path_1733" data-name="Path 1733" d="M420.392,215.114s3.025,12.719,4.949,16.074a3.142,3.142,0,0,1-2.526,1.828s-6.58-9.672-7-13.745,4.581-4.157,4.581-4.157" transform="translate(-288.69 -149.359)" fill="#ff8b66"/>
        <path id="Path_1734" data-name="Path 1734" d="M359.179,170.471c-.8,1.938-7.018,2.043-7.018,2.043l-.475-.7-.126-.183-.971-1.432s-10.3-10.1-12.3-9.252h0a.968.968,0,0,0-.17.1c-1.378.984-1.507,6.377-3.136,15.428a15.948,15.948,0,0,1-.764,2.552c-.031.075-.058.146-.085.214-.149.384-.255.628-.255.628-6.285,2.545-8.359-2.484-8.359-2.484s.075-.146.183-.38c.024-.051.051-.109.078-.17a8.609,8.609,0,0,0,.848-2.651q-.01-1.094-.017-2.107c0-.061,0-.119,0-.177-.01-2.176-.007-4.066.007-5.708v-.173c.007-.716.017-1.385.031-2.009v-.177c.054-2.861.146-4.772.244-6.044,0-.058.01-.119.014-.173a6.926,6.926,0,0,1,.356-2.352L326,146.511h13.738s2.064,2.067,4.741,4.8c.057.054.112.109.166.166.971.988,2.019,2.06,3.071,3.149.044.044.085.085.122.126l1.239,1.28c.051.051.1.105.149.156,1.378,1.429,2.715,2.837,3.859,4.069.041.041.078.082.115.122a40.773,40.773,0,0,1,3.167,3.679,25.46,25.46,0,0,1,2.406,5.175v0c.024.061.044.115.064.173.22.652.343,1.066.343,1.066" transform="translate(-226.014 -101.726)" fill="#4a0095"/>
        <path id="Path_1735" data-name="Path 1735" d="M332.428,173.155A3.719,3.719,0,0,1,330,174.37c0-.058.01-.119.013-.173a3.522,3.522,0,0,0,2.284-1.154,3.833,3.833,0,0,0,.787-2.63l.17-.02a3.964,3.964,0,0,1-.828,2.762" transform="translate(-229.129 -118.308)" fill="#effcfa"/>
        <path id="Path_1736" data-name="Path 1736" d="M380.45,158.5c-.054,0-.105.007-.16.007-1.527,0-3.122-1.67-3.2-1.755l.122-.119c.02.024,1.609,1.687,3.075,1.7.058.054.112.109.166.166" transform="translate(-261.821 -108.756)" fill="#662c33"/>
        <path id="Path_1737" data-name="Path 1737" d="M334.631,247.905c-.031.075-.058.146-.085.214a8.1,8.1,0,0,1-2.8.526,7.48,7.48,0,0,1-5.627-2.762c.024-.051.051-.109.078-.17a7.158,7.158,0,0,0,8.437,2.192" transform="translate(-226.43 -170.605)" fill="#effcfa"/>
        <path id="Path_1738" data-name="Path 1738" d="M359.688,169.759a14.269,14.269,0,0,1,.38,3.153.975.975,0,0,0-.17.1,16.975,16.975,0,0,0-3.007-9.167l.136-.1a17.658,17.658,0,0,1,2.617,5.841,1.556,1.556,0,0,0,.679-.974c.428-1.8-1.517-4.738-1.534-4.768l.139-.1c.081.126,2,3.031,1.561,4.9a1.724,1.724,0,0,1-.8,1.113" transform="translate(-247.799 -113.69)" fill="#effcfa"/>
        <path id="Path_1739" data-name="Path 1739" d="M402,178.8c-.506.55-.981,1.018-1.025,1.059l-.092.092-.044-.122c-.665-1.741-4.941-5.515-4.986-5.552l-.051-.047.713-1.181c.044.044.085.085.122.126l-.6.991a4.163,4.163,0,0,0,1.836.289c.051.051.1.105.149.156a2.638,2.638,0,0,1-.445.038,4.609,4.609,0,0,1-1.313-.227c.971.875,3.988,3.672,4.68,5.23.268-.265.608-.614.937-.971.041.041.078.082.116.122" transform="translate(-274.819 -120.15)" fill="#effcfa"/>
        <path id="Path_1740" data-name="Path 1740" d="M332.209,211.392l-.068.013a8.672,8.672,0,0,1-1.721.177,5.05,5.05,0,0,1-1.337-.16c0-.061,0-.119,0-.177a7.361,7.361,0,0,0,2.956.01l-.285-7.063a2.292,2.292,0,0,1-1.066,1.208,2.063,2.063,0,0,1-.944.21,3.019,3.019,0,0,1-.655-.075v-.173a2.206,2.206,0,0,0,1.52-.116,2.314,2.314,0,0,0,1.093-1.422,7.826,7.826,0,0,1-2.583-.472v-.176a6.759,6.759,0,0,0,2.671.455l.109-.037Z" transform="translate(-228.488 -141.072)" fill="#662c33"/>
        <path id="Path_1741" data-name="Path 1741" d="M417.993,221.016a8.611,8.611,0,0,1-6.122,2.464,9.874,9.874,0,0,1-1.028-.054l-.126-.183a8.547,8.547,0,0,0,7.212-2.4c.024.061.044.115.065.173" transform="translate(-285.171 -153.337)" fill="#effcfa"/>
        <path id="Path_1742" data-name="Path 1742" d="M346.857,22.8s-.378-.869-1.973-.87a2.043,2.043,0,0,0-1.7.679c-.735,2.15-1.526,10.38-1.808,10.672-.144.149-9.261,6.289-9.261,6.289,4.948.093,8.035,6.191,8.035,6.191.16-2,5.748-9.945,5.808-10.653.113-1.336,2.477-7.3.9-12.308" transform="translate(-230.596 -15.227)" fill="#ffc050"/>
        <path id="Path_1743" data-name="Path 1743" d="M328.558,154.884s-.046,1.717.51,1.83a15.624,15.624,0,0,0,10.284-.915c5.2-2.366,6.109-4.119,4.582-5.42s-15.375,4.505-15.375,4.505" transform="translate(-228.125 -104.28)" fill="#ce364c"/>
        <path id="Path_1744" data-name="Path 1744" d="M304.675,80.579s-4.735-.561-7.45.614c0,0-.757,3.36,2.973,10.879s2.865,12.255,7.071,14.038c3.729,1.58,14.724-3.123,15.07-4.683.869-3.927-5.854-10.818-6.279-14.812s-4.327-10-11.386-6.037" transform="translate(-206.327 -55.047)" fill="#ff413c"/>
        <path id="Path_1745" data-name="Path 1745" d="M281.386,85.519c-3.309,1.175-7.031,4.89-7.037,6.681s3.1,2.481,3.1,2.481l5.1-2.481s1.459-1.018.53-3.986-1.7-2.695-1.7-2.695" transform="translate(-190.487 -59.373)" fill="#ffc050"/>
        <path id="Path_1746" data-name="Path 1746" d="M333.393,88.023a5.617,5.617,0,0,1-2.977-.9,1.593,1.593,0,0,1-.724-.976,1.825,1.825,0,0,1,1.007-1.8l.154.3a1.489,1.489,0,0,0-.825,1.442,1.275,1.275,0,0,0,.586.753,5.032,5.032,0,0,0,3.289.8,1.117,1.117,0,0,0,.842-.463.771.771,0,0,0,.021-.6l.312-.134a1.106,1.106,0,0,1-.033.9,1.422,1.422,0,0,1-1.083.639,3.3,3.3,0,0,1-.568.046" transform="translate(-228.898 -58.566)" fill="#cfd8dc"/>
        <path id="Path_1747" data-name="Path 1747" d="M319.265,93.682a1.965,1.965,0,0,1-2.118-1.507,5.978,5.978,0,0,1,.018-1.572,2.521,2.521,0,0,0-.256-1.814,2.135,2.135,0,0,0-1.542-1.107l.021-.339a2.465,2.465,0,0,1,1.811,1.268,2.86,2.86,0,0,1,.3,2.028,5.6,5.6,0,0,0-.02,1.487c.184,1.3,1.837,1.216,1.907,1.212l.02.339c-.046,0-.094,0-.145,0" transform="translate(-218.966 -60.644)" fill="#cfd8dc"/>
        <path id="Path_1748" data-name="Path 1748" d="M310.523,77.174s2.5-1.7,1.909-3.55-8.654-1.718-10.733.488,4.5,3.67,4.5,3.67c.509-1.026,3.762-1.139,4.327-.608" transform="translate(-209.195 -50.227)" fill="#ffc050"/>
        <path id="Path_1749" data-name="Path 1749" d="M312.931,80.318c-1.188-.4-1.892-1.26-1.637-2.25s5.36-1.016,6.328-.225-.4,3.934-4.691,2.476" transform="translate(-216.103 -53.66)" fill="#ff413c"/>
        <path id="Path_1750" data-name="Path 1750" d="M314.919,77.019s1.05,1.795.565,2.782c0,0,3.6,1.245,3.6-.772a4.814,4.814,0,0,1-.423-2.489Z" transform="translate(-218.656 -53.144)" fill="#ef6e4b"/>
        <path id="Path_1751" data-name="Path 1751" d="M307.311,51.61a11.057,11.057,0,0,1-1.607-5.546,2.572,2.572,0,0,1,.779-1.885,1.943,1.943,0,0,1,.04-1.977s.834.965,3.762.661c2.823-.293,3.1,1.719,3.1,1.719,2.018.3.657,6.4-.752,7.028Z" transform="translate(-212.251 -29.302)" fill="#4a0095"/>
        <path id="Path_1752" data-name="Path 1752" d="M305.9,63.492s-1.018-1.016-1.143.172c-.145,1.376,1.1,1.93,1.349,1.492s-.205-1.664-.205-1.664" transform="translate(-211.595 -43.803)" fill="#ff8b66"/>
        <path id="Path_1753" data-name="Path 1753" d="M331.216,63.727s1.018-1.016,1.143.172c.145,1.376-1.1,1.93-1.349,1.492s.205-1.664.205-1.664" transform="translate(-229.779 -43.966)" fill="#ff8b66"/>
        <path id="Path_1754" data-name="Path 1754" d="M311.811,58.948c-2.259,0-3.534-1.475-3.534-5.9,0-2.282,1.162-3.682,3.691-3.682s3.6,1.4,3.6,3.682c0,4.755-1.42,5.9-3.753,5.9" transform="translate(-214.044 -34.275)" fill="#ff8b66"/>
        <path id="Path_1755" data-name="Path 1755" d="M327.321,65.823a.535.535,0,1,1-.586-.321.478.478,0,0,1,.586.321" transform="translate(-226.55 -45.473)" fill="#db614d"/>
        <path id="Path_1756" data-name="Path 1756" d="M312.1,65.953a.535.535,0,1,1-.494-.45.479.479,0,0,1,.494.45" transform="translate(-215.977 -45.479)" fill="#db614d"/>
        <path id="Path_1757" data-name="Path 1757" d="M323.855,57.806a.112.112,0,0,1-.086-.022,1.291,1.291,0,0,0-.907-.177.115.115,0,0,1-.132-.09.113.113,0,0,1,.09-.132,1.508,1.508,0,0,1,1.086.22.113.113,0,0,1-.051.2" transform="translate(-224.078 -39.829)" fill="#ffb878"/>
        <path id="Path_1758" data-name="Path 1758" d="M312.047,57.8a.113.113,0,0,1-.058-.2,1.508,1.508,0,0,1,1.079-.253.113.113,0,0,1,.094.129.115.115,0,0,1-.129.094,1.3,1.3,0,0,0-.9.2.113.113,0,0,1-.086.025" transform="translate(-216.593 -39.811)" fill="#ffb878"/>
        <path id="Path_1759" data-name="Path 1759" d="M324.369,61.83c0,.28-.126.508-.282.508s-.282-.227-.282-.508.126-.508.282-.508.282.227.282.508" transform="translate(-224.826 -42.577)" fill="#1a4850"/>
        <path id="Path_1760" data-name="Path 1760" d="M314.5,61.83c0,.28-.126.508-.282.508s-.282-.227-.282-.508.126-.508.282-.508.282.227.282.508" transform="translate(-217.974 -42.577)" fill="#1a4850"/>
        <path id="Path_1761" data-name="Path 1761" d="M307.791,48.6a15.393,15.393,0,0,0,5.858.633s.736.917.647,4.153c0,0,2.021-5.829-3.878-5.829s-3.241,5.7-3.241,5.7-.482-3.565.615-4.657" transform="translate(-212.865 -33.021)" fill="#4a0095"/>
        <path id="Path_1762" data-name="Path 1762" d="M319.92,61.768l-.169-.17.447-.444a4.68,4.68,0,0,1-.431-2.093h.24c0,.016,0,1.54.44,2.02l.079.085Z" transform="translate(-222.011 -41.007)" fill="#db614d"/>
        <path id="Path_1763" data-name="Path 1763" d="M315.4,69.874a15.385,15.385,0,0,0,3.345-.2,1.49,1.49,0,0,1-1.525,1.7,1.548,1.548,0,0,1-1.821-1.494" transform="translate(-218.991 -48.374)" fill="#1a4850"/>
        <path id="Path_1764" data-name="Path 1764" d="M345.791,90.32c.424-.079.382,1.031,0,.709s-.424-.631,0-.709" transform="translate(-239.881 -62.708)" fill="#cfd8dc"/>
        <path id="Path_1765" data-name="Path 1765" d="M327.983,107.056c-.065.427-1.1.023-.67-.233s.735-.194.67.233" transform="translate(-227.189 -74.065)" fill="#cfd8dc"/>
        <path id="Path_1766" data-name="Path 1766" d="M312.824,115.506a9.277,9.277,0,0,0-.635,2.7c.039.976.358.849.358.849a1.054,1.054,0,0,0-.608.764c-.1.562,1.324.976,1.421.976s1.1-.382,1.1-.382l.21-3.192-.887-.557Z" transform="translate(-216.583 -80.199)" fill="#ef6e4b"/>
        <path id="Path_1767" data-name="Path 1767" d="M315.38,114.775a13.92,13.92,0,0,1,1.7,1.23c.475.466.2,4.073,0,4.242a3.948,3.948,0,0,1-2.068.323c-.3-.2.117-1.257.117-1.257s.785-.17.672.127a.779.779,0,0,0,0,.551l.323-.127a3.752,3.752,0,0,1,0-1.4c.158-.594-1.106-1.22-1.258-2.307s.513-1.384.513-1.384" transform="translate(-218.604 -79.691)" fill="#ff8b66"/>
        <path id="Path_1768" data-name="Path 1768" d="M274.885,104.312c-.392-1.7,1.29-2.3,3.631-2.006,2.715.335,8.291,1.045,9.5,3.987a1.442,1.442,0,0,1-.628,1.717c-2.864,1.558-11.768-.513-12.505-3.7" transform="translate(-190.82 -70.985)" fill="#ffc050"/>
        <path id="Path_1769" data-name="Path 1769" d="M290.919,101.968a23.828,23.828,0,0,0-4.848-1.48c-1.612-.136,2.229,1.273,4.848,1.48" transform="translate(-198.36 -69.765)" fill="#a02e44"/>
        <path id="Path_1770" data-name="Path 1770" d="M369.138,3.072a7.3,7.3,0,0,0-.648,1.361,4.148,4.148,0,0,1-.587,1.829,1.647,1.647,0,0,0-.149,1.154,2.283,2.283,0,0,1-2.274-.149,2.636,2.636,0,0,0,0-.937c-.214-.414-.9-.635-1.133-1.469a6.556,6.556,0,0,0-.937-1.772s.2-.434.567-.17.6.937.8,1a.536.536,0,0,0,.122.027.026.026,0,0,1,.01,0,.5.5,0,0,0,.4-.105.063.063,0,0,0,.024-.02,4.034,4.034,0,0,0,.4-2.05c-.02-.713.007-1.7.441-1.531s.037.563.373,2.135l.163.02a6.047,6.047,0,0,0,.4-1.955c.051-.689.5-.434.6-.217a5.56,5.56,0,0,1-.081,1.4c-.024.329-.051.672-.068.876l.19.105c.686-1.195.451-1.69.852-1.714s.255.984.041,1.368a3.778,3.778,0,0,0-.251.852c.7-.811.625-1.235.947-1.184s.034.859-.21,1.137" transform="translate(-252.324 0)" fill="#ff8b66"/>
        <path id="Path_1771" data-name="Path 1771" d="M369.519,13.685a1.992,1.992,0,0,0-1.191-.988.493.493,0,0,0,.4-.105,1.192,1.192,0,0,1,.787,1.093" transform="translate(-255.739 -8.743)" fill="#ef6e4b"/>
        <path id="Path_1772" data-name="Path 1772" d="M323.485,296.671s-.47-.958-.051-1.37.912.352,1.627.182.881-.678,1.067.015-.04,2.87-2.642,1.173" transform="translate(-224.447 -204.926)" fill="#4a0095"/>
        <path id="Path_1773" data-name="Path 1773" d="M326.177,300s-1.921.68-2.917,0l.253.831s2.088.221,2.376-.305Z" transform="translate(-224.447 -208.298)" fill="#4a0095"/>
        <path id="Path_1774" data-name="Path 1774" d="M326.8,303.227a5.8,5.8,0,0,0-2.607.193v.412s2.293-.535,3.034,0Z" transform="translate(-225.092 -210.491)" fill="#4a0095"/>
        <path id="Path_1775" data-name="Path 1775" d="M323.912,306.127a1.6,1.6,0,0,1,1.411-.891,2.791,2.791,0,0,1,1.792.529,3.578,3.578,0,0,0-3.2.361" transform="translate(-224.9 -211.93)" fill="#4a0095"/>
        <path id="Path_1776" data-name="Path 1776" d="M447.447,266.481a14.268,14.268,0,0,1-7.972,5.372,3.369,3.369,0,0,1-1.368-2.328,7.089,7.089,0,0,1-1.456-1.7c-.17-.55,1.1-2.206,1.866-2.036a1.541,1.541,0,0,1,.971.784c-.631-1.422-.125-1.918.771-1.8.933.125.051.346.72,1.1a.892.892,0,0,0,.159.139,1.1,1.1,0,0,0,.434.173,2,2,0,0,0,.479.024,2.554,2.554,0,0,0,.271-.027,3.672,3.672,0,0,0,.533-.129,4.754,4.754,0,0,0,.859-.37c1.167-.638,1.66-.855,2.549-.628s.872.9.872.9Z" transform="translate(-303.167 -183.831)" fill="#ff413c"/>
        <path id="Path_1777" data-name="Path 1777" d="M453.9,270.364a14.268,14.268,0,0,1-7.972,5.372,17.324,17.324,0,0,0,5.973-3.954c1.469-1.626,2-1.419,2-1.419" transform="translate(-309.615 -187.714)" fill="#4a0095"/>
        <path id="Path_1778" data-name="Path 1778" d="M449.314,268.862a1.1,1.1,0,0,0,.434.173,1.143,1.143,0,0,0-.957.978l-.38-.122a1,1,0,0,1,.9-1.028" transform="translate(-311.343 -186.677)" fill="#4a0095"/>
        <path id="Path_1779" data-name="Path 1779" d="M452.306,270.5l-.4.013a1.05,1.05,0,0,1,.231-1.086,1.978,1.978,0,0,0,.478.024,1.133,1.133,0,0,0-.312,1.049" transform="translate(-313.735 -187.07)" fill="#4a0095"/>
        <path id="Path_1780" data-name="Path 1780" d="M455.418,269.983l-.394.051a1.1,1.1,0,0,1,0-.909,3.657,3.657,0,0,0,.533-.129,1.153,1.153,0,0,0-.135.988" transform="translate(-315.866 -186.77)" fill="#4a0095"/>
        <path id="Path_1781" data-name="Path 1781" d="M328.762,135.188s.871,4.7-.891,6.577-.6.334-.071-2.082.125-4.961.962-4.495" transform="translate(-226.998 -93.826)" fill="#ce364c"/>
        <path id="Path_1782" data-name="Path 1782" d="M359.523,128.269a8.364,8.364,0,0,1,4.231,3.479s-1.94-4.177-4.231-3.479" transform="translate(-249.626 -89.006)" fill="#ce364c"/>
        <path id="Path_1783" data-name="Path 1783" d="M120.49,4.468a7.3,7.3,0,0,1,1.444.433,4.148,4.148,0,0,0,1.75.793c.521.046.735.942.735.942s2.055.45,2.172-.846c0,0-1.149-1.626-1.23-1.846-.163-.437.134-1.092-.328-1.827a6.553,6.553,0,0,1-.684-1.884s-.456-.143-.506.306.289,1.077.2,1.27a.518.518,0,0,1-.062.109.028.028,0,0,0,0,.01.494.494,0,0,1-.349.229.059.059,0,0,1-.031,0,4.031,4.031,0,0,1-1.788-1.079c-.514-.493-1.262-1.134-1.431-.7s.392.406,1.332,1.71l-.094.134A6.055,6.055,0,0,1,119.9,1.21c-.545-.425-.659.081-.564.3s.7.568,1.094.881c.26.2.532.413.695.537l-.05.212c-1.346-.294-1.556-.8-1.842-.519s.558.849.986.949a3.783,3.783,0,0,1,.8.386c-1.073-.024-1.335-.367-1.514-.094s.614.6.984.607" transform="translate(-82.747 -0.147)" fill="#ff8b66"/>
        <path id="Path_1784" data-name="Path 1784" d="M133.854,7.376a1.992,1.992,0,0,1,.068-1.546.5.5,0,0,1-.349.229,1.192,1.192,0,0,0,.281,1.317" transform="translate(-92.688 -4.048)" fill="#ef6e4b"/>
        <path id="Path_1785" data-name="Path 1785" d="M307.473,4.468a7.3,7.3,0,0,0-1.444.433,4.148,4.148,0,0,1-1.75.793c-.521.046-.735.942-.735.942s-2.055.45-2.172-.846c0,0,1.149-1.626,1.229-1.846.164-.437-.133-1.092.328-1.827a6.554,6.554,0,0,0,.684-1.884s.456-.143.506.306-.289,1.077-.2,1.27a.521.521,0,0,0,.062.109.028.028,0,0,1,0,.01.494.494,0,0,0,.349.229.059.059,0,0,0,.031,0,4.031,4.031,0,0,0,1.788-1.079c.514-.493,1.262-1.134,1.431-.7s-.392.406-1.332,1.71l.094.134a6.055,6.055,0,0,0,1.718-1.016c.545-.425.659.081.564.3s-.7.568-1.094.881c-.26.2-.532.413-.694.537l.05.212c1.346-.294,1.556-.8,1.842-.519s-.558.849-.986.949a3.784,3.784,0,0,0-.8.386c1.073-.024,1.335-.367,1.514-.094s-.614.6-.984.607" transform="translate(-209.251 -0.147)" fill="#ff8b66"/>
        <path id="Path_1786" data-name="Path 1786" d="M309.979,7.376a1.992,1.992,0,0,0-.068-1.546.494.494,0,0,0,.349.229,1.192,1.192,0,0,1-.281,1.317" transform="translate(-215.179 -4.048)" fill="#ef6e4b"/>
        <path id="Path_1787" data-name="Path 1787" d="M204.062,162.442l-3.949-24.451-7.907.883-7.908-.883-3.949,24.451-1.9,23.715s.6,1.965,4.548.607c0,0,2.927-22,3.379-22.48s5.1-14.852,5.1-14.852h1.453s4.647,14.367,5.1,14.852,3.379,22.48,3.379,22.48c3.945,1.358,4.548-.607,4.548-.607Z" transform="translate(-123.904 -95.811)" fill="#4a0095"/>
        <path id="Path_1788" data-name="Path 1788" d="M213.791,60.529c.5.486,2.957,1.363,4.254,0l.88.864s-1,2.359-2.764,2.442-3.033-2.1-3.033-2.1Z" transform="translate(-147.98 -42.027)" fill="#ff413c"/>
        <path id="Path_1789" data-name="Path 1789" d="M238.063,28.259c2.941-1.266,12.444-4.632,12.444-4.632s6.388-8,7.69-9.191a2.515,2.515,0,0,1,1.828,2.015s-4.113,8.808-6.349,11.329-13.561,7.975-13.561,7.975Z" transform="translate(-165.293 -10.023)" fill="#ff413c"/>
        <path id="Path_1790" data-name="Path 1790" d="M195.952,58.757c.875-.553,5.268,2.385,5.268,2.385s5.711-3.033,7.052-2.445c0,0,1.208,1.616,1.693,5.772s.518,21.255.518,21.255a29.827,29.827,0,0,1-9.034,1.358c-5.921,0-9.106-1.7-9.106-1.7s-1.057-23.676,3.61-26.628" transform="translate(-133.477 -40.702)" fill="#ffc050"/>
        <path id="Path_1791" data-name="Path 1791" d="M216.055,57.611s.632,1.99,0,2.756c0,0,.657,1.378,1.838,1.439,1.364.071,1.837-1.439,1.837-1.439s-.721-1.922,0-2.6Z" transform="translate(-150.012 -40.001)" fill="#ef6e4b"/>
        <path id="Path_1792" data-name="Path 1792" d="M208.392,32.178a10.765,10.765,0,0,1-1.068-5.3c.263-2.738,4.389-3.366,7.17-2.021,0,0-.825-.807-.5-1.031s.88,1.211.88,1.211.878-.269,1.013,0-.9.416-.9.416,1.794.995.118,6.29Z" transform="translate(-143.927 -16.527)" fill="#4a0095"/>
        <path id="Path_1793" data-name="Path 1793" d="M207.683,45s-.993-.99-1.115.168c-.142,1.341,1.077,1.882,1.315,1.455s-.2-1.623-.2-1.623" transform="translate(-143.417 -30.97)" fill="#ff8b66"/>
        <path id="Path_1794" data-name="Path 1794" d="M232.363,45.228s.993-.991,1.115.167c.142,1.342-1.077,1.882-1.315,1.455s.2-1.623.2-1.623" transform="translate(-161.147 -31.129)" fill="#ff8b66"/>
        <path id="Path_1795" data-name="Path 1795" d="M213.442,40.568c-2.2,0-3.445-1.439-3.445-5.753,0-2.225,1.132-3.59,3.6-3.59s3.506,1.365,3.506,3.59c0,4.636-1.385,5.753-3.66,5.753" transform="translate(-145.806 -21.68)" fill="#ff8b66"/>
        <path id="Path_1796" data-name="Path 1796" d="M228.566,47.272a.522.522,0,1,1-.571-.313.466.466,0,0,1,.571.313" transform="translate(-158 -32.598)" fill="#db614d"/>
        <path id="Path_1797" data-name="Path 1797" d="M213.726,47.4a.522.522,0,1,1-.481-.439.467.467,0,0,1,.481.439" transform="translate(-147.69 -32.604)" fill="#db614d"/>
        <path id="Path_1798" data-name="Path 1798" d="M225.2,39.407a.11.11,0,0,1-.079-.034,1.258,1.258,0,0,0-.848-.306.112.112,0,0,1-.113-.107.109.109,0,0,1,.106-.113,1.466,1.466,0,0,1,1.014.374.11.11,0,0,1-.079.186" transform="translate(-155.636 -26.972)" fill="#8b383e"/>
        <path id="Path_1799" data-name="Path 1799" d="M213.743,39.407a.109.109,0,0,1-.076-.03.11.11,0,0,1,0-.155,1.469,1.469,0,0,1,1.014-.374.109.109,0,0,1,.106.113.113.113,0,0,1-.113.107,1.264,1.264,0,0,0-.847.306.111.111,0,0,1-.08.034" transform="translate(-148.331 -26.972)" fill="#8b383e"/>
        <path id="Path_1800" data-name="Path 1800" d="M225.686,43.378c0,.274-.123.5-.275.5s-.275-.222-.275-.5.123-.5.275-.5.275.222.275.5" transform="translate(-156.317 -29.775)" fill="#1a4850"/>
        <path id="Path_1801" data-name="Path 1801" d="M216.064,43.378c0,.274-.123.5-.275.5s-.275-.222-.275-.5.123-.5.275-.5.275.222.275.5" transform="translate(-149.637 -29.775)" fill="#1a4850"/>
        <path id="Path_1802" data-name="Path 1802" d="M217.314,53.556a6.831,6.831,0,0,0,2.941-.23s-.565,1.322-1.626,1.2a1.51,1.51,0,0,1-1.316-.974" transform="translate(-150.886 -37.026)" fill="#1a4850"/>
        <path id="Path_1803" data-name="Path 1803" d="M215.542,34.864a11.6,11.6,0,0,0-1-4.236s-1.644.76-2.006.58.345-.58.345-.58a13.74,13.74,0,0,1-2.876.715c-.163-.179.9-.715.9-.715l-1.69.58a12.081,12.081,0,0,0-.305,3.656,7.023,7.023,0,0,1-.816-2.118,3.135,3.135,0,0,1,2.836-3.511c2.545-.179,3.975.4,4.605,1.567a4.89,4.89,0,0,1,.009,4.062" transform="translate(-144.476 -20.276)" fill="#4a0095"/>
        <path id="Path_1804" data-name="Path 1804" d="M221.394,45.07a2.006,2.006,0,0,1-.5-.074l.062-.225c.231.064.594.1.673.009.027-.032.016-.108-.03-.206a9.188,9.188,0,0,1-.387-2.463l.234-.009a9.22,9.22,0,0,0,.365,2.372.407.407,0,0,1,0,.457.536.536,0,0,1-.417.139" transform="translate(-153.374 -29.232)" fill="#db614d"/>
        <path id="Path_1805" data-name="Path 1805" d="M230.495,58.111s3.986,12.374,4.366,22.442c0,0,1.439.4,3.059-1.81s.656-19.679-2.447-22.588c0,0-1.408-.321-4.977,1.957" transform="translate(-160.038 -38.979)" fill="#ff413c"/>
        <path id="Path_1806" data-name="Path 1806" d="M230.255,62.176a5.25,5.25,0,0,0,.4-2.794c-.317-1.137-1.438,0-1.438,0a12.211,12.211,0,0,0,1.041,2.794" transform="translate(-159.149 -40.879)" fill="#ff413c"/>
        <path id="Path_1807" data-name="Path 1807" d="M156.766,27.729c-2.941-1.266-12.444-4.632-12.444-4.632s-6.4-8.237-7.707-9.425a3.662,3.662,0,0,0-1.722,2.8s4.023,8.256,6.259,10.778,13.561,7.975,13.561,7.975Z" transform="translate(-93.66 -9.493)" fill="#ff413c"/>
        <path id="Path_1808" data-name="Path 1808" d="M195.389,58.111s-3.986,12.374-4.366,22.442c0,0-1.439.4-3.059-1.81s-.656-19.679,2.447-22.588c0,0,1.408-.321,4.977,1.957" transform="translate(-129.97 -38.979)" fill="#ff413c"/>
        <path id="Path_1809" data-name="Path 1809" d="M210.8,62.176a5.25,5.25,0,0,1-.4-2.794c.317-1.137,1.438,0,1.438,0a12.211,12.211,0,0,1-1.041,2.794" transform="translate(-146.035 -40.879)" fill="#ff413c"/>
        <path id="Path_1810" data-name="Path 1810" d="M261.549,300.715h-7.914a16.122,16.122,0,0,1,.329-6.3l3.618-.621c.329,1.989.726,2.773,1.276,3.177h0a5.541,5.541,0,0,0,1.476.594,1.9,1.9,0,0,1,1.222,1.137,3.365,3.365,0,0,1-.01,2.009" transform="translate(-175.978 -203.991)" fill="#662c33"/>
        <path id="Path_1811" data-name="Path 1811" d="M266.373,305.921c-1.951.244-6.238.662-5.977-.468.217-.944,2.026-1.2,3.275-1.262h0a5.54,5.54,0,0,0,1.476.594,1.9,1.9,0,0,1,1.222,1.137" transform="translate(-180.791 -211.207)" fill="#8b383e"/>
        <path id="Path_1812" data-name="Path 1812" d="M174.875,300.715h-7.914a3.668,3.668,0,0,1-.136-1.524,1.917,1.917,0,0,1,1.347-1.622,4.246,4.246,0,0,0,1.642-.73c.468-.441.818-1.256,1.113-3.041l3.618.621a16.2,16.2,0,0,1,.329,6.3" transform="translate(-115.81 -203.991)" fill="#662c33"/>
        <path id="Path_1813" data-name="Path 1813" d="M166.894,306.1a1.917,1.917,0,0,1,1.347-1.622,4.247,4.247,0,0,0,1.642-.73c1,.309,2.4.875,2.837,1.734.6,1.178-4.022.991-5.827.618" transform="translate(-115.879 -210.898)" fill="#8b383e"/>
        <path id="Path_1814" data-name="Path 1814" d="M357.192,301.559a4.371,4.371,0,0,1-.034.567h-9.615c0-.19,0-.38.014-.567a17.655,17.655,0,0,1,.9-4.7l2.4-1.032a3.845,3.845,0,0,0,1.408,2.545,3.438,3.438,0,0,0,.55.353c.088.047.176.091.268.132a4.606,4.606,0,0,0,.614.227,15.016,15.016,0,0,0,2.308.4c1.025.159,1.181,1.344,1.181,2.067" transform="translate(-241.308 -205.402)" fill="#164353"/>
        <path id="Path_1815" data-name="Path 1815" d="M357.192,314.571a4.371,4.371,0,0,1-.034.567h-9.615c0-.19,0-.38.014-.567Z" transform="translate(-241.308 -218.414)" fill="#225866"/>
        <path id="Path_1816" data-name="Path 1816" d="M361.139,304.509l-1.334.428-.282-.489,1.066-.292a3.419,3.419,0,0,0,.55.353" transform="translate(-249.626 -211.183)" fill="#225866"/>
        <path id="Path_1817" data-name="Path 1817" d="M364.4,305.971l-.9.6-.553-.217.838-.607a4.624,4.624,0,0,0,.614.227" transform="translate(-252 -212.286)" fill="#225866"/>
        <path id="Path_1818" data-name="Path 1818" d="M243.587,299.092a2.42,2.42,0,0,1-.109.567h-6.4a2.888,2.888,0,0,1-.18-.567c-.631-3.064,3.624-6.815,3.624-6.815l1.351,1.8s-.156,2.885.988,3.485a1.463,1.463,0,0,1,.73,1.527" transform="translate(-164.438 -202.935)" fill="#164353"/>
        <path id="Path_1819" data-name="Path 1819" d="M237.04,314.571h6.692a2.4,2.4,0,0,1-.109.567h-6.4a2.87,2.87,0,0,1-.18-.567" transform="translate(-164.583 -218.414)" fill="#225866"/>
        <path id="Path_1820" data-name="Path 1820" d="M246.667,307.268s-2.7-.615-3.928.181V307s2.27-1.1,3.928.264" transform="translate(-168.54 -212.869)" fill="#225866"/>
        <path id="Path_1821" data-name="Path 1821" d="M246.132,305.033a4.4,4.4,0,0,0-3.394,0l.191-.449s2-.755,3.2.449" transform="translate(-168.539 -211.318)" fill="#225866"/>
        <path id="Path_1822" data-name="Path 1822" d="M280.834,183.858c0,2.576-2.284,23.577-2.284,23.577a13.365,13.365,0,0,1-4.12-.231c-.628-10.643-.689-19.8-.689-19.8l-10.962-8.216-.027-.02s-.041.187-.115.519c-.543,2.41-2.841,12.5-3.8,14.814-1.089,2.633-13,13.708-13,13.708a9.169,9.169,0,0,1-4.09-1.908A141.281,141.281,0,0,1,251.855,192.1c.455-2.555.781-8.24.974-12.489,0-.065.007-.132.01-.2.129-2.878.194-5.05.194-5.05l-2.009-4.12,12.764-4.69,2.861,3.662s.655.608,1.687,1.579l.143.132c3.831,3.614,12.357,11.78,12.357,12.933" transform="translate(-167.852 -114.947)" fill="#66d12c"/>
        <path id="Path_1823" data-name="Path 1823" d="M278,202.358c0-.064.007-.132.01-.2a3.7,3.7,0,0,0,2.23-3.811l.166-.034A3.9,3.9,0,0,1,278,202.358" transform="translate(-193.02 -137.696)" fill="#6097b2"/>
        <path id="Path_1824" data-name="Path 1824" d="M305.975,192.147a14.451,14.451,0,0,1,.2,1.646l-.027-.02s-.041.187-.115.519a12.436,12.436,0,0,0-1.785-6.377l.139-.1a11.517,11.517,0,0,1,1.558,4.137c1.941-1.724.041-5.257.02-5.291l.149-.081c.021.037,2.033,3.777-.136,5.566" transform="translate(-211.244 -129.548)" fill="#6097b2"/>
        <path id="Path_1825" data-name="Path 1825" d="M322.669,179.813s-.01,0-.013.007a.736.736,0,0,1-.265.044c-.94,0-2.518-1.317-2.593-1.381l.112-.129c.512.434,1.941,1.476,2.617,1.327l.142.132" transform="translate(-222.044 -123.836)" fill="#6097b2"/>
        <path id="Path_1826" data-name="Path 1826" d="M275.014,108.67s3.883-.625,5.828.615a25.416,25.416,0,0,1,4.5,4.477s-3.032.4-3.376,2.46c0,0-2.2-5.246-6.952-7.553" transform="translate(-190.949 -75.343)" fill="#4a0095"/>
        <path id="Path_1827" data-name="Path 1827" d="M245.642,111c-1.642.888-4.388,4.221-4.512,6.271-.121,2,1.36,3.839,2.359,5.4,3.116,4.878,6.4,9.189,7.79,14.91.009.036,7.127,2.861,15.48-7.181,0,0-4.72-6.351-6.351-11.758a24.6,24.6,0,0,0-2.614-6.479,6.938,6.938,0,0,0-6.312-3.191A15.534,15.534,0,0,0,245.642,111" transform="translate(-167.418 -75.652)" fill="#4a0095"/>
        <path id="Path_1828" data-name="Path 1828" d="M253.652,107.869s1.05,1.795.565,2.782c0,0,3.6,1.245,3.6-.772a4.814,4.814,0,0,1-.423-2.489Z" transform="translate(-176.117 -74.564)" fill="#ef6e4b"/>
        <path id="Path_1829" data-name="Path 1829" d="M271.98,149.167a6.376,6.376,0,0,0-2.511,1.279,9.978,9.978,0,0,0-.956,2.3h3.467l.652-1.2.764-1.6Z" transform="translate(-186.435 -103.57)" fill="#ef6e4b"/>
        <path id="Path_1830" data-name="Path 1830" d="M250.221,82.542s1.408-.59.5-4.825c-.6-2.805-1.473-3.223-2.034-3.248,0,0-.687-1.036-3.071-.54a4.428,4.428,0,0,0-3.508,3.165c-.6,1.915.6,6.019,2.175,6.428Z" transform="translate(-167.99 -51.238)" fill="#4a0095"/>
        <path id="Path_1831" data-name="Path 1831" d="M269.883,91.791s.887-1.235,1.222-.018c.388,1.41-.82,2.2-1.15,1.789s-.072-1.771-.072-1.771" transform="translate(-187.32 -63.348)" fill="#ff8b66"/>
        <path id="Path_1832" data-name="Path 1832" d="M243.168,96.622S241.931,95.738,242,97c.085,1.46,1.484,1.823,1.663,1.324s-.5-1.7-.5-1.7" transform="translate(-168.028 -66.878)" fill="#ff8b66"/>
        <path id="Path_1833" data-name="Path 1833" d="M249.708,89.164c2.356-.389,3.432-2.147,2.67-6.762-.393-2.381-1.845-3.642-4.484-3.206s-3.509,2.079-3.117,4.46c.818,4.96,2.5,5.911,4.931,5.509" transform="translate(-169.893 -54.929)" fill="#ff8b66"/>
        <path id="Path_1834" data-name="Path 1834" d="M248.422,97.954a.566.566,0,1,0,.556-.436.506.506,0,0,0-.556.436" transform="translate(-172.485 -67.709)" fill="#db614d"/>
        <path id="Path_1835" data-name="Path 1835" d="M264.324,95.45a.566.566,0,1,0,.437-.555.506.506,0,0,0-.437.555" transform="translate(-183.52 -65.876)" fill="#db614d"/>
        <path id="Path_1836" data-name="Path 1836" d="M250.32,88.791a.116.116,0,0,1-.067-.021.119.119,0,0,1-.031-.165,1.6,1.6,0,0,1,1.019-.58.118.118,0,0,1,.134.1.12.12,0,0,1-.1.134,1.374,1.374,0,0,0-.853.477.12.12,0,0,1-.1.052" transform="translate(-173.72 -61.117)" fill="#1a4850"/>
        <path id="Path_1837" data-name="Path 1837" d="M262.436,87.089a.117.117,0,0,1-.072-.024,1.37,1.37,0,0,0-.96-.178.118.118,0,0,1-.14-.094.119.119,0,0,1,.094-.14,1.593,1.593,0,0,1,1.15.222.119.119,0,0,1-.072.215" transform="translate(-181.4 -60.147)" fill="#1a4850"/>
        <path id="Path_1838" data-name="Path 1838" d="M251.966,93.188c.048.293.219.508.382.481s.255-.286.207-.579-.219-.508-.382-.481-.255.286-.207.578" transform="translate(-174.937 -64.3)" fill="#1a4850"/>
        <path id="Path_1839" data-name="Path 1839" d="M262.26,91.491c.048.293.219.508.382.481s.255-.286.207-.578-.219-.508-.382-.481-.255.286-.207.578" transform="translate(-182.085 -63.121)" fill="#1a4850"/>
        <path id="Path_1840" data-name="Path 1840" d="M257.961,101.5a9.57,9.57,0,0,1-3.178.33,1.99,1.99,0,0,0,1.9.7c1.119-.285,1.275-1.033,1.275-1.033" transform="translate(-176.902 -70.474)" fill="#1a4850"/>
        <path id="Path_1841" data-name="Path 1841" d="M250.3,78.751a12.323,12.323,0,0,1-6,2.072l.095,2.971s-3.111-5.733,3.042-6.748,4.362,5.388,4.362,5.388-.19-2.762-1.5-3.684" transform="translate(-169.145 -53.42)" fill="#4a0095"/>
        <path id="Path_1842" data-name="Path 1842" d="M257.636,93.277l-.017-.257s.359-.028.451-.248c.038-.09-.113-.379-.246-.633a4.864,4.864,0,0,1-.514-1.282l.253-.051a4.642,4.642,0,0,0,.489,1.214c.2.378.341.65.256.853a.821.821,0,0,1-.671.4" transform="translate(-178.657 -63.049)" fill="#db614d"/>
        <path id="Path_1843" data-name="Path 1843" d="M250.146,74.868c-4.473-1.941-8.695,2.084-8.695,2.084s-.492-3.262.37-4.025a5.162,5.162,0,0,1,.716-.533,7.554,7.554,0,0,1,5.807-.794,1.463,1.463,0,0,1,.547.306,8.994,8.994,0,0,1,1.256,2.963" transform="translate(-167.548 -49.53)" fill="#66d12c"/>
        <path id="Path_1844" data-name="Path 1844" d="M251.813,74.142a10.58,10.58,0,0,0-7.259,1.575,9.913,9.913,0,0,1,.193-3.323,7.554,7.554,0,0,1,5.807-.794,9.124,9.124,0,0,1,1.259,2.542" transform="translate(-169.758 -49.53)" fill="#66d12c"/>
        <path id="Path_1845" data-name="Path 1845" d="M242.979,78.295s.6-2.529,1.4-3.242c1.335-1.185,5.085-1.592,7.056-.879s0,2.866,0,2.866-3.141-2.251-8.454,1.255" transform="translate(-168.706 -51.256)" fill="#ffc050"/>
        <path id="Path_1846" data-name="Path 1846" d="M256.976,143.443a12.518,12.518,0,0,0,4.15,3.777,11.592,11.592,0,0,1,7.512-2.584s-3.515,6.342-6.534,7.045c-1.586.369-7.322-3.429-7.322-3.429s1.145-4.036,2.193-4.809" transform="translate(-176.902 -99.596)" fill="#ff8b66"/>
        <path id="Path_1847" data-name="Path 1847" d="M241.789,127.613c1.405-2.287,4.647,1.094,5.75,3.509s1.908,2.927,1.908,2.927-3.239,1.353-3.216,3.781c0,0-7.508-5.225-4.442-10.217" transform="translate(-167.369 -88.077)" fill="#4a0095"/>
        <path id="Path_1848" data-name="Path 1848" d="M275.534,134.039s1.973-1.936,8.46-4.462l-.838-2.635a2.891,2.891,0,0,1,2.112-.979s3.324,4.693,2.751,6.1c-.357.875-7.29,1.794-12.486,1.98" transform="translate(-191.31 -87.459)" fill="#ef6e4b"/>
        <path id="Path_1849" data-name="Path 1849" d="M298.776,132.827a1.724,1.724,0,0,1,.291-.616c.24-.338.175-.954.261-1.145a3.272,3.272,0,0,1,.935-1.123c.339-.152.783-.4.878.03s-.607.308-.922.926a2.731,2.731,0,0,1,1.236-.094c.547.129.7.629.026.612a3.036,3.036,0,0,0-1.232.371s.7.105.589.429c-.156.447-1.013.172-2.061.609" transform="translate(-207.448 -90.076)" fill="#ff8b66"/>
        <path id="Path_1850" data-name="Path 1850" d="M139.77,136.673a19.287,19.287,0,0,0,2.956,4.03s5.8-3.479,8.48-2.015,4.8,2.356,6.541,1.719-5.709-14.177-5.709-14.177l-9.653-3.683s-.211,2.441-1.313,2.875-2.279,4.464-2.2,5.227.9,6.024.9,6.024" transform="translate(-96.419 -85.087)" fill="#66d12c"/>
        <path id="Path_1851" data-name="Path 1851" d="M124.73,171.533a68.924,68.924,0,0,1-7.628,11.128s-.527,7.431-14.116,19.122l-1.423-1.119s8.093-12.676,9.711-16.563-.895-7.448,6.552-17.278Z" transform="translate(-70.518 -115.829)" fill="#ef6e4b"/>
        <path id="Path_1852" data-name="Path 1852" d="M142.717,153.989a33.223,33.223,0,0,0-2.862,9.352l-.975,2.462a27.446,27.446,0,0,0,7.457,2.545l1.6-4.242Z" transform="translate(-96.428 -106.918)" fill="#ff413c"/>
        <path id="Path_1853" data-name="Path 1853" d="M169.053,180.977a68.905,68.905,0,0,1,.886,13.462s4.181,6.165.731,23.756h-1.81s-1.479-14.966-2.61-19.022-5.309-5.3-5.535-17.631Z" transform="translate(-111.588 -125.657)" fill="#ff8b66"/>
        <path id="Path_1854" data-name="Path 1854" d="M162.866,168.01a46.5,46.5,0,0,1-9.4.329l-.1-.675-.024-.173-.621-4.371a11.768,11.768,0,0,1-1.171-1.873c-.071-.136-.139-.275-.207-.421a9.538,9.538,0,0,1-.72-6.832l1.266.058.177.01,4.235.193.18.01,1.391.065.217.01.9.041a14.222,14.222,0,0,1,3.771,11.766l.058,1.062.007.173Z" transform="translate(-104.34 -106.922)" fill="#ff413c"/>
        <path id="Path_1855" data-name="Path 1855" d="M154.334,153.993a18.356,18.356,0,0,0-.516,7.185c-.071-.136-.139-.275-.207-.421a18.445,18.445,0,0,1,.547-6.774c.02-.058.031-.085.031-.088l.159.058s-.007.017-.013.041" transform="translate(-106.604 -106.853)" fill="#662c33"/>
        <path id="Path_1856" data-name="Path 1856" d="M169.807,167.529a24.639,24.639,0,0,1-5.189.394c-1.741,0-3.394-.071-4.273-.112l-.024-.173a62.321,62.321,0,0,0,8.121-.051l-.166-2.732a17.213,17.213,0,0,0-1.853-7.789,3.8,3.8,0,0,1-3.143-2.664c-.02-.078-.031-.125-.031-.129l.166-.027s.013.064.044.166a3.621,3.621,0,0,0,2.864,2.46,16.835,16.835,0,0,0-1.473-2.4c-.075-.1-.122-.16-.125-.163l.129-.109c.007.007.085.1.214.282a17.934,17.934,0,0,1,3.377,10.361l.166,2.718a8.877,8.877,0,0,0,1.188-.21Z" transform="translate(-111.315 -107.068)" fill="#662c33"/>
        <path id="Path_1857" data-name="Path 1857" d="M135.907,93.536c-1.351-.744-11.084,3.073-11.084,3.073s-1.44,2.569-.543,3.576,4.083.563,5.058,0a15.444,15.444,0,0,1,3.56-.989Z" transform="translate(-86.086 -64.877)" fill="#66d12c"/>
        <path id="Path_1858" data-name="Path 1858" d="M171.795,64.709a5.088,5.088,0,0,1,2.746,3.093c.735,2.316-1.463,8.181-.7,10.877s.642,7.786-1.731,8.861-7.241-.848-8.285-3.79-.594-14.084,1.415-17.874,6.076-1.881,6.559-1.167" transform="translate(-113.367 -44.153)" fill="#4a0095"/>
        <path id="Path_1859" data-name="Path 1859" d="M172.985,97.645c.53.572,1.894-.447,1.894-.447s-.028,5.055-1.5,5.443-5.213-3.982-5.059-5.17,3.486-1.093,4.662.175" transform="translate(-116.867 -67.095)" fill="#66d12c"/>
        <path id="Path_1860" data-name="Path 1860" d="M153.988,95.805a10.369,10.369,0,0,0,4.075,1.862c2.589.6,3.992-.617,5.316,1.052,1.987,2.506-1.246,7.125-2.947,9.518a14.268,14.268,0,0,0-2.243,5.742s-4.492,1.3-8.366-.389l-.289-5.511a11.127,11.127,0,0,1,4.454-12.274" transform="translate(-103.534 -66.52)" fill="#ff413c"/>
        <path id="Path_1861" data-name="Path 1861" d="M180.253,101.359s2.052-4.892,2.647-5.2,2.1.437,2.4,1.107a4.777,4.777,0,0,1,0,2.129s-1.619-1.848-5.051,1.969" transform="translate(-125.154 -66.712)" fill="#66d12c"/>
        <path id="Path_1862" data-name="Path 1862" d="M187.457,125.163a5.271,5.271,0,0,1-3.224,2.46s-.173-.265-.465-.74c-.031-.047-.064-.1-.1-.156-1.8-2.922-7.31-12.272-7.2-17.135a12.691,12.691,0,0,1,3.916-9,6.527,6.527,0,0,1,2.532.984,23.777,23.777,0,0,1,.054,7.283c-.594,3.974-1.673,5.026-1.13,5.325s0,.889,0,.889a62,62,0,0,1,3.791,5.834l1.456,3.394c.027.068.054.136.081.2l.285.665" transform="translate(-122.527 -69.843)" fill="#66d12c"/>
        <path id="Path_1863" data-name="Path 1863" d="M191.152,103.808a3.4,3.4,0,0,0-.954,4.285l6.338,6.561c-3.479,3.707-3.823,5.229-6.338,6.938l.954,1.478s8.807-6.768,8.82-8.416c.005-.705-5.379-9.236-8.82-10.846" transform="translate(-131.77 -72.076)" fill="#ff8b66"/>
        <path id="Path_1864" data-name="Path 1864" d="M182.113,161.978a18.977,18.977,0,0,0-1.969.324c-.761.19-1.775.38-1.807.539s1.68,0,1.68,0-1.395.573-1.426.794,1.775-.16,1.775-.16-1.141.7-1.077.888,1.469-.285,1.469-.285a4.437,4.437,0,0,1-.532.982s.272.149.825-.464,1.435-.417,2.133-.961-.434-1.739-1.07-1.657" transform="translate(-123.824 -112.462)" fill="#ff8b66"/>
        <path id="Path_1865" data-name="Path 1865" d="M146.786,95.195a8.538,8.538,0,0,0-2.838,3.839c-1.1,2.715-4.566,7.824-5.377,9.144s-.246,8.5-.246,8.5-1.018-4.356-1.471-6.052,1.461-5.89,1.748-6.113,1.758.185,1.475-1.518,3.663-9.039,4.716-9.245c0,0,1.687.317,1.992,1.441" transform="translate(-94.973 -65.096)" fill="#66d12c"/>
        <path id="Path_1866" data-name="Path 1866" d="M137.543,92.663a1.32,1.32,0,0,1-.105.17,4.408,4.408,0,0,1-1.127,1.018,19.388,19.388,0,0,0-1.34,2.074c-.014.183-2.3,1.846-3.323,1.812h0a.5.5,0,0,1-.336-.115c-.6-.57,2.057-5.355,2.644-6.387.037-.068.068-.119.088-.153s.024-.044.024-.044-.468-1.744,1.487-1.419a2.575,2.575,0,0,1,2.118,2.426.926.926,0,0,1-.125.618" transform="translate(-91.109 -62.196)" fill="#66d12c"/>
        <path id="Path_1867" data-name="Path 1867" d="M126.993,91.5c1.343-1.765,6.068-5.189,8.557-6.2l.622,1.157s-4.809,4.228-5.939,6.037-2.529,2.557-3.866,1.954.344-2.574.627-2.946" transform="translate(-87.385 -59.223)" fill="#ff8b66"/>
        <path id="Path_1868" data-name="Path 1868" d="M132.686,92.151l-.255.292-.129.149-.421.482s-1.059,1.283-1.018,1.8c.031.37-2.009,2.026-3.6,2.715a1.951,1.951,0,0,1-1.561.211c-1.154-.665-.9-2.664-.241-4.018.57-1.181,3.092-2.7,3.74-3.078a1.731,1.731,0,0,1,.149-.088l0,0,.241-.937a1.934,1.934,0,0,1,1.571-.2s-1.527.064-1.276.658a7.132,7.132,0,0,0,2.8,2.023" transform="translate(-86.721 -62.048)" fill="#66d12c"/>
        <path id="Path_1869" data-name="Path 1869" d="M160.082,74c-1.537.631-1.317,2.023-2.725,2.023-.872,0-.988-1-.988-1a10.752,10.752,0,0,0,.7-3c.058-.692.289-.424.289-.424,0-.064,0-.126-.007-.187-.02-.465-.105-.8.2-.6.346.224.465,1.541.465,1.541.285-1.921-.139-2.206.193-2.036.455.231.458,1.928.458,1.978.367-1.116.268-1.754.523-1.5s-.129,2.308-.282,3.061c-.034.17-.058.275-.058.275,1.218-.6,1.232-.132,1.232-.132" transform="translate(-108.571 -48.796)" fill="#ff8b66"/>
        <path id="Path_1870" data-name="Path 1870" d="M162.33,81.994c-.034.17-.058.275-.058.275a1.125,1.125,0,0,0-.974.554,1,1,0,0,1,1.032-.828" transform="translate(-111.993 -56.93)" fill="#ef6e4b"/>
        <path id="Path_1871" data-name="Path 1871" d="M159.669,75.576a3.86,3.86,0,0,0-.085-1.378c0-.064,0-.125-.007-.186.353.075.129,1.368.092,1.564" transform="translate(-110.798 -51.388)" fill="#ef6e4b"/>
        <path id="Path_1872" data-name="Path 1872" d="M163,96.728s1.039-2.816,1.369-3.444,2.052-.521,3.355-.278,1.569,1.987,1.569,1.987-3.963-1.87-6.294,1.735" transform="translate(-113.174 -64.443)" fill="#66d12c"/>
        <path id="Path_1873" data-name="Path 1873" d="M175.866,84a11.333,11.333,0,0,0-1.225,4.847s-2.022,1.374-2.745-.347a13.074,13.074,0,0,0,.4-5.3c-.249-2.038,3.573.8,3.573.8" transform="translate(-119.352 -57.258)" fill="#ef6e4b"/>
        <path id="Path_1874" data-name="Path 1874" d="M168.828,75.416s-.37-1.317-1.028-.391c-.763,1.073.015,2.116.422,1.867s.607-1.476.607-1.476" transform="translate(-116.284 -51.862)" fill="#ff8b66"/>
        <path id="Path_1875" data-name="Path 1875" d="M188.97,87.995s1.318-.367.868.676c-.522,1.209-1.817,1.085-1.815.608s.948-1.284.948-1.284" transform="translate(-130.548 -61.054)" fill="#ff8b66"/>
        <path id="Path_1876" data-name="Path 1876" d="M170.091,76.605c-1.873-1.055-2.241-2.873-.175-6.542,1.065-1.892,2.682-2.511,4.78-1.33s2.328,2.839,1.262,4.732c-2.22,3.942-3.932,4.229-5.867,3.14" transform="translate(-117.007 -47.306)" fill="#ff8b66"/>
        <path id="Path_1877" data-name="Path 1877" d="M186.244,87.413a.509.509,0,1,1-.336-.54.455.455,0,0,1,.336.54" transform="translate(-128.651 -60.294)" fill="#db614d"/>
        <path id="Path_1878" data-name="Path 1878" d="M173.613,80.367a.509.509,0,1,1-.2-.6.455.455,0,0,1,.2.6" transform="translate(-119.929 -55.314)" fill="#db614d"/>
        <path id="Path_1879" data-name="Path 1879" d="M187.619,78.8a.107.107,0,0,1-.1-.081,1.23,1.23,0,0,0-.574-.666.108.108,0,0,1,.1-.191,1.437,1.437,0,0,1,.683.8.107.107,0,0,1-.078.13.1.1,0,0,1-.026,0" transform="translate(-129.758 -54.053)" fill="#1a4850"/>
        <path id="Path_1880" data-name="Path 1880" d="M178.464,74.043a.107.107,0,0,1-.055-.015,1.236,1.236,0,0,0-.868-.145.108.108,0,1,1-.063-.206,1.435,1.435,0,0,1,1.041.167.108.108,0,0,1-.056.2" transform="translate(-123.175 -51.126)" fill="#1a4850"/>
        <path id="Path_1881" data-name="Path 1881" d="M185.471,82.564c-.131.233-.342.362-.471.289s-.128-.32,0-.553.342-.362.471-.289.128.32,0,.553" transform="translate(-128.383 -56.928)" fill="#1a4850"/>
        <path id="Path_1882" data-name="Path 1882" d="M176.881,77.956c-.131.233-.342.362-.471.289s-.128-.32,0-.553.342-.362.471-.289.127.32,0,.553" transform="translate(-122.419 -53.729)" fill="#1a4850"/>
        <path id="Path_1883" data-name="Path 1883" d="M175.147,87.07a4.345,4.345,0,0,0,1.851.845s-.826.672-1.419.236a1.07,1.07,0,0,1-.432-1.081" transform="translate(-121.595 -60.455)" fill="#1a4850"/>
        <path id="Path_1884" data-name="Path 1884" d="M184.912,81.292s.493-.477.7-.309.1.755.1.755l.431.011-.357-.144s.115-.61-.107-.736c-.316-.18-.759.423-.759.423" transform="translate(-128.389 -56.126)" fill="#1a4850"/>
        <path id="Path_1885" data-name="Path 1885" d="M176.507,77.183s.152-.669-.1-.754-.695.309-.695.309l-.234-.363.308.23s.461-.414.684-.29c.318.177.032.868.032.868" transform="translate(-121.841 -52.971)" fill="#1a4850"/>
        <path id="Path_1886" data-name="Path 1886" d="M177.1,67.256a1.072,1.072,0,0,0-1.6-.192c-.926.74-3.016,1.925-4.044,1.534s2.249-4.772,5.095-3.489,2.589,5.458,1.406,6.786-.624.091-.624.091a14.891,14.891,0,0,1,.474-3.132,1.187,1.187,0,0,0-.709-1.6" transform="translate(-118.913 -45.043)" fill="#4a0095"/>
        <path id="Path_1887" data-name="Path 1887" d="M179.666,83.6a.667.667,0,0,1-.162-.021l.057-.225a.267.267,0,0,0,.331-.111.287.287,0,0,0,0-.3c-.03-.031-.08-.028-.151.009l-.107-.206a.333.333,0,0,1,.426.036.508.508,0,0,1,.028.58.475.475,0,0,1-.425.24" transform="translate(-124.634 -57.411)" fill="#db614d"/>
        <path id="Path_1888" data-name="Path 1888" d="M199.544,114.282c-.112,1.646-4.184,7-4.863,7.195a1.822,1.822,0,0,0-.526.261c-.071.051-.142.105-.21.16a5.159,5.159,0,0,0-.679.672c-1.188-.078-4.524-1.622-3.451-1.962a.812.812,0,0,0,.214-.112,1.214,1.214,0,0,0,.139-.109,23.8,23.8,0,0,0,3.737-5.681c.013-.356.438-.424.438-.424s-2.318-3.4-3.662-3.815a3.856,3.856,0,0,1-2.023-2.036c-1.327-5.617,2.532-4.734,2.532-4.734,2.844,1.693,8.467,8.936,8.355,10.585" transform="translate(-130.796 -71.964)" fill="#66d12c"/>
        <path id="Path_1889" data-name="Path 1889" d="M197.9,159.764c-.071.051-.142.105-.21.16a8.5,8.5,0,0,1-3.917-1.4,1.158,1.158,0,0,0,.139-.109,8.258,8.258,0,0,0,3.988,1.351" transform="translate(-134.541 -109.99)" fill="#3e6575"/>
        <path id="Path_1890" data-name="Path 1890" d="M142.917,95.353a1.321,1.321,0,0,1-.105.17,4.342,4.342,0,0,1-.747-.092,5.6,5.6,0,0,1-2.738-1.507c-.14-.136-.262-.265-.367-.384a1.708,1.708,0,0,1,.149-.088c.088.1.19.207.305.319a5.4,5.4,0,0,0,2.779,1.51,4.153,4.153,0,0,0,.723.071" transform="translate(-96.483 -64.887)" fill="#3e6575"/>
        <path id="Path_1891" data-name="Path 1891" d="M203.534,178.351a4.783,4.783,0,0,1-3.4,2.386c-.031-.047-.064-.1-.1-.156a4.659,4.659,0,0,0,3.418-2.426c.027.068.054.136.081.2" transform="translate(-138.889 -123.697)" fill="#3e6575"/>
        <path id="Path_1892" data-name="Path 1892" d="M89.524,273.114a5.964,5.964,0,0,0-.866,1.184c-.441.767.044,1.473-2.091,3.251,0,0-4.307-2.521-6.251-5.763a1.255,1.255,0,0,1,.974-1.144c.506-.115,1.9.536,3.234.787a5.577,5.577,0,0,0,.567.078,3.307,3.307,0,0,0,.685,0,2.008,2.008,0,0,0,.577-.139h0a1.715,1.715,0,0,0,1-1.2,1.171,1.171,0,0,1,.38,1.755s1.358-.594,1.785,1.2" transform="translate(-55.765 -187.579)" fill="#66d12c"/>
        <path id="Path_1893" data-name="Path 1893" d="M86.567,281.225s-4.307-2.522-6.251-5.763c0,0,.723-.153,1.32.92s5.281,3.516,4.931,4.843" transform="translate(-55.765 -191.255)" fill="#ff413c"/>
        <path id="Path_1894" data-name="Path 1894" d="M98.989,275.188c-.349.553-.343-.468-.808-.947a2.018,2.018,0,0,0,.577-.139h0a.892.892,0,0,1,.227,1.086" transform="translate(-68.169 -190.316)" fill="#ff413c"/>
        <path id="Path_1895" data-name="Path 1895" d="M94.79,275.365c-.37.35-.489-.563-.706-1.052a5.5,5.5,0,0,0,.567.078c.217.3.421.706.139.974" transform="translate(-65.325 -190.462)" fill="#ff413c"/>
        <path id="Path_1896" data-name="Path 1896" d="M183.021,301.939h-6.092a3.58,3.58,0,0,1,0-1.782c.109-.4.74-.78,1.327-1.306a4.681,4.681,0,0,0,.465-.472,2.706,2.706,0,0,0,.309-.444,2.214,2.214,0,0,0,.251-.635,2.786,2.786,0,0,0-.2-1.656s2.073-.434,2.813.7c0,0,.071-.523.73-.173a9.661,9.661,0,0,0,.034,1.928c.129.875.947,1.13.367,3.845" transform="translate(-122.768 -205.216)" fill="#66d12c"/>
        <path id="Path_1897" data-name="Path 1897" d="M186.464,301.994a.272.272,0,0,1-.2.092.3.3,0,0,1-.18-.061,2.224,2.224,0,0,0-2.023-.367,2.213,2.213,0,0,0,.251-.635,2.076,2.076,0,0,1,2.121.57.279.279,0,0,1,.034.4" transform="translate(-127.796 -208.94)" fill="#ff413c"/>
        <path id="Path_1898" data-name="Path 1898" d="M184.195,305.538l-.034.051a.278.278,0,0,1-.373.091,3.746,3.746,0,0,0-2.26-.573,4.68,4.68,0,0,0,.465-.472,2.423,2.423,0,0,1,2.142.533.284.284,0,0,1,.061.37" transform="translate(-126.039 -211.472)" fill="#ff413c"/>
      </g>
    </g>
    <g id="Group_560" data-name="Group 560" transform="translate(320.054 2205.344)">
      <g id="Group_524" data-name="Group 524" transform="translate(0 0)" clip-path="url(#clip-path)">
        <path id="Path_1427" data-name="Path 1427" d="M5.763,2.986a.2.2,0,0,1-.129.189l-1.21.464a1.577,1.577,0,0,0-.916.934l-.46,1.267a.162.162,0,0,1-.015.025.175.175,0,0,1-.012.02A.165.165,0,0,1,3,5.912a.188.188,0,0,1-.047.031.155.155,0,0,1-.033.01.134.134,0,0,1-.033,0l-.036,0a.155.155,0,0,1-.033-.01.187.187,0,0,1-.072-.058l-.011-.017a.184.184,0,0,1-.018-.028l-.46-1.267A1.571,1.571,0,0,0,1.34,3.64L.13,3.176a.2.2,0,0,1,.011-.382l1.107-.349a1.578,1.578,0,0,0,1.019-1l.45-1.33A.191.191,0,0,1,2.738.077.1.1,0,0,1,2.757.053.162.162,0,0,1,2.819.012.117.117,0,0,1,2.842.005a.149.149,0,0,1,.08,0,.117.117,0,0,1,.023.007A.18.18,0,0,1,3,.049.218.218,0,0,1,3.021.07a.165.165,0,0,1,.026.048l.45,1.33a1.576,1.576,0,0,0,1.017,1l1.107.349a.2.2,0,0,1,.141.192" transform="translate(0 0)" fill="#4a0095"/>
      </g>
    </g>
    <g id="Group_565" data-name="Group 565" transform="translate(309.054 2236.344)">
      <g id="Group_524-2" data-name="Group 524" transform="translate(0 0)" clip-path="url(#clip-path-2)">
        <path id="Path_1427-2" data-name="Path 1427" d="M5.763,2.986a.2.2,0,0,1-.129.189l-1.21.464a1.577,1.577,0,0,0-.916.934l-.46,1.267a.162.162,0,0,1-.015.025.175.175,0,0,1-.012.02A.165.165,0,0,1,3,5.912a.188.188,0,0,1-.047.031.155.155,0,0,1-.033.01.134.134,0,0,1-.033,0l-.036,0a.155.155,0,0,1-.033-.01.187.187,0,0,1-.072-.058l-.011-.017a.184.184,0,0,1-.018-.028l-.46-1.267A1.571,1.571,0,0,0,1.34,3.64L.13,3.176a.2.2,0,0,1,.011-.382l1.107-.349a1.578,1.578,0,0,0,1.019-1l.45-1.33A.191.191,0,0,1,2.738.077.1.1,0,0,1,2.757.053.162.162,0,0,1,2.819.012.117.117,0,0,1,2.842.005a.149.149,0,0,1,.08,0,.117.117,0,0,1,.023.007A.18.18,0,0,1,3,.049.218.218,0,0,1,3.021.07a.165.165,0,0,1,.026.048l.45,1.33a1.576,1.576,0,0,0,1.017,1l1.107.349a.2.2,0,0,1,.141.192" transform="translate(0 0)" fill="#66d12c"/>
      </g>
    </g>
    <g id="Group_561" data-name="Group 561" transform="translate(230.054 2218.344)">
      <g id="Group_524-3" data-name="Group 524" transform="translate(0 0)" clip-path="url(#clip-path-2)">
        <path id="Path_1427-3" data-name="Path 1427" d="M5.763,2.986a.2.2,0,0,1-.129.189l-1.21.464a1.577,1.577,0,0,0-.916.934l-.46,1.267a.162.162,0,0,1-.015.025.175.175,0,0,1-.012.02A.165.165,0,0,1,3,5.912a.188.188,0,0,1-.047.031.155.155,0,0,1-.033.01.134.134,0,0,1-.033,0l-.036,0a.155.155,0,0,1-.033-.01.187.187,0,0,1-.072-.058l-.011-.017a.184.184,0,0,1-.018-.028l-.46-1.267A1.571,1.571,0,0,0,1.34,3.64L.13,3.176a.2.2,0,0,1,.011-.382l1.107-.349a1.578,1.578,0,0,0,1.019-1l.45-1.33A.191.191,0,0,1,2.738.077.1.1,0,0,1,2.757.053.162.162,0,0,1,2.819.012.117.117,0,0,1,2.842.005a.149.149,0,0,1,.08,0,.117.117,0,0,1,.023.007A.18.18,0,0,1,3,.049.218.218,0,0,1,3.021.07a.165.165,0,0,1,.026.048l.45,1.33a1.576,1.576,0,0,0,1.017,1l1.107.349a.2.2,0,0,1,.141.192" transform="translate(0 0)" fill="#66d12c"/>
      </g>
    </g>
    <g id="Group_562" data-name="Group 562" transform="translate(278 2202.871)">
      <g id="Group_524-4" data-name="Group 524" transform="translate(0 0)" clip-path="url(#clip-path-4)">
        <path id="Path_1427-4" data-name="Path 1427" d="M4.544,2.355a.16.16,0,0,1-.1.149l-.954.366a1.243,1.243,0,0,0-.722.736l-.363,1a.128.128,0,0,1-.012.02.138.138,0,0,1-.01.016.13.13,0,0,1-.019.021.148.148,0,0,1-.037.025.122.122,0,0,1-.026.008.106.106,0,0,1-.026,0l-.028,0a.122.122,0,0,1-.026-.008.148.148,0,0,1-.056-.046l-.009-.014a.145.145,0,0,1-.014-.022l-.363-1a1.239,1.239,0,0,0-.721-.736L.1,2.5a.159.159,0,0,1,.009-.3l.873-.275a1.244,1.244,0,0,0,.8-.786L2.143.093A.151.151,0,0,1,2.159.061.082.082,0,0,1,2.174.042.128.128,0,0,1,2.223.01L2.241,0A.118.118,0,0,1,2.3,0L2.322.01a.142.142,0,0,1,.045.029l.014.016A.13.13,0,0,1,2.4.093l.355,1.049a1.243,1.243,0,0,0,.8.786l.873.275a.158.158,0,0,1,.112.152" transform="translate(0 0)" fill="#ffc050"/>
      </g>
    </g>
    <g id="Group_563" data-name="Group 563" transform="translate(225.511 2196.871)">
      <g id="Group_524-5" data-name="Group 524" transform="translate(0 0)" clip-path="url(#clip-path-5)">
        <path id="Path_1427-5" data-name="Path 1427" d="M4.544,2.355a.16.16,0,0,1-.1.149l-.954.366a1.243,1.243,0,0,0-.722.736l-.363,1a.128.128,0,0,1-.012.02.138.138,0,0,1-.01.016.13.13,0,0,1-.019.021.148.148,0,0,1-.037.025.122.122,0,0,1-.026.008.106.106,0,0,1-.026,0l-.028,0a.122.122,0,0,1-.026-.008.148.148,0,0,1-.056-.046l-.009-.014a.145.145,0,0,1-.014-.022l-.363-1a1.239,1.239,0,0,0-.721-.736L.1,2.5a.159.159,0,0,1,.009-.3l.873-.275a1.244,1.244,0,0,0,.8-.786L2.143.093A.151.151,0,0,1,2.159.061.082.082,0,0,1,2.174.042.128.128,0,0,1,2.223.01L2.241,0A.118.118,0,0,1,2.3,0L2.322.01a.142.142,0,0,1,.045.029l.014.016A.13.13,0,0,1,2.4.093l.355,1.049a1.243,1.243,0,0,0,.8.786l.873.275a.158.158,0,0,1,.112.152" transform="translate(0 0)" fill="#4a0095"/>
      </g>
    </g>
    <g id="Group_564" data-name="Group 564" transform="translate(255.511 2205.22)">
      <g id="Group_524-6" data-name="Group 524" transform="translate(0 0)" clip-path="url(#clip-path-6)">
        <path id="Path_1427-6" data-name="Path 1427" d="M4.544,2.355a.16.16,0,0,1-.1.149l-.954.366a1.243,1.243,0,0,0-.722.736l-.363,1a.128.128,0,0,1-.012.02.138.138,0,0,1-.01.016.13.13,0,0,1-.019.021.148.148,0,0,1-.037.025.122.122,0,0,1-.026.008.106.106,0,0,1-.026,0l-.028,0a.122.122,0,0,1-.026-.008.148.148,0,0,1-.056-.046l-.009-.014a.145.145,0,0,1-.014-.022l-.363-1a1.239,1.239,0,0,0-.721-.736L.1,2.5a.159.159,0,0,1,.009-.3l.873-.275a1.244,1.244,0,0,0,.8-.786L2.143.093A.151.151,0,0,1,2.159.061.082.082,0,0,1,2.174.042.128.128,0,0,1,2.223.01L2.241,0A.118.118,0,0,1,2.3,0L2.322.01a.142.142,0,0,1,.045.029l.014.016A.13.13,0,0,1,2.4.093l.355,1.049a1.243,1.243,0,0,0,.8.786l.873.275a.158.158,0,0,1,.112.152" transform="translate(0 0)" fill="#ff413c"/>
      </g>
    </g>
    <g id="Group_566" data-name="Group 566" transform="translate(216.5 2229.5)">
      <g id="Group_524-7" data-name="Group 524" transform="translate(0 0)" clip-path="url(#clip-path-6)">
        <path id="Path_1427-7" data-name="Path 1427" d="M4.544,2.355a.16.16,0,0,1-.1.149l-.954.366a1.243,1.243,0,0,0-.722.736l-.363,1a.128.128,0,0,1-.012.02.138.138,0,0,1-.01.016.13.13,0,0,1-.019.021.148.148,0,0,1-.037.025.122.122,0,0,1-.026.008.106.106,0,0,1-.026,0l-.028,0a.122.122,0,0,1-.026-.008.148.148,0,0,1-.056-.046l-.009-.014a.145.145,0,0,1-.014-.022l-.363-1a1.239,1.239,0,0,0-.721-.736L.1,2.5a.159.159,0,0,1,.009-.3l.873-.275a1.244,1.244,0,0,0,.8-.786L2.143.093A.151.151,0,0,1,2.159.061.082.082,0,0,1,2.174.042.128.128,0,0,1,2.223.01L2.241,0A.118.118,0,0,1,2.3,0L2.322.01a.142.142,0,0,1,.045.029l.014.016A.13.13,0,0,1,2.4.093l.355,1.049a1.243,1.243,0,0,0,.8.786l.873.275a.158.158,0,0,1,.112.152" transform="translate(0 0)" fill="#ff413c"/>
      </g>
    </g>
  </g>
</svg>
