<svg xmlns="http://www.w3.org/2000/svg" width="106.921" height="17.442" viewBox="0 0 106.921 17.442">
  <g id="Group_582" data-name="Group 582" transform="translate(-140.2 -41.44)">
    <path id="Path_1925" data-name="Path 1925" d="M180.537,12.554H176.7v-.274q0-4.008-.006-8.015a.983.983,0,0,0-.7-1.095,1.037,1.037,0,0,0-.963.176c-.486.383-.94.807-1.4,1.227-.059.054-.062.186-.063.282q0,3.7,0,7.4v.293h-3.812V12.27c0-2.648,0-5.3-.011-7.945a1.123,1.123,0,0,0-.36-.978.984.984,0,0,0-1.232-.041,17.732,17.732,0,0,0-1.495,1.29c-.053.048-.048.175-.048.266q0,3.689,0,7.379v.311h-3.784V.2H166.6V1.84c.262-.237.491-.431.707-.638A4.252,4.252,0,0,1,171.367.128a2.424,2.424,0,0,1,1.911,1.67c.025.073.051.145.079.226.376-.339.736-.676,1.109-1a4.143,4.143,0,0,1,4.107-.807,2.582,2.582,0,0,1,1.887,2.347,8.642,8.642,0,0,1,.073,1.126q.009,4.291,0,8.581v.282" transform="translate(27.707 41.44)" fill="#293896"/>
    <path id="Path_1926" data-name="Path 1926" d="M230.252.2h3.793V1.86c.327-.3.605-.571.9-.822a4.156,4.156,0,0,1,4.347-.73,2.571,2.571,0,0,1,1.647,2.132,6.777,6.777,0,0,1,.1,1.169c.01,1.273.023,2.546-.007,3.818A4.929,4.929,0,0,1,239.2,11.18a5.937,5.937,0,0,1-3.914,1.383c-.407.006-.814,0-1.24,0V16.79h-3.8Zm3.794,9.441c.357,0,.694.008,1.03,0a2.214,2.214,0,0,0,2.14-2.03c.053-1.019.033-2.042.039-3.063a5.294,5.294,0,0,0-.04-.587.851.851,0,0,0-.652-.776,1.207,1.207,0,0,0-1.1.175c-.441.324-.84.706-1.26,1.059a.431.431,0,0,0-.159.367c.005,1.54,0,3.08,0,4.621Z" transform="translate(-19.315 41.44)" fill="#293896"/>
    <path id="Path_1927" data-name="Path 1927" d="M128.746,12.973h-3.808V11.31c-.231.217-.418.389-.6.565a4.253,4.253,0,0,1-4.641,1,2.385,2.385,0,0,1-1.552-1.739,6.952,6.952,0,0,1-.216-1.623c-.024-1.288-.013-2.577.018-3.865a4.8,4.8,0,0,1,1.392-3.25A5.739,5.739,0,0,1,123.622.61c1.629-.018,3.257,0,4.886-.007.18,0,.242.044.242.236q-.008,5.965,0,11.93v.2m-3.812-9.487c-.434.021-.837.012-1.231.065a2.162,2.162,0,0,0-1.927,1.894c-.057,1.214-.034,2.432-.03,3.648a.884.884,0,0,0,.362.734,1.151,1.151,0,0,0,1.244.065,5.274,5.274,0,0,0,1.436-1.162.528.528,0,0,0,.14-.344c.009-1.548.006-3.1.006-4.643V3.486" transform="translate(59.028 41.021)" fill="#293896"/>
    <path id="Path_1928" data-name="Path 1928" d="M283.955,13.021H280.14V11.327c-.186.181-.325.321-.469.456a5.4,5.4,0,0,1-1.7,1.16,4.486,4.486,0,0,1-1.8.26,3.559,3.559,0,0,1-1.456-.315,2.683,2.683,0,0,1-1.477-1.979,6,6,0,0,1-.134-1.237c-.011-2.947-.006-5.893-.005-8.84,0-.046,0-.092.008-.158h3.815V.957q0,3.713,0,7.426c0,.266.015.534.042.8a.957.957,0,0,0,1.3.855,1.513,1.513,0,0,0,.538-.275c.424-.36.832-.742,1.231-1.13a.481.481,0,0,0,.093-.317q.008-3.678,0-7.355V.668h3.825Z" transform="translate(-49.194 40.974)" fill="#293896"/>
    <path id="Path_1929" data-name="Path 1929" d="M87.647,4.709c0-.453-.01-.9,0-1.344.006-.18-.047-.272-.221-.318a1.965,1.965,0,0,0-1.962.368,1.7,1.7,0,0,0-.522,1.27c-.022,1.123-.02,2.247.018,3.369a1.76,1.76,0,0,0,.671,1.4,2.121,2.121,0,0,0,1.2.414,7.469,7.469,0,0,0,3.045-.505c.157-.058.323-.091.518-.145v1.461c0,.377-.008.755,0,1.132a.246.246,0,0,1-.186.274,8.994,8.994,0,0,1-4.5.624,6.441,6.441,0,0,1-2.458-.717,3.962,3.962,0,0,1-2.052-3.115,21.278,21.278,0,0,1-.044-4.4A4.408,4.408,0,0,1,83.429.915,6.771,6.771,0,0,1,87.653.093a7.674,7.674,0,0,1,2.8.8.282.282,0,0,1,.14.2c.008,1.187,0,2.373,0,3.56a.3.3,0,0,1-.016.06Z" transform="translate(84.72 41.404)" fill="#293896"/>
    <path id="Path_1930" data-name="Path 1930" d="M318.169,12.146c0-.881,0-1.755,0-2.628a1.367,1.367,0,0,1,.022-.153c.276.053.541.1.8.154A13.666,13.666,0,0,0,323,9.765a1.345,1.345,0,0,0,1.008-.483.811.811,0,0,0-.5-1.315c-.734-.207-1.485-.367-2.227-.552a4.786,4.786,0,0,1-2.143-.99,2.908,2.908,0,0,1-.908-2.482,3.055,3.055,0,0,1,1.261-2.294,5.321,5.321,0,0,1,2.021-.921,13.218,13.218,0,0,1,4.548-.241c.57.06,1.136.143,1.7.216V3.532c-.388-.056-.759-.1-1.128-.164a10.669,10.669,0,0,0-2.931-.156,3.688,3.688,0,0,0-.771.18.693.693,0,0,0-.5.677.641.641,0,0,0,.478.7c.61.173,1.23.322,1.848.471a6.964,6.964,0,0,1,2.2.8A2.809,2.809,0,0,1,328.294,8a3.7,3.7,0,0,1-.4,2.59,3.54,3.54,0,0,1-1.871,1.457,9.988,9.988,0,0,1-3.364.547,18,18,0,0,1-4.256-.383c-.074-.016-.146-.038-.23-.061" transform="translate(-81.243 41.247)" fill="#293896"/>
    <g id="Group_582-2" data-name="Group 582" transform="translate(0.491)">
      <path id="Path_1924" data-name="Path 1924" d="M34.928,42.737a9.541,9.541,0,0,1-6.612-2.582.915.915,0,0,1,.075-1.406,1.236,1.236,0,0,1,1.593.066,7.293,7.293,0,0,0,9.887,0,1.236,1.236,0,0,1,1.593-.066.915.915,0,0,1,.075,1.406,9.541,9.541,0,0,1-6.612,2.582" transform="translate(122.487 15.645)" fill="#ed0b19" stroke="#ed0b19" stroke-width="1"/>
      <path id="Path_1931" data-name="Path 1931" d="M41.153,12.95A6.257,6.257,0,1,1,47.41,6.693a6.264,6.264,0,0,1-6.257,6.257m0-9.79a3.533,3.533,0,1,0,3.533,3.533,3.538,3.538,0,0,0-3.533-3.533" transform="translate(116.261 41.186)" fill="#293896"/>
    </g>
    <path id="Path_1932" data-name="Path 1932" d="M318.169,12.146c0-.881,0-1.755,0-2.628a1.367,1.367,0,0,1,.022-.153c.276.053.541.1.8.154A13.666,13.666,0,0,0,323,9.765a1.345,1.345,0,0,0,1.008-.483.811.811,0,0,0-.5-1.315c-.734-.207-1.485-.367-2.227-.552a4.786,4.786,0,0,1-2.143-.99,2.908,2.908,0,0,1-.908-2.482,3.055,3.055,0,0,1,1.261-2.294,5.321,5.321,0,0,1,2.021-.921,13.218,13.218,0,0,1,4.548-.241c.57.06,1.136.143,1.7.216V3.532c-.388-.056-.759-.1-1.128-.164a10.669,10.669,0,0,0-2.931-.156,3.688,3.688,0,0,0-.771.18.693.693,0,0,0-.5.677.641.641,0,0,0,.478.7c.61.173,1.23.322,1.848.471a6.964,6.964,0,0,1,2.2.8A2.809,2.809,0,0,1,328.294,8a3.7,3.7,0,0,1-.4,2.59,3.54,3.54,0,0,1-1.871,1.457,9.988,9.988,0,0,1-3.364.547,18,18,0,0,1-4.256-.383c-.074-.016-.146-.038-.23-.061" transform="translate(-177.969 41.247)" fill="#293896"/>
  </g>
</svg>
