<svg xmlns="http://www.w3.org/2000/svg" width="13.301" height="13.301" viewBox="0 0 13.301 13.301">
  <g id="Group_569" data-name="Group 569" transform="translate(0 0.111)">
    <g id="Group_570" data-name="Group 570" transform="translate(0 -0.184)">
      <path id="Path_1899" data-name="Path 1899" d="M6.651,0A6.651,6.651,0,1,0,13.3,6.651,6.657,6.657,0,0,0,6.651,0m0,3.808A2.086,2.086,0,1,1,4.564,5.895,2.091,2.091,0,0,1,6.651,3.808M3.01,10.683v-.308a1.61,1.61,0,0,1,1.61-1.61h4.06a1.61,1.61,0,0,1,1.61,1.61v.308a5.432,5.432,0,0,1-7.28,0Z" transform="translate(0 0.072)" fill="#601fa1"/>
    </g>
  </g>
</svg>
