<svg id="Group_234" data-name="Group 234" xmlns="http://www.w3.org/2000/svg" xmlns:xlink="http://www.w3.org/1999/xlink" width="48" height="39.496" viewBox="0 0 48 39.496">
  <defs>
    <clipPath id="clip-path">
      <rect id="Rectangle_187" data-name="Rectangle 187" width="48" height="39.496" fill="#fdf4e4"/>
    </clipPath>
  </defs>
  <g id="Group_233" data-name="Group 233" clip-path="url(#clip-path)">
    <path id="Path_865" data-name="Path 865" d="M179.08,35.51a1.482,1.482,0,1,1-2.965,0V34.481a1.482,1.482,0,0,1,2.965,0Z" transform="translate(-149.019 -27.922)" fill="#ff413c"/>
    <path id="Path_866" data-name="Path 866" d="M151.8,97.993c-.409-2-2.178-7.4-6.489-9.348a10.944,10.944,0,0,0-9.847.544c-1.5.907-3.222,4.447-3.993,7.76s-3.4,3.267-5.445,3.993l.953,3.449,21.055.136.045-.544c5.491-.318,4.13-3.993,3.721-5.99m-21.531,5.286c.839,0,4.583-2.814,5.354-2.723.386,2.065.431,3.154.476,3.29s-5.6,1.134-5.831-.567" transform="translate(-106.636 -74.221)" fill="#ffbc45"/>
    <path id="Path_867" data-name="Path 867" d="M199.059,102.157c-.272,1.3-1.391,9.257.515,14.49a34.2,34.2,0,0,0,3.69,0c-.423-2.753-1.271-10.377.484-14.733-1.754.03-4.689.242-4.689.242" transform="translate(-167.947 -86.235)" fill="#51d42f"/>
    <path id="Path_868" data-name="Path 868" d="M200.27,87.291A1.67,1.67,0,0,0,199.105,90c.681,1,1.966.181,2.193-.318,1.619,1.528,3.721.151,4.175-2.117,0-.181-2.571-.68-5.2-.272" transform="translate(-168.19 -73.728)" fill="#51d42f"/>
    <path id="Path_869" data-name="Path 869" d="M187.819,7.315a4.847,4.847,0,0,0-5.294-4.228,3.161,3.161,0,0,0-2.934,2.68,4.576,4.576,0,0,1-.56.867,3.974,3.974,0,0,1,3.9-4.321,5.235,5.235,0,0,1,5.566,4.91.407.407,0,0,1-.681.093" transform="translate(-151.474 -1.955)" fill="#ff413c"/>
    <path id="Path_870" data-name="Path 870" d="M177.3,16.263a3.025,3.025,0,0,0-1.373,3.719c.637,1.425.818,2.053.2,3.168-.869,1.568-1.235,3.033-.581,4.364,3.942-.544,5.676-.988,5.676-.988S179.7,16.1,177.3,16.263" transform="translate(-148.258 -13.759)" fill="#31241c"/>
    <path id="Path_871" data-name="Path 871" d="M207.162,62.919a27.233,27.233,0,0,1,1.067,4.179c.084,1.138-3.682,1.9-3.949.7-.278-1.419-.692-3.832-.692-3.832" transform="translate(-172.265 -53.239)" fill="#c97440"/>
    <path id="Path_872" data-name="Path 872" d="M207.475,64.145l-.313-1.227-3.574,1.051s.127.741.29,1.671a3.519,3.519,0,0,0,3.6-1.495" transform="translate(-172.265 -53.238)" fill="#ab5d2d"/>
    <path id="Path_873" data-name="Path 873" d="M185.27,12.68a3.545,3.545,0,1,0,7.082-.317l-.167-3.745a3.545,3.545,0,1,0-7.082.316Z" transform="translate(-156.621 -4.427)" fill="#c97440"/>
    <path id="Path_874" data-name="Path 874" d="M207.928,27.091a1.662,1.662,0,0,0-1.5-.11c-.175.09-.02.354.154.264a1.354,1.354,0,0,1,1.194.11c.173.093.328-.17.154-.264" transform="translate(-174.601 -22.716)" fill="#31241c"/>
    <path id="Path_875" data-name="Path 875" d="M187.388,28.7a.9.9,0,0,1,.8-.215c.192.039.274-.255.081-.294a1.219,1.219,0,0,0-1.093.294c-.143.136.073.351.216.216" transform="translate(-158.336 -23.828)" fill="#31241c"/>
    <path id="Path_876" data-name="Path 876" d="M198.13,42.638a.115.115,0,0,1-.076-.029l-.69-.608a.116.116,0,0,1,.02-.187l.7-.392a.115.115,0,0,1,.113.2l-.554.312.569.5a.115.115,0,0,1-.076.2" transform="translate(-166.965 -35.037)" fill="#31241c"/>
    <path id="Path_877" data-name="Path 877" d="M201.135,50.348a.913.913,0,0,1-.512-.146.115.115,0,0,1,.13-.191.771.771,0,0,0,.75.015.547.547,0,0,0,.28-.543.115.115,0,1,1,.23-.01.778.778,0,0,1-.4.755,1,1,0,0,1-.481.12" transform="translate(-169.714 -41.768)" fill="#31241c"/>
    <path id="Path_878" data-name="Path 878" d="M207.449,37.895a.431.431,0,1,0,.251-.556.431.431,0,0,0-.251.556" transform="translate(-175.509 -31.571)" fill="#1a191f"/>
    <path id="Path_879" data-name="Path 879" d="M190.7,38.9a.431.431,0,1,0,.251-.555.431.431,0,0,0-.251.555" transform="translate(-161.34 -32.422)" fill="#1a191f"/>
    <path id="Path_880" data-name="Path 880" d="M188.712,38.915a.1.1,0,0,1-.053-.015l-.42-.258a.1.1,0,1,1,.106-.173l.42.258a.1.1,0,0,1-.053.188" transform="translate(-159.237 -32.538)" fill="#1a191f"/>
    <path id="Path_881" data-name="Path 881" d="M210.864,37.671a.1.1,0,0,1-.058-.185l.439-.3a.1.1,0,0,1,.115.167l-.439.3a.1.1,0,0,1-.058.018" transform="translate(-178.336 -31.446)" fill="#1a191f"/>
    <path id="Path_882" data-name="Path 882" d="M197.174,8.276c-.588-1.267.138-2.053-.175-3.26-.274-1.056-1.531-1.023-2.179-2.518-.993-2.293-6.1-4.357-8.007.3a3.807,3.807,0,0,1,5.112.372c1.661,2.141-.043,3.048.6,4.321a2.845,2.845,0,0,1,.17,2.956,3.184,3.184,0,0,0,.242,2.739c1.977-.219,4.212-.413,6.243-.757,0-3.426-1.416-2.881-2-4.148" transform="translate(-158.071 0)" fill="#31241c"/>
    <path id="Path_883" data-name="Path 883" d="M163.114,167.783c-1.724.151-2.389.666-3.932,1.483s-1.875,1-1.513,1.149c-.907.06-.378.544.257.332-.423.182.166.378,1.013.061.212.333,1.3.182,2-.212a5.34,5.34,0,0,1,3.872-.212,6.616,6.616,0,0,0-.393-2.571Z" transform="translate(-133 -141.969)" fill="#c97440"/>
    <path id="Path_884" data-name="Path 884" d="M202.856,166.023a25.7,25.7,0,0,1,5.075-.325,15.613,15.613,0,0,1-.575,3.66l-4.114-.908a4.39,4.39,0,0,0-.386-2.427" transform="translate(-171.646 -140.186)" fill="#ffbc45"/>
    <path id="Path_885" data-name="Path 885" d="M201.818,164.119a48.139,48.139,0,0,1,5.546-.312c.892-.025,1.747-.129,2.631-.23a6.979,6.979,0,0,1,2.642.331.077.077,0,0,0,.041-.148,8.055,8.055,0,0,0-2.4-.357,9.26,9.26,0,0,0-1.156.144,13.957,13.957,0,0,1-1.608.1,51.678,51.678,0,0,0-5.738.322c-.1.014-.056.162.041.148" transform="translate(-170.686 -138.261)" fill="#1f0e03"/>
    <path id="Path_886" data-name="Path 886" d="M255.605,136.906a28.91,28.91,0,0,1,.27,3.852.077.077,0,0,0,.154,0,29.232,29.232,0,0,0-.275-3.893c-.014-.1-.162-.056-.148.041" transform="translate(-216.279 -115.761)" fill="#1f0e03"/>
    <path id="Path_887" data-name="Path 887" d="M204.167,183.361a5.952,5.952,0,0,1,1.6.383c.627.17,1.241.383,1.867.555a18.938,18.938,0,0,0,3.895.643c2.086.121,4.61.018,6.185-1.543a.077.077,0,0,0-.109-.109c-1.646,1.632-4.352,1.634-6.513,1.469a18.885,18.885,0,0,1-3.831-.726c-.558-.163-1.115-.334-1.673-.5a4.791,4.791,0,0,0-1.421-.326.077.077,0,0,0,0,.154" transform="translate(-172.692 -155.02)" fill="#1f0e03"/>
    <path id="Path_888" data-name="Path 888" d="M184.074,126.854a3.863,3.863,0,0,0-.09,1.285c.008.59.052,1.179.082,1.768s.048,1.164.095,1.745c.043.536.246,1.044.274,1.575.005.1.159.1.154,0-.026-.486-.212-.945-.261-1.43-.054-.531-.07-1.066-.094-1.6s-.061-1.075-.083-1.612a4.919,4.919,0,0,1,.072-1.69c.031-.094-.117-.134-.148-.041" transform="translate(-155.669 -107.292)" fill="#1f0e03"/>
    <path id="Path_889" data-name="Path 889" d="M198.733,92.633c-.241.852-.411,1.939.544,2.417a1.243,1.243,0,0,0,1.069-.063,2.785,2.785,0,0,0,.63-.45c.2-.167.281.086.453.21,1.4,1,3.25-.386,3.715-1.77.032-.094-.117-.134-.148-.041-.5,1.477-2.615,2.834-3.835,1.327a.077.077,0,0,0-.109,0c-.506.455-1.164.993-1.854.567-.752-.464-.511-1.47-.317-2.156a.077.077,0,0,0-.148-.041" transform="translate(-167.998 -78.335)" fill="#1f0e03"/>
    <path id="Path_890" data-name="Path 890" d="M167.608,179.486a3.722,3.722,0,0,0,1.281-.645,11.643,11.643,0,0,1,1.8-.807c.09-.037.051-.186-.041-.148-.5.208-1.019.383-1.506.63a6.026,6.026,0,0,1-1.58.822c-.1.017-.056.166.041.148" transform="translate(-141.739 -150.512)" fill="#1f0e03"/>
    <path id="Path_891" data-name="Path 891" d="M160.334,178.154c1.225-.517,2.354-1.245,3.611-1.687.093-.033.053-.181-.041-.148-1.271.447-2.411,1.179-3.648,1.7-.091.038-.013.171.078.133" transform="translate(-135.566 -149.188)" fill="#1f0e03"/>
    <path id="Path_892" data-name="Path 892" d="M158.584,177.155c.484-.294,1.036-.43,1.533-.694s.982-.53,1.492-.758c.09-.04.012-.173-.078-.133-.509.228-1,.5-1.492.758s-1.049.4-1.533.694a.077.077,0,0,0,.078.133" transform="translate(-134.089 -148.551)" fill="#1f0e03"/>
    <path id="Path_893" data-name="Path 893" d="M211.065,110.324c.052.273.438.264.563.053a.238.238,0,0,0-.113-.316.327.327,0,0,0-.419.068c-.056.082.077.159.133.078.068-.1.351,0,.251.114-.076.084-.242.09-.266-.037-.018-.1-.167-.056-.148.041" transform="translate(-178.591 -93.089)" fill="#1f0e03"/>
    <path id="Path_894" data-name="Path 894" d="M209.73,118.231c-.039.272.276.349.459.2a.25.25,0,0,0,.064-.331.317.317,0,0,0-.356-.055c-.094.03-.054.178.041.148a.241.241,0,0,1,.188-.007c.048.028-.016.114-.042.133-.056.041-.223.071-.206-.044.014-.1-.134-.139-.148-.041" transform="translate(-177.459 -99.857)" fill="#1f0e03"/>
    <path id="Path_895" data-name="Path 895" d="M209.14,127.081c.014.309.469.186.514-.048.056-.285-.441-.441-.489-.132-.015.1.133.139.148.041.019-.119.188-.037.19.055,0,.073-.207.172-.21.084s-.158-.1-.154,0" transform="translate(-176.963 -107.235)" fill="#1f0e03"/>
    <path id="Path_896" data-name="Path 896" d="M189.634,183.3a1.563,1.563,0,0,0,.094.7c.036.091.185.051.148-.041a1.451,1.451,0,0,1-.088-.66c.01-.1-.144-.1-.154,0" transform="translate(-160.452 -155.039)" fill="#1f0e03"/>
    <path id="Path_897" data-name="Path 897" d="M201.976,167.407c.287.2.31.6.391.913a2.076,2.076,0,0,1,0,1.326c-.041.09.092.168.133.078a2.265,2.265,0,0,0,.011-1.445,1.53,1.53,0,0,0-.462-1.005c-.081-.057-.158.076-.078.133" transform="translate(-170.872 -141.527)" fill="#1f0e03"/>
    <path id="Path_898" data-name="Path 898" d="M177.957,54.778c-.242,1.794,2.409,1.8,3.553,1.746.1,0,.1-.159,0-.154-1.01.048-3.627.1-3.405-1.551.013-.1-.135-.139-.148-.041" transform="translate(-150.564 -46.303)" fill="#1f0e03"/>
    <path id="Path_899" data-name="Path 899" d="M200.7,63.247a.579.579,0,1,1-.567-.462.523.523,0,0,1,.567.462" transform="translate(-168.862 -53.125)" fill="#ffbc45"/>
    <path id="Path_900" data-name="Path 900" d="M185.45,2.313a3.729,3.729,0,0,0-3.46,2.153,1.746,1.746,0,0,1,.536.149,3.017,3.017,0,0,1,2.516-1.527,4.848,4.848,0,0,1,5.294,4.229.407.407,0,0,0,.681-.093,5.235,5.235,0,0,0-5.566-4.91" transform="translate(-153.99 -1.955)" fill="#ff413c"/>
    <path id="Path_901" data-name="Path 901" d="M232.12,35.51a1.482,1.482,0,1,1-2.965,0V34.481a1.482,1.482,0,0,1,2.965,0Z" transform="translate(-193.899 -27.922)" fill="#ff413c"/>
    <path id="Path_902" data-name="Path 902" d="M235.275,38.623a.911.911,0,0,1-1.765.29,2.883,2.883,0,0,1-.047-.973.911.911,0,0,1,1.765-.29,2.875,2.875,0,0,1,.048.973.077.077,0,0,0,.154,0c0-.617.06-1.213-.525-1.6a1.071,1.071,0,0,0-1.6.915c-.033.607-.038,1.228.525,1.6a1.071,1.071,0,0,0,1.6-.915c.005-.1-.149-.1-.154,0" transform="translate(-197.403 -31.194)" fill="#1f0e03"/>
    <path id="Path_903" data-name="Path 903" d="M20.524,114.03H32.352c.545,0,.666,1.089-.242,1.089H4.975C4.158,113.486.5,103.5.134,102.565a1.392,1.392,0,0,1,1.452-2.027H11.993a2.928,2.928,0,0,1,3.055,1.845c.756,1.664,5.475,11.647,5.475,11.647" transform="translate(0 -85.07)" fill="#4a0095"/>
    <path id="Path_904" data-name="Path 904" d="M93.025,115.076a.689.689,0,0,0,.1-.044l.008,0c.465-.26.305-1-.143-1H81.159l-.009-.02-.023-.048-.24-.508c-1.015-2.148-4.557-9.648-5.2-11.071a2.928,2.928,0,0,0-3.055-1.845H71.66a2.929,2.929,0,0,1,3.056,1.845c.756,1.664,5.475,11.647,5.475,11.647l.408,1.06,1.324.03H92.745a.974.974,0,0,0,.152-.012.678.678,0,0,0,.084-.021c.014,0,.03-.006.044-.011" transform="translate(-60.635 -85.07)" fill="#4a0095"/>
    <path id="Path_905" data-name="Path 905" d="M54.274,141.554c.3.739-.055,1.337-.79,1.337a2.222,2.222,0,0,1-1.872-1.337c-.3-.739.055-1.338.79-1.338A2.223,2.223,0,0,1,54.274,141.554Z" transform="translate(-43.582 -118.643)" fill="none" stroke="#fff" stroke-width="1"/>
    <path id="Path_906" data-name="Path 906" d="M65.794,200.8H23.122v6.764a92.935,92.935,0,0,0,17.215,1.8c8.511.108,17.337.011,25.456-.384Z" transform="translate(-19.565 -169.906)" fill="#f5cdb3"/>
    <path id="Path_907" data-name="Path 907" d="M57.826,195.684a.731.731,0,0,1-.731.731H12.344a.731.731,0,0,1,0-1.462H57.1a.731.731,0,0,1,.731.731" transform="translate(-9.826 -164.959)" fill="#ff413c"/>
  </g>
</svg>
