<svg id="Group_253" data-name="Group 253" xmlns="http://www.w3.org/2000/svg" xmlns:xlink="http://www.w3.org/1999/xlink" width="48.908" height="34.053" viewBox="0 0 48.908 34.053">
  <defs>
    <clipPath id="clip-path">
      <rect id="Rectangle_194" data-name="Rectangle 194" width="48.908" height="34.053" fill="none"/>
    </clipPath>
    <clipPath id="clip-path-2">
      <rect id="Rectangle_189" data-name="Rectangle 189" width="25.136" height="5.28" fill="none"/>
    </clipPath>
    <clipPath id="clip-path-3">
      <rect id="Rectangle_190" data-name="Rectangle 190" width="23.444" height="10.707" fill="none"/>
    </clipPath>
    <clipPath id="clip-path-4">
      <rect id="Rectangle_191" data-name="Rectangle 191" width="5.1" height="2.309" fill="none"/>
    </clipPath>
    <clipPath id="clip-path-5">
      <rect id="Rectangle_192" data-name="Rectangle 192" width="1.452" height="1.241" fill="none"/>
    </clipPath>
  </defs>
  <g id="Group_252" data-name="Group 252" clip-path="url(#clip-path)">
    <g id="Group_251" data-name="Group 251" transform="translate(0 0)">
      <g id="Group_254" data-name="Group 254">
        <path id="Path_908" data-name="Path 908" d="M60.712,105.542c0-3.125-8.74-5.658-19.521-5.658s-19.521,2.533-19.521,5.658,8.74,5.658,19.521,5.658,19.521-2.533,19.521-5.658" transform="translate(-16.738 -77.146)" fill="#490095"/>
        <path id="Path_909" data-name="Path 909" d="M48.908,87.11c0-3.914-10.948-7.088-24.454-7.088S0,83.2,0,87.11,10.948,94.2,24.454,94.2s24.454-3.173,24.454-7.088" transform="translate(0 -61.805)" fill="#fff"/>
        <path id="Path_910" data-name="Path 910" d="M51.1,89.056c0-3.546-10.593-6.421-23.66-6.421S3.782,85.51,3.782,89.056s10.593,6.421,23.659,6.421S51.1,92.6,51.1,89.056" transform="translate(-2.921 -63.824)" fill="#490095"/>
        <path id="Path_911" data-name="Path 911" d="M83.311,101.248c0-1.613-4.511-2.92-10.077-2.92s-10.077,1.308-10.077,2.92,4.511,2.92,10.077,2.92,10.077-1.307,10.077-2.92" transform="translate(-48.781 -75.944)" fill="#36211d"/>
        <path id="Path_912" data-name="Path 912" d="M172.126,27.483c.229-3.143.476-6.246.706-9.389.97.023,2,.043,2.973.066l-1.5,9c-.666.026-1.514.3-2.179.322" transform="translate(-132.943 -13.975)" fill="#f9af1a"/>
        <path id="Path_913" data-name="Path 913" d="M157.613,12.7c-.079-3.6,0-9.108-.081-12.705.968.083,1.966.271,2.934.354-.008,3.533-.271,9.1-.28,12.629-.9.007-1.674-.284-2.574-.277" transform="translate(-121.671 0.001)" fill="#f9af1a"/>
        <path id="Path_914" data-name="Path 914" d="M143.8,20.737c.631-.114,1.25-.27,1.881-.384l.428-9.032c-.814.065-1.684.043-2.5.108.108,2.984.08,6.324.188,9.308" transform="translate(-110.92 -8.744)" fill="#f9af1a"/>
        <path id="Path_915" data-name="Path 915" d="M130.457,30.166c-.621-2.59-1.289-5.154-1.909-7.744.657-.121,1.4-.169,2.061-.29q.628,3.9,1.256,7.792c-.388.063-1.02.179-1.408.242" transform="translate(-99.285 -17.094)" fill="#f9af1a"/>
        <path id="Path_916" data-name="Path 916" d="M150.251,27.939c0-3.21.077-6.517.075-9.727.96.015,2.089.423,3.049.438q-.435,4.733-.869,9.466c-.6-.081-1.657-.095-2.256-.176" transform="translate(-116.047 -14.066)" fill="#f9c432"/>
        <path id="Path_917" data-name="Path 917" d="M134.161,34.527c-.475-3-.948-5.949-1.423-8.948.9-.025,1.964-.2,2.86-.221.239,2.8.736,5.961.975,8.76-.716.228-1.7.182-2.412.409" transform="translate(-102.521 -19.584)" fill="#f9c432"/>
        <path id="Path_918" data-name="Path 918" d="M165.818,36.939c.072-2.658.056-5.369.128-8.028.667.009,1.55,0,2.217.008q-.127,3.8-.255,7.6c-.658.033-1.431.384-2.09.416" transform="translate(-128.071 -22.329)" fill="#f9c432"/>
        <path id="Path_919" data-name="Path 919" d="M143.241,43.523l-1.02,8.9-.947,8.277s-5.773-2.632-10.553.4l-.4-5.584-.854-11.988s7.911,2.846,13.772,0" transform="translate(-99.996 -33.615)" fill="#ff413c"/>
        <path id="Path_921" data-name="Path 921" d="M61.849,80.828c.22,1.018,1.01,4.049,1.29,5.052-4.78,3.861-17.984,3.339-21.965,1.294a16.289,16.289,0,0,1,.549-4.183c6.14.123,13.979-.146,20.125-2.164" transform="translate(-31.802 -62.428)" fill="#ffb000"/>
        <path id="Path_922" data-name="Path 922" d="M58.476,98.911a17.249,17.249,0,0,1-8.594,3.6,32.378,32.378,0,0,1-9.4-.233,15.914,15.914,0,0,1-7.142-2.6c.011-.946.194-1.86.205-2.806,7.813,2.807,17.42,3.4,24.538-2.37.065,1.344.327,3.07.392,4.413" transform="translate(-25.75 -72.986)" fill="#f9af1a"/>
        <g id="Group_240" data-name="Group 240" transform="translate(7.589 24.489)" opacity="0.2">
          <g id="Group_239" data-name="Group 239">
            <g id="Group_238" data-name="Group 238" clip-path="url(#clip-path-2)">
              <path id="Path_923" data-name="Path 923" d="M49.88,111.078a32.384,32.384,0,0,1-9.4-.233,16,16,0,0,1-7.034-2.529c-.05.483-.1.965-.108,1.456a15.915,15.915,0,0,0,7.143,2.6,32.376,32.376,0,0,0,9.4.233,17.25,17.25,0,0,0,8.594-3.6c-.022-.446-.066-.935-.116-1.437a17.317,17.317,0,0,1-8.478,3.5" transform="translate(-33.339 -107.574)" fill="#450904"/>
            </g>
          </g>
        </g>
        <path id="Path_924" data-name="Path 924" d="M64.252,85.571a26.9,26.9,0,0,1-13.37,7.29,32.6,32.6,0,0,1-5.973-5.882c6.455.366,12.931-.578,19.343-1.408" transform="translate(-34.686 -66.091)" fill="#f9c432"/>
        <path id="Path_925" data-name="Path 925" d="M60.124,67.561a1.444,1.444,0,0,1-1.093,1.3c-.7.109-1.368-.6-1.851-1.115a1.8,1.8,0,0,1-.248,1.546,1.205,1.205,0,0,1-1.4.112,5.809,5.809,0,0,1-1.348-1.364,1.816,1.816,0,0,1-1.4,2.106,1.975,1.975,0,0,1-2.1-1.621,1.638,1.638,0,0,1-1.318,1.819c-.981.15-2.04-.788-2.675-1.555a4.522,4.522,0,0,1-.758,1.288,1.541,1.541,0,0,1-1.336.53c-.756-.132-1.227-.927-1.835-1.391a3.8,3.8,0,0,1-1.3,1.259,1.8,1.8,0,0,1-1.746.018c-.517-.321-1.213-.9-.886-1.409a4.5,4.5,0,0,1-2.349.956c-.3.03-.674-.016-.79-.294a.764.764,0,0,1,0-.435A8.877,8.877,0,0,1,38.64,64.4c.034-.03.068-.059.1-.089,1.441-.073,3.745-.444,5.186-.517,4.225-.212,8.933-.282,12.973-1.53l.03-.009a10.219,10.219,0,0,1,2.789,3.556,3.339,3.339,0,0,1,.4,1.753" transform="translate(-27.542 -48.081)" fill="#51d42f"/>
        <path id="Path_926" data-name="Path 926" d="M64.964,66.1c-.36.567-1.591.895-1.955.33a.812.812,0,0,1-.8.931,1.668,1.668,0,0,1-1.323-.7,1.776,1.776,0,0,1-1.336,1.384,2,2,0,0,1-1.933-.692.875.875,0,0,1-.726.915,1.11,1.11,0,0,1-1.074-.8,1.3,1.3,0,0,1-1.109.926,1.437,1.437,0,0,1-1.343-.728,1.724,1.724,0,0,1-1.377.89,1.49,1.49,0,0,1-1.391-.61,2.073,2.073,0,0,1-2.825-.162.712.712,0,0,1-.76.467c-.321-.048-.717-.369-.722-.692a1.545,1.545,0,0,1-.631.337.916.916,0,0,1-1-.779,1.264,1.264,0,0,1,.6-1.193,7.484,7.484,0,0,1,.326-1.5c.034-.03.068-.059.1-.089,1.441-.073,3.745-.444,5.186-.517,4.225-.212,8.933-.282,12.973-1.53a6.01,6.01,0,0,1,1.138,1.869,2.239,2.239,0,0,1-.025,1.942" transform="translate(-34.489 -48.111)" fill="#51d42f"/>
        <path id="Path_927" data-name="Path 927" d="M60.613,38.242a39.68,39.68,0,0,1-23.37,1.612,9.448,9.448,0,0,1,4.68-9.2,13.53,13.53,0,0,1,11.5-.66c3.624,1.492,6.588,4.827,7.195,8.246" transform="translate(-28.707 -22.415)" fill="#f9a600"/>
        <g id="Group_243" data-name="Group 243" transform="translate(8.462 7.782)" opacity="0.2">
          <g id="Group_242" data-name="Group 242">
            <g id="Group_241" data-name="Group 241" clip-path="url(#clip-path-3)">
              <path id="Path_928" data-name="Path 928" d="M53.882,34.185a6.466,6.466,0,0,1,1.048,2.4,5.156,5.156,0,0,1-1.538,4.887,7.592,7.592,0,0,1-3.313,1.43,26.747,26.747,0,0,1-7.656.61,12.456,12.456,0,0,1-4.6-1.038,2.966,2.966,0,0,1-.62-.4,8.144,8.144,0,0,0,.048,1.768,39.683,39.683,0,0,0,23.37-1.612c-.581-3.273-3.322-6.468-6.735-8.044" transform="translate(-37.173 -34.185)" fill="#450904"/>
            </g>
          </g>
        </g>
        <path id="Path_929" data-name="Path 929" d="M64.628,37.5a1.115,1.115,0,0,0-1.4-.09.894.894,0,0,0-.367.477.77.77,0,0,0,.143.7.8.8,0,0,0,1.191.081l.01-.009.019-.01.125-.041a.671.671,0,0,0,.276-1.1" transform="translate(-48.53 -28.741)" fill="#f9c45a"/>
        <path id="Path_930" data-name="Path 930" d="M69.445,43.242l-.018.008c.172-.058.116-.041.018-.008" transform="translate(-53.622 -33.375)" fill="#f9c45a"/>
        <path id="Path_931" data-name="Path 931" d="M75.673,41.511a.891.891,0,0,0-.044-.159.577.577,0,0,0-.148-.254c-.033-.04-.027-.03.017.031a.5.5,0,0,0-.848,0c.044-.061.05-.071.017-.031a.577.577,0,0,0-.148.254.91.91,0,0,0-.044.159.633.633,0,0,0,.16.6.621.621,0,0,0,1.038-.6" transform="translate(-57.508 -31.583)" fill="#f9c45a"/>
        <path id="Path_932" data-name="Path 932" d="M91.607,40.772a.694.694,0,0,0-.084-.181.1.1,0,0,0-.014-.017.852.852,0,0,0-.12-.192c-.01-.012-.019-.024-.03-.035l-.026-.023A.554.554,0,0,0,90.8,40.2a.591.591,0,0,0-.392.289.814.814,0,0,0,.009.812.678.678,0,0,0,.739.3.658.658,0,0,0,.446-.832" transform="translate(-69.751 -31.032)" fill="#f9c45a"/>
        <path id="Path_933" data-name="Path 933" d="M100.392,37.624c-.184-.356-.7-.388-1.054-.322a.5.5,0,0,0-.22.832,1.162,1.162,0,0,0,.293.183c.053.022.105.045.159.066a.65.65,0,0,0,.629-.021.555.555,0,0,0,.194-.74" transform="translate(-76.44 -28.789)" fill="#f9c45a"/>
        <g id="Group_246" data-name="Group 246" transform="translate(16.576 23.408)" opacity="0.2">
          <g id="Group_245" data-name="Group 245">
            <g id="Group_244" data-name="Group 244" clip-path="url(#clip-path-4)">
              <path id="Path_934" data-name="Path 934" d="M77.481,102.829a7.2,7.2,0,0,0-2.413.817c-.712.276-1.426.535-2.126.834a.261.261,0,0,0,0,.448,2.6,2.6,0,0,0,2.267-.161,6.622,6.622,0,0,0,2.584-1.185.446.446,0,0,0-.312-.753" transform="translate(-72.815 -102.829)" fill="#fff"/>
            </g>
          </g>
        </g>
        <g id="Group_249" data-name="Group 249" transform="translate(22.197 22.411)" opacity="0.2">
          <g id="Group_248" data-name="Group 248">
            <g id="Group_247" data-name="Group 247" clip-path="url(#clip-path-5)">
              <path id="Path_935" data-name="Path 935" d="M98.815,98.589a.505.505,0,0,0-.7,0l-.063.056-.012.01-.005,0c-.054.033-.106.069-.16.1a.739.739,0,0,0-.359.418.389.389,0,0,0,.1.377c.405.317.867.007,1.2-.267a.5.5,0,0,0,0-.7" transform="translate(-97.507 -98.448)" fill="#fff"/>
            </g>
          </g>
        </g>
      </g>
    </g>
  </g>
</svg>
