<svg id="Group_262" data-name="Group 262" xmlns="http://www.w3.org/2000/svg" xmlns:xlink="http://www.w3.org/1999/xlink" width="36.046" height="38.957" viewBox="0 0 36.046 38.957">
  <defs>
    <clipPath id="clip-path">
      <rect id="Rectangle_196" data-name="Rectangle 196" width="36.046" height="38.957" fill="none"/>
    </clipPath>
    <clipPath id="clip-path-2">
      <rect id="Rectangle_195" data-name="Rectangle 195" width="10.769" height="8.605" fill="none"/>
    </clipPath>
  </defs>
  <g id="Group_263" data-name="Group 263">
    <g id="Group_260" data-name="Group 260">
      <path id="Path_993" data-name="Path 993" d="M4.5,0A4.5,4.5,0,0,1,9,4.5a8.467,8.467,0,0,1-.8,2.531s.386,1.52.331,1.505c0,.055-1.781-.164-1.761-.15A7.331,7.331,0,0,1,4.5,9a4.5,4.5,0,0,1,0-9Z" transform="translate(0.023 4.478)" fill="#51d42f"/>
      <g id="Group_259" data-name="Group 259" clip-path="url(#clip-path)">
        <path id="Path_936" data-name="Path 936" d="M55.225,50.037,48.3,51.2a14.741,14.741,0,1,0,3.691,4.814Z" transform="translate(-19.179 -38.279)" fill="#ffd300"/>
        <path id="Path_937" data-name="Path 937" d="M29.109,42.274a.384.384,0,1,0,.384-.384.384.384,0,0,0-.384.384" transform="translate(-23.402 -33.677)" fill="#490095"/>
        <path id="Path_938" data-name="Path 938" d="M21.265,42.274a.384.384,0,1,0,.384-.384.384.384,0,0,0-.384.384" transform="translate(-17.096 -33.677)" fill="#490095"/>
        <path id="Path_939" data-name="Path 939" d="M13.23,42.082a.384.384,0,1,0,.525-.141.385.385,0,0,0-.525.141" transform="translate(-10.594 -33.677)" fill="#490095"/>
        <path id="Path_940" data-name="Path 940" d="M4.529,20.949a.438.438,0,0,1-.077.009l-.227.016c-.05,0-.106.005-.167.012l-.2.033-.233.038-.259.069a4.278,4.278,0,0,0-1.252.564A4.445,4.445,0,0,0,.1,25.028a4.618,4.618,0,0,0-.01.6c.008.1.006.206.021.309l.048.311a4.434,4.434,0,0,0,.423,1.226,4.737,4.737,0,0,0,.8,1.1,4.638,4.638,0,0,0,1.155.826,4.191,4.191,0,0,0,1.405.43,2.8,2.8,0,0,0,.375.032,3.342,3.342,0,0,0,.379.007,4.508,4.508,0,0,0,.758-.1,4.439,4.439,0,0,0,1.51-.635l.022-.015.025.01,1.573.633-.066.059-.459-1.683-.006-.023.014-.019a4.435,4.435,0,0,0,.828-1.88,4.018,4.018,0,0,0,.064-.965,3.073,3.073,0,0,0-.042-.464l-.034-.226c-.013-.075-.036-.146-.053-.219a4.475,4.475,0,0,0-3.578-3.319c-.118-.017-.221-.04-.312-.047l-.23-.015-.141-.011a.218.218,0,0,1-.048-.006.211.211,0,0,1,.048,0l.141,0,.231.008c.092,0,.2.025.315.04.059.009.123.016.188.028l.2.051.223.057.235.084a4.3,4.3,0,0,1,1.045.551,4.5,4.5,0,0,1,1.756,2.559c.018.074.041.147.055.223l.036.23a3.157,3.157,0,0,1,.045.473,4.1,4.1,0,0,1-.061.985,4.516,4.516,0,0,1-.84,1.922l.008-.042L8.621,29.8l.026.1-.093-.037L6.981,29.23l.047,0a4.536,4.536,0,0,1-1.545.65,4.619,4.619,0,0,1-.776.1,3.448,3.448,0,0,1-.387-.007,2.834,2.834,0,0,1-.383-.033A4.281,4.281,0,0,1,2.5,29.493a4.727,4.727,0,0,1-1.179-.847A4.826,4.826,0,0,1,.5,27.52a4.517,4.517,0,0,1-.428-1.253L.027,25.95c-.015-.1-.013-.211-.02-.315a4.649,4.649,0,0,1,.013-.615,4.607,4.607,0,0,1,.747-2.094,4.567,4.567,0,0,1,1.317-1.282,4.254,4.254,0,0,1,1.273-.555l.263-.065.235-.034.2-.028c.062-.005.118-.005.168-.007l.228-.006a.44.44,0,0,1,.078,0" transform="translate(0 -16.84)" fill="#263238"/>
        <path id="Path_941" data-name="Path 941" d="M107.557,1.39a2.36,2.36,0,0,1,4.234-.141,6.15,6.15,0,0,0,.695,1.392,1.381,1.381,0,0,0,1.775.166,1.2,1.2,0,0,1-.749,1.384l.867.089a2.637,2.637,0,0,1-2.856,1.289,5.178,5.178,0,0,1-2.8-1.765" transform="translate(-86.469 0.001)" fill="#490095"/>
        <path id="Path_942" data-name="Path 942" d="M82.534,7.018l2.675.876a5.209,5.209,0,0,1,2.06,2.6c.125.361.21.736.369,1.084a1.6,1.6,0,0,0,.753.831c.257.115.548.128.812.225a1.485,1.485,0,0,1,.9,1.035,1.8,1.8,0,0,1-.243,1.365,1.4,1.4,0,0,0-.307.634,1.72,1.72,0,0,0,.1.471A1.294,1.294,0,0,1,87.523,17.4a1.82,1.82,0,0,1-.786.982.739.739,0,0,1-1.04-.4,1.024,1.024,0,0,1-1.945-.368l-7.33-8c1.094-2.925,5.372-2.666,6.111-2.6" transform="translate(-61.439 -5.612)" fill="#490095"/>
        <path id="Path_943" data-name="Path 943" d="M82.609,16.3a.912.912,0,0,1,.818.924l-.518,12.31c-.02,1.454-2.664,3.173-4.225,3.14-1.576-.033-1.113-1.7-1.135-3.084-.038-2.311-.037-3.178-.038-3.165a3.232,3.232,0,0,1-2.4-2.921,27.613,27.613,0,0,1-.031-5.129c.1-1.555,1.131-3.462,2.684-3.3Z" transform="translate(-60.273 -12.112)" fill="#ffbe9d"/>
        <path id="Path_944" data-name="Path 944" d="M78.938,39.262a.333.333,0,0,0,.321.335.318.318,0,0,0,.344-.3.333.333,0,0,0-.321-.335.319.319,0,0,0-.344.3" transform="translate(-63.461 -31.322)" fill="#263238"/>
        <path id="Path_945" data-name="Path 945" d="M77.818,36.111c.041.043.294-.143.652-.142s.621.18.66.136c.019-.019-.023-.1-.137-.181a.916.916,0,0,0-.529-.163.881.881,0,0,0-.519.167c-.11.084-.148.163-.127.182" transform="translate(-62.556 -28.75)" fill="#263238"/>
        <path id="Path_946" data-name="Path 946" d="M96.816,39.262a.333.333,0,0,0,.321.335.319.319,0,0,0,.344-.3.333.333,0,0,0-.321-.335.319.319,0,0,0-.344.3" transform="translate(-77.834 -31.322)" fill="#263238"/>
        <path id="Path_947" data-name="Path 947" d="M95.795,36.452c.041.043.294-.143.652-.142s.622.18.66.136c.019-.019-.023-.1-.138-.181a.916.916,0,0,0-.528-.163.881.881,0,0,0-.519.167c-.11.084-.148.163-.127.182" transform="translate(-77.008 -29.024)" fill="#263238"/>
        <path id="Path_948" data-name="Path 948" d="M85.433,39.194a2.385,2.385,0,0,0-.582-.1c-.092-.009-.178-.027-.194-.09a.465.465,0,0,1,.061-.271l.271-.7a11.908,11.908,0,0,0,.608-1.819,11.95,11.95,0,0,0-.753,1.766q-.136.366-.259.7a.527.527,0,0,0-.048.358.23.23,0,0,0,.151.134.626.626,0,0,0,.155.022,2.34,2.34,0,0,0,.59,0" transform="translate(-67.948 -29.114)" fill="#263238"/>
        <path id="Path_949" data-name="Path 949" d="M87.916,69.2a6.624,6.624,0,0,0,3.48-.926,3.3,3.3,0,0,1-3.444,1.538Z" transform="translate(-70.679 -54.888)" fill="#eb996e"/>
        <path id="Path_950" data-name="Path 950" d="M89.806,54.811a.647.647,0,0,1,.579-.239.591.591,0,0,1,.407.218.372.372,0,0,1,.028.426.434.434,0,0,1-.47.119,1.359,1.359,0,0,1-.458-.273.4.4,0,0,1-.1-.106.119.119,0,0,1,0-.133" transform="translate(-72.169 -43.869)" fill="#eb996e"/>
        <path id="Path_951" data-name="Path 951" d="M89.875,52.674c-.058,0-.059.385-.392.66s-.747.233-.751.287c-.005.024.093.075.267.08a.972.972,0,0,0,.627-.218.841.841,0,0,0,.3-.554c.015-.162-.028-.259-.055-.256" transform="translate(-71.335 -42.346)" fill="#263238"/>
        <path id="Path_952" data-name="Path 952" d="M94.986,33.592c.035.1.393.051.814.1s.761.165.817.078c.025-.042-.034-.133-.171-.227a1.43,1.43,0,0,0-1.242-.137c-.155.062-.232.138-.217.185" transform="translate(-76.361 -26.79)" fill="#263238"/>
        <path id="Path_953" data-name="Path 953" d="M78.475,30.746c.063.081.31,0,.607-.007s.549.055.606-.03c.025-.041-.014-.123-.124-.2a.882.882,0,0,0-.978.03c-.1.084-.139.167-.112.207" transform="translate(-63.081 -24.42)" fill="#263238"/>
        <path id="Path_954" data-name="Path 954" d="M116.3,42.158a.653.653,0,0,1,.679.034,1.2,1.2,0,0,1-.759,2.231" transform="translate(-93.43 -33.827)" fill="#ffbe9d"/>
        <path id="Path_955" data-name="Path 955" d="M78.044,10.709a5.283,5.283,0,0,0-2.5.772,3.605,3.605,0,0,0-1.782,2.112.736.736,0,0,0,.021.584.574.574,0,0,0,.713.153,1.669,1.669,0,0,0,.58-.533,1.111,1.111,0,0,0,2.157-.024.973.973,0,0,0,1,.891,1.284,1.284,0,0,0,1.106-.871,3.243,3.243,0,0,0,.457,1.265,1.112,1.112,0,0,0,1.176.478,2.289,2.289,0,0,0,.017,1.159.792.792,0,0,0,.916.536c.36-.124.5-.549.584-.919a8.627,8.627,0,0,0,.278-2.172,3.515,3.515,0,0,0-.669-2.054,3.521,3.521,0,0,0-1.9-1.171,8.447,8.447,0,0,0-2.261-.205" transform="translate(-59.263 -8.609)" fill="#490095"/>
        <path id="Path_956" data-name="Path 956" d="M117.3,46.019c.007-.018.1.022.226-.035a.45.45,0,0,0,.223-.443.457.457,0,0,0-.277-.416c-.13-.053-.226-.027-.231-.047s.088-.082.26-.043a.48.48,0,0,1,.254.158.578.578,0,0,1,.129.341.515.515,0,0,1-.325.539c-.177.046-.272-.043-.259-.054" transform="translate(-94.257 -36.196)" fill="#eb996e"/>
        <path id="Path_957" data-name="Path 957" d="M116.216,52.544a.339.339,0,1,0,.339-.338.338.338,0,0,0-.339.338" transform="translate(-93.43 -41.97)" fill="#e8505b"/>
        <path id="Path_958" data-name="Path 958" d="M107.766,6.3a1.008,1.008,0,0,1,.422-.048,2.178,2.178,0,0,1,1.728,1,1,1,0,0,1,.17.389c-.017.007-.08-.142-.229-.349a2.382,2.382,0,0,0-1.673-.964c-.254-.026-.415-.006-.417-.024" transform="translate(-86.637 -5.023)" fill="#e8505b"/>
        <path id="Path_959" data-name="Path 959" d="M114.656,2.984a.241.241,0,0,1-.009-.082.6.6,0,0,1,.05-.231.945.945,0,0,1,.671-.519,1.245,1.245,0,0,1,1.166.447,2.563,2.563,0,0,1,.423.63c.115.236.21.489.309.744a4.824,4.824,0,0,0,.333.72,2.048,2.048,0,0,0,.472.551,1.23,1.23,0,0,0,.587.267,1,1,0,0,0,.554-.077,1.186,1.186,0,0,0,.584-.568,2.54,2.54,0,0,0,.1-.294.244.244,0,0,1,0,.082.941.941,0,0,1-.057.228,1.192,1.192,0,0,1-.591.618,1.067,1.067,0,0,1-.6.1,1.307,1.307,0,0,1-.633-.277,2.117,2.117,0,0,1-.5-.574,4.775,4.775,0,0,1-.342-.734,4.035,4.035,0,0,0-.706-1.348,1.178,1.178,0,0,0-1.082-.441.921.921,0,0,0-.65.465.971.971,0,0,0-.077.3" transform="translate(-92.169 -1.708)" fill="#455a64"/>
        <path id="Path_960" data-name="Path 960" d="M89.531,11.111s-.009-.024-.017-.071a1.722,1.722,0,0,1-.024-.208,2.993,2.993,0,0,1,.048-.769,3.447,3.447,0,0,1,.4-1.073,3.283,3.283,0,0,1,.94-1.037,3.817,3.817,0,0,1,1.277-.575,3.774,3.774,0,0,1,1.137-.116,2.8,2.8,0,0,1,.758.138,1.553,1.553,0,0,1,.195.077c.044.02.065.032.064.035a3.963,3.963,0,0,0-1.019-.178,3.89,3.89,0,0,0-1.111.135,3.843,3.843,0,0,0-1.241.568,3.276,3.276,0,0,0-.918,1,3.532,3.532,0,0,0-.407,1.04,4.7,4.7,0,0,0-.078,1.033" transform="translate(-71.938 -5.833)" fill="#455a64"/>
        <path id="Path_961" data-name="Path 961" d="M98.04,11.947a.679.679,0,0,1-.007-.2,3.022,3.022,0,0,1,.075-.545,3.481,3.481,0,0,1,2.374-2.557,3.034,3.034,0,0,1,.538-.117.684.684,0,0,1,.2-.008c0,.019-.285.043-.717.194a3.615,3.615,0,0,0-2.326,2.506c-.118.443-.119.731-.138.73" transform="translate(-78.81 -6.844)" fill="#455a64"/>
        <path id="Path_962" data-name="Path 962" d="M59.261,91.78c-.567-1.739-1.955-3.509-3.479-2.871-1.7.711-2.168,1.612-3.1,3.008a20.479,20.479,0,0,0-2.061,4.574,2.279,2.279,0,0,0-.095,1.9,2.237,2.237,0,0,0,1.436.823q2.119.564,4.278.965a2.548,2.548,0,0,0,1.719-.092,2.607,2.607,0,0,0,.98-1.921l1.42-7.7" transform="translate(-40.48 -71.37)" fill="#ff413c"/>
        <path id="Path_963" data-name="Path 963" d="M68.735,84.943l-2.232.962A4.591,4.591,0,0,0,65.1,89.748l-.928,15.712a14.549,14.549,0,0,0,14.116-.184c.2-.11-1.273-3.7-1.273-3.7l2.072-7.846a15.461,15.461,0,0,0-.037-4.577c-.755-2.847-2.775-3.7-4.849-4.269,0,0-2.075,1.741-4.1,1.374a1.517,1.517,0,0,1-1.361-1.311" transform="translate(-51.586 -68.238)" fill="#ff413c"/>
        <g id="Group_258" data-name="Group 258" transform="translate(14.152 29.244)" opacity="0.2">
          <g id="Group_257" data-name="Group 257">
            <g id="Group_256" data-name="Group 256" clip-path="url(#clip-path-2)">
              <path id="Path_964" data-name="Path 964" d="M72.18,149.7l3.863,5.6a6.708,6.708,0,0,0,1.774,1.956,3.339,3.339,0,0,0,5.085-3.4.8.8,0,0,0-.172-.418.654.654,0,0,0-.66-.126,3.551,3.551,0,0,0-.632.316,3.893,3.893,0,0,1-3.891-.471A14.265,14.265,0,0,1,74.7,150.2a2.893,2.893,0,0,0-1.151-.97,1.045,1.045,0,0,0-1.311.434" transform="translate(-72.18 -149.155)"/>
            </g>
          </g>
        </g>
        <path id="Path_965" data-name="Path 965" d="M98.558,100.419a1.333,1.333,0,1,0,1.333-1.33,1.332,1.332,0,0,0-1.333,1.33" transform="translate(-79.234 -79.661)" fill="#fff"/>
        <path id="Path_966" data-name="Path 966" d="M73.66,94.629a1.333,1.333,0,1,0,1.333-1.33,1.332,1.332,0,0,0-1.333,1.33" transform="translate(-59.218 -75.006)" fill="#fff"/>
        <path id="Path_967" data-name="Path 967" d="M68.172,159.587a1.333,1.333,0,1,0,1.333-1.33,1.332,1.332,0,0,0-1.333,1.33" transform="translate(-54.806 -127.228)" fill="#fff"/>
        <path id="Path_968" data-name="Path 968" d="M80.461,179.117a1.333,1.333,0,1,0,1.333-1.33,1.332,1.332,0,0,0-1.333,1.33" transform="translate(-64.685 -142.929)" fill="#fff"/>
        <path id="Path_969" data-name="Path 969" d="M112.16,180.762a1.333,1.333,0,1,0,1.333-1.33,1.332,1.332,0,0,0-1.333,1.33" transform="translate(-90.169 -144.251)" fill="#fff"/>
        <path id="Path_970" data-name="Path 970" d="M85.3,139a1.333,1.333,0,1,0,1.333-1.33A1.332,1.332,0,0,0,85.3,139" transform="translate(-68.579 -110.675)" fill="#fff"/>
        <path id="Path_971" data-name="Path 971" d="M78.5,117.608a1.333,1.333,0,1,0,1.333-1.33,1.332,1.332,0,0,0-1.333,1.33" transform="translate(-63.111 -93.48)" fill="#fff"/>
        <path id="Path_972" data-name="Path 972" d="M85.3,85.91a3.158,3.158,0,0,0,.687.846,3.113,3.113,0,0,0,1.034.561,3.46,3.46,0,0,0,1.43.145,4.323,4.323,0,0,0,1.384-.419,5.716,5.716,0,0,0,1.005-.635,8.028,8.028,0,0,0,.609-.527,1.894,1.894,0,0,1,.219-.2,1.493,1.493,0,0,1-.191.228,6.039,6.039,0,0,1-.593.555,5.412,5.412,0,0,1-1.009.662,4.278,4.278,0,0,1-1.414.436,3.472,3.472,0,0,1-1.471-.157,3.075,3.075,0,0,1-1.051-.6,2.393,2.393,0,0,1-.518-.629,1.5,1.5,0,0,1-.1-.2.226.226,0,0,1-.025-.073" transform="translate(-68.576 -68.882)" fill="#263238"/>
        <path id="Path_973" data-name="Path 973" d="M104.447,86.385a10.334,10.334,0,0,1,4.165,2.591,6.888,6.888,0,0,1,1.365,4.722,20.463,20.463,0,0,1-1.049,4.9,2.285,2.285,0,0,1-1.049,1.587,2.242,2.242,0,0,1-1.646-.183q-2.043-.8-4.022-1.744a2.54,2.54,0,0,1-1.332-1.088,2.6,2.6,0,0,1,.348-2.127L104.644,88" transform="translate(-81.003 -69.448)" fill="#ff413c"/>
        <path id="Path_974" data-name="Path 974" d="M129.363,122.375a1.333,1.333,0,1,0,1.333-1.33,1.332,1.332,0,0,0-1.333,1.33" transform="translate(-103.999 -97.312)" fill="#fff"/>
        <path id="Path_975" data-name="Path 975" d="M111.352,134.776a1.333,1.333,0,1,0,1.333-1.33,1.332,1.332,0,0,0-1.333,1.33" transform="translate(-89.52 -107.282)" fill="#fff"/>
        <path id="Path_976" data-name="Path 976" d="M119.953,101.582a1.308,1.308,0,1,0,1.308-1.3,1.306,1.306,0,0,0-1.308,1.3" transform="translate(-96.434 -80.617)" fill="#fff"/>
        <path id="Path_977" data-name="Path 977" d="M49.816,115.692,49.475,117,42.7,112.063l-2.075-2.949a1.873,1.873,0,0,0-2.614-.448l-1.93,1.37s.052,1.04.521.832,1.407-.728,1.407-.728l.261,2.5,1.147.832,1.147.884,7.65,7.594a3.417,3.417,0,0,0,5.458-.89l1.134-3.219Z" transform="translate(-29.007 -87.082)" fill="#ffbe9d"/>
        <path id="Path_978" data-name="Path 978" d="M103.525,151.638a.565.565,0,0,1,.284.175,1.49,1.49,0,0,1,.4.7,2.779,2.779,0,0,1,.074.8,1,1,0,0,1-.039.328,1.166,1.166,0,0,1-.033-.328,3.842,3.842,0,0,0-.1-.773,1.664,1.664,0,0,0-.349-.677c-.131-.148-.241-.211-.233-.225" transform="translate(-83.227 -121.906)" fill="#eb996e"/>
        <path id="Path_979" data-name="Path 979" d="M45.848,115.88c-.011-.007.022-.087.1-.2a.911.911,0,0,1,.43-.347.558.558,0,0,1,.546.1c.111.107.107.212.1.21s-.039-.081-.143-.154a.536.536,0,0,0-.467-.064,1.045,1.045,0,0,0-.407.3c-.091.1-.145.165-.158.157" transform="translate(-36.857 -92.694)" fill="#eb996e"/>
        <path id="Path_980" data-name="Path 980" d="M47.566,120.447c-.012.01-.063-.036-.156-.088a.767.767,0,0,0-.779,0c-.093.053-.144.1-.155.089s.023-.074.114-.149a.7.7,0,0,1,.86,0c.092.074.125.14.116.148" transform="translate(-37.362 -96.594)" fill="#eb996e"/>
        <path id="Path_981" data-name="Path 981" d="M103.4,104.974a.386.386,0,0,1-.13-.031.722.722,0,0,1-.306-.232,1.112,1.112,0,0,1-.223-.566,1.644,1.644,0,0,1,.144-.792c.111-.278.278-.558.42-.872a8.5,8.5,0,0,0,.388-1.033c.232-.743.4-1.587.634-2.46a7.812,7.812,0,0,1,.99-2.348,3.822,3.822,0,0,1,1.557-1.369,2.818,2.818,0,0,1,1.371-.278,1.784,1.784,0,0,1,.506.1c0,.013-.179-.044-.507-.056a2.875,2.875,0,0,0-1.339.3,3.8,3.8,0,0,0-1.51,1.356,7.879,7.879,0,0,0-.969,2.322c-.233.868-.4,1.713-.643,2.461a8.341,8.341,0,0,1-.4,1.04c-.148.318-.318.594-.43.864a1.6,1.6,0,0,0-.154.759,1.094,1.094,0,0,0,.2.547.745.745,0,0,0,.282.237c.077.037.124.044.122.05" transform="translate(-82.593 -76.365)" fill="#263238"/>
        <path id="Path_982" data-name="Path 982" d="M67.756,110.316a28.608,28.608,0,0,1,.437-3.387,28.6,28.6,0,0,1-.437,3.387" transform="translate(-54.467 -85.964)" fill="#263238"/>
        <path id="Path_983" data-name="Path 983" d="M23.379,135.576l-.36,2.831L18.7,134.728l-2.361.57s2.435,5.112,4.358,7.137,2.96,2.313,3.686,2.344c1,.044,1.454-1.171,1.454-1.171l.435-7.037Z" transform="translate(-13.137 -108.312)" fill="#ffbe9d"/>
        <path id="Path_984" data-name="Path 984" d="M50.472,153.108a2.8,2.8,0,0,1,.405,1.467,86.364,86.364,0,0,0-.405-1.467" transform="translate(-40.573 -123.088)" fill="#eb996e"/>
        <path id="Path_985" data-name="Path 985" d="M9.676,98.128H6.426a.824.824,0,0,0-.754,1.036l3.268,6.365a.739.739,0,0,0,.658.4l3.962-.008a.567.567,0,0,0,.432-.839l-3.153-6.232a1.3,1.3,0,0,0-1.163-.724" transform="translate(-4.528 -78.888)" fill="#490095"/>
        <path id="Path_986" data-name="Path 986" d="M9.573,100.083H6.324a.544.544,0,0,0-.485.791l3.19,6.227a.74.74,0,0,0,.658.4H13.6a.32.32,0,0,0,.286-.464l-3.153-6.232a1.3,1.3,0,0,0-1.163-.724" transform="translate(-4.645 -80.46)" fill="#490095"/>
        <path id="Path_987" data-name="Path 987" d="M13.883,113.379l-1.978.79-.424,1.593.953,2.372,3.495.508L14.9,117.6l.132-.911s.975-.306,1-.455-.121-.65-.27-.674a7.5,7.5,0,0,0-1.172.357s1.211-.958,1.177-1.112-.164-.547-.405-.591a14.269,14.269,0,0,0-2.195.877l-.317.723-.277-1.156s1.736-.487,1.307-1.276" transform="translate(-9.23 -91.149)" fill="#ffbe9d"/>
        <path id="Path_988" data-name="Path 988" d="M24.689,127.426c-.012,0-.049-.069-.067-.2a1.075,1.075,0,0,1,.339-.917c.1-.086.172-.116.179-.106a1.515,1.515,0,0,0-.451,1.22" transform="translate(-19.788 -101.46)" fill="#eb996e"/>
        <path id="Path_989" data-name="Path 989" d="M20.2,121.838a4.3,4.3,0,0,0,.078-.518,2.262,2.262,0,0,1,.1-.574.848.848,0,0,1,.182-.306.9.9,0,0,1,.323-.2c.473-.172.9-.31,1.211-.411a2.723,2.723,0,0,1,.511-.141,2.75,2.75,0,0,1-.487.209c-.3.117-.732.269-1.2.438a.827.827,0,0,0-.29.178.779.779,0,0,0-.166.269,2.5,2.5,0,0,0-.116.549,1.06,1.06,0,0,1-.15.51" transform="translate(-16.238 -96.217)" fill="#eb996e"/>
        <path id="Path_990" data-name="Path 990" d="M17.819,125.722c-.028,0-.022-.179.013-.39s.086-.378.114-.373.022.179-.013.39-.085.378-.113.373" transform="translate(-14.311 -100.458)" fill="#eb996e"/>
        <path id="Path_991" data-name="Path 991" d="M17.62,104.511a.414.414,0,1,0,.414-.414.414.414,0,0,0-.414.414" transform="translate(-14.165 -83.687)" fill="#fafafa"/>
        <path id="Path_992" data-name="Path 992" d="M58.941,139.073a.675.675,0,0,1,.121.1l.324.29,1.141,1.055.015.014,0,.022-.177,2.267c-.089,1.216-.159,2.318-.2,3.116-.017.386-.032.705-.043.945a2.276,2.276,0,0,1-.023.347,2.257,2.257,0,0,1-.016-.347c0-.224,0-.548.01-.947.021-.8.079-1.9.169-3.12.061-.834.128-1.612.191-2.267l.014.036L59.351,139.5l-.307-.308a.655.655,0,0,1-.1-.115" transform="translate(-47.385 -111.805)" fill="#eb996e"/>
      </g>
    </g>
  </g>
</svg>
