<svg xmlns="http://www.w3.org/2000/svg" xmlns:xlink="http://www.w3.org/1999/xlink" width="39.39" height="41.965" viewBox="0 0 39.39 41.965">
  <defs>
    <clipPath id="clip-path">
      <rect id="Rectangle_334" data-name="Rectangle 334" width="39.39" height="41.965" transform="translate(0 0)" fill="none"/>
    </clipPath>
  </defs>
  <g id="Group_544" data-name="Group 544" transform="translate(0 0.002)">
    <g id="Group_543" data-name="Group 543" transform="translate(0 -0.002)" clip-path="url(#clip-path)">
      <path id="Path_1433" data-name="Path 1433" d="M283.168,230.795a29.015,29.015,0,0,0,1.531,3.686c.274.183,4.395,1.015,4.395,1.015l-.193,1.341a49.684,49.684,0,0,1-5.135.549c-.893-.082-1.908-3.076-1.908-3.076Z" transform="translate(-270.894 -221.817)" fill="#51d42f"/>
      <path id="Path_1434" data-name="Path 1434" d="M17.866,147.833a2.185,2.185,0,0,0-1.569.037,7.678,7.678,0,0,1-1.537.459A17.468,17.468,0,0,1,13,148.234a1.506,1.506,0,0,0-1.457.786c-.282.742.413,1.533.312,2.32a5.885,5.885,0,0,1-.5,1.215,3.171,3.171,0,0,0,.2,2.247,4.271,4.271,0,0,1,.44,1.445c.023.923-.7,1.718-.778,2.638a2.536,2.536,0,0,0,1.237,2.227,5.779,5.779,0,0,0,2.538.766,5.7,5.7,0,0,0,2.075-.066,4.448,4.448,0,0,0,2.764-2.515,10.022,10.022,0,0,0,.758-3.761Z" transform="translate(-10.777 -141.956)" fill="#4a0095"/>
      <path id="Path_1435" data-name="Path 1435" d="M43.772,764.293c-.708,2-1.311,3.927-1.761,5.444-.385,1.3-.657,2.3-.786,2.783-.056.211-.086.325-.086.325l-1.247.4s-.58-.137-.528-.935c.036-.545.074-1.219.1-1.944.011-.34.022-.693.035-1.055a14.827,14.827,0,0,1,.981-5.539c.707-1.507,3.688-.59,3.294.522" transform="translate(-37.83 -733.301)" fill="#fbc7b1"/>
      <path id="Path_1436" data-name="Path 1436" d="M42.095,926.122c-.385,1.3-.657,2.3-.786,2.783l-1.861-.211c.036-.545.074-1.219.1-1.944.011-.34.022-.693.035-1.055a6.169,6.169,0,0,0,2.514.427" transform="translate(-37.913 -889.686)" fill="#fff"/>
      <path id="Path_1437" data-name="Path 1437" d="M37.747,984.483a.281.281,0,0,0,.226.274,4.8,4.8,0,0,0,1.016.055l3.309-.057c.114,0,.24-.009.3-.122a.248.248,0,0,0,0-.233.633.633,0,0,0-.379-.264c-.716-.266-2.289-.722-2.341-1.934a7.214,7.214,0,0,1-1.046.034,1.416,1.416,0,0,1-.97-.307,17.405,17.405,0,0,0-.114,2.555" transform="translate(-36.278 -943.731)" fill="#ffbc45"/>
      <path id="Path_1438" data-name="Path 1438" d="M215.179,762.107c-.372,2.088-.652,4.088-.847,5.659-.167,1.344-.272,2.374-.321,2.874-.021.217-.031.335-.031.335l-1.725,1.079s-.036-.522-.114-1.318c-.053-.543-.126-1.215-.221-1.934-.044-.338-.092-.688-.138-1.047a14.827,14.827,0,0,1,.062-5.625c.452-1.6,3.542-1.185,3.335-.024" transform="translate(-203.314 -731.472)" fill="#fbc7b1"/>
      <path id="Path_1439" data-name="Path 1439" d="M4.028,176.954c-1.635,1.132-3.568,4.852-4,7.24s4.792,4.11,4.792,4.11l.609-2.632s.214-9.835-1.4-8.719" transform="translate(0 -169.986)" fill="#51d42f"/>
      <path id="Path_1440" data-name="Path 1440" d="M377.647,294.1l-2.947-.359-1.593,8.022a19.867,19.867,0,0,0,2.964,0c.079-.147,1.576-7.663,1.576-7.663" transform="translate(-358.593 -282.318)" fill="#e0dcff"/>
      <path id="Path_1441" data-name="Path 1441" d="M55.8,491.507c.666-2.623,2.121-11.673,2.121-11.673l8.05.955s-.294,8.493-.48,11.015c0,0-3.389.814-3.43.176-.1-1.61-.418-5.794-.418-5.794s-1.438,4.109-1.844,5.766c-.117.476-4.151.157-4-.444" transform="translate(-53.622 -461.169)" fill="#ff413c"/>
      <path id="Path_1442" data-name="Path 1442" d="M205.58,591.568a6.669,6.669,0,0,1,.288-1.109q.1-.277.222-.545a.884.884,0,0,1,.323-.461c.021-.011,0-.043-.019-.032a.718.718,0,0,0-.286.367q-.13.269-.235.55a6.66,6.66,0,0,0-.329,1.221c0,.024.032.034.036.01" transform="translate(-197.548 -566.49)" fill="#fff"/>
      <path id="Path_1443" data-name="Path 1443" d="M82.184,160.488c-1.747,2.713.807,7.776-.085,12.572,0,0,.2.612,2.466.74,6.334.357,6.148-.405,6.148-.405s.528-7.6.071-10.589c-.3-1.97-2.007-3.326-4.825-3.322-1.475,0-3.337.323-3.775,1" transform="translate(-78.384 -153.28)" fill="#51d42f"/>
      <path id="Path_1444" data-name="Path 1444" d="M106.186,539.953a2.185,2.185,0,0,0,2.39-1.542c.005-.023-.031-.034-.036-.01a2.147,2.147,0,0,1-2.344,1.516c-.024,0-.034.032-.01.036" transform="translate(-102.042 -517.444)" fill="#fff"/>
      <path id="Path_1445" data-name="Path 1445" d="M159.3,24.663a2.519,2.519,0,0,0-1.142,1.994c-.11,1.289,1.091,2.355,1.8,2.226s-.436-4.137-.662-4.22" transform="translate(-151.996 -23.704)" fill="#4a0095"/>
      <path id="Path_1446" data-name="Path 1446" d="M173.208,109.774c1.2.123.783-.616.728-.879,0-.014-.006-.029-.008-.045a2.343,2.343,0,0,1-.015-.369c0-.135.012-.283.023-.428l0-.026c.009-.114.02-.226.031-.328s.025-.218.035-.3c.014-.108.023-.174.023-.174l-.909-.572-.1-.066-.508-.319a14.111,14.111,0,0,1-.679,2.272c-.139.374.131,1.1,1.379,1.232" transform="translate(-165.114 -102.136)" fill="#fbc7b1"/>
      <path id="Path_1447" data-name="Path 1447" d="M200.354,129.415h0a2.347,2.347,0,0,1-.015-.369c0-.135.012-.283.024-.428l0-.026c-.242-.183-.649-.571-.839-.757l-.1-.1c0,.011-.126-.076-.127-.065a1.933,1.933,0,0,0,1.06,1.748" transform="translate(-191.54 -122.7)" fill="#fc9171"/>
      <path id="Path_1448" data-name="Path 1448" d="M190.144,42.511s.03,2.245,1.913,2.243c1.852,0,1.522-1.377,1.28-3.334-.146-1.181-3.333-2.445-3.193,1.09" transform="translate(-182.743 -38.633)" fill="#fbc7b1"/>
      <path id="Path_1449" data-name="Path 1449" d="M194.725,126.112a3.063,3.063,0,0,0,1,1.161c.02.014.044-.015.024-.028a3.027,3.027,0,0,1-.991-1.144c-.011-.021-.046-.009-.035.012" transform="translate(-187.148 -121.183)" fill="#fc9171"/>
      <path id="Path_1450" data-name="Path 1450" d="M232.655,122.935a.743.743,0,0,0,.857.331c.025-.009.015-.049-.011-.04a.7.7,0,0,1-.811-.312c-.015-.022-.051,0-.036.021" transform="translate(-223.602 -118.124)" fill="#d26c51"/>
      <path id="Path_1451" data-name="Path 1451" d="M245.821,93.116a.707.707,0,0,0,.016.481c.029.105.064.209.09.315.014.057.059.152-.014.187a.857.857,0,0,1-.118.018.021.021,0,0,0,.011.04c.054-.015.132,0,.172-.051s0-.151-.01-.205c-.056-.229-.216-.532-.111-.764.011-.024-.025-.045-.036-.021" transform="translate(-236.219 -89.484)" fill="#d26c51"/>
      <path id="Path_1452" data-name="Path 1452" d="M219.623,82.648c.02.108-.151.164-.368.2s-.4.05-.417-.058.132-.265.349-.305.415.051.436.159" transform="translate(-210.324 -79.271)" fill="#e8775a"/>
      <path id="Path_1453" data-name="Path 1453" d="M249.837,81.308c0,.11-.192.132-.429.131s-.428-.026-.427-.136.193-.235.429-.234.427.129.427.239" transform="translate(-239.296 -77.916)" fill="#e8775a"/>
      <path id="Path_1454" data-name="Path 1454" d="M229.614,99.536c.006.1-.043.178-.11.182s-.127-.07-.133-.166.043-.178.11-.182.127.07.133.166" transform="translate(-220.448 -95.504)" fill="#262f36"/>
      <path id="Path_1455" data-name="Path 1455" d="M252.991,96.456c.006.1-.043.178-.11.182s-.127-.07-.133-.166.043-.178.11-.182.127.07.133.166" transform="translate(-242.915 -92.544)" fill="#262f36"/>
      <path id="Path_1456" data-name="Path 1456" d="M164.54,34.691c.068.017.129.055.2.069a.853.853,0,0,0,.607-.1.718.718,0,0,0,.361-.653,1.342,1.342,0,0,0-.1-.379l0-.006a.285.285,0,0,1,.3-.386,1.2,1.2,0,0,1,.266.06,8.157,8.157,0,0,1,.848.36,2.225,2.225,0,0,0,.574.194c.988.185,1.1-.509.8-1.026a1.642,1.642,0,0,0-1.264-.633s-3.072-.108-3.221.495.066,1.859.636,2" transform="translate(-157.484 -30.935)" fill="#4a0095"/>
      <path id="Path_1457" data-name="Path 1457" d="M177.246,89.838a.624.624,0,1,1,.192.752.556.556,0,0,1-.192-.752" transform="translate(-170.273 -86.186)" fill="#fbc7b1"/>
      <path id="Path_1458" data-name="Path 1458" d="M176.681,99.956a.627.627,0,0,0,.225.478,1.015,1.015,0,0,0,.611.2c.024,0,.025-.038,0-.037a.987.987,0,0,1-.541-.164.577.577,0,0,1-.257-.478c0-.024-.039-.025-.038,0" transform="translate(-169.808 -96.05)" fill="#fc9171"/>
      <path id="Path_1459" data-name="Path 1459" d="M194.213,100.227c.038.04.073.088.048.145-.008.018-.024.032-.033.051a.206.206,0,0,0,0,.154c.009.025.049.015.04-.01a.165.165,0,0,1,.02-.159.148.148,0,0,0,.036-.063c.007-.054-.046-.112-.08-.148-.018-.019-.048.01-.029.029" transform="translate(-186.653 -96.294)" fill="#fc9171"/>
      <path id="Path_1460" data-name="Path 1460" d="M196.772,91.8a.358.358,0,0,1,.124.1c.016.021.052,0,.036-.021a.4.4,0,0,0-.139-.117c-.024-.012-.045.024-.021.036" transform="translate(-189.108 -88.196)" fill="#fc9171"/>
      <path id="Path_1461" data-name="Path 1461" d="M453.731,376.4c.448.021.484-.122.493-.3s-.015-.324-.462-.345-.97.009-.982.276c-.012.248.5.347.952.368" transform="translate(-435.166 -361.136)" fill="#fbc7b1"/>
      <path id="Path_1462" data-name="Path 1462" d="M451.643,361.279c.524.025.566-.118.575-.3s-.02-.324-.544-.349-1.135,0-1.148.269c-.012.248.593.351,1.117.376" transform="translate(-433 -346.599)" fill="#fbc7b1"/>
      <path id="Path_1463" data-name="Path 1463" d="M452.9,348.927c.524.025.566-.118.575-.3s-.02-.324-.544-.349-1.135,0-1.148.269c-.012.248.593.351,1.117.376" transform="translate(-434.21 -334.727)" fill="#fbc7b1"/>
      <path id="Path_1464" data-name="Path 1464" d="M454.076,335.478c.493.023.532-.119.541-.3s-.018-.324-.51-.347-1.067,0-1.079.272c-.012.248.556.349,1.049.373" transform="translate(-435.405 -321.802)" fill="#fbc7b1"/>
      <path id="Path_1465" data-name="Path 1465" d="M466.944,374.13q-.4-.069-.807-.1c-.035,0-.033.052,0,.055q.4.034.793.1c.035.006.047-.047.012-.053" transform="translate(-447.98 -359.478)" fill="#fc9171"/>
      <path id="Path_1466" data-name="Path 1466" d="M459.584,360.826a5.673,5.673,0,0,0-1.319-.1.027.027,0,0,0,0,.055,5.614,5.614,0,0,1,1.305.1c.034.007.047-.047.012-.053" transform="translate(-440.415 -346.691)" fill="#fc9171"/>
      <path id="Path_1467" data-name="Path 1467" d="M460.479,347.752a3.8,3.8,0,0,0-1.22-.01c-.034.005-.033.06,0,.055a3.753,3.753,0,0,1,1.206.009c.035.006.047-.047.012-.053" transform="translate(-441.37 -334.172)" fill="#fc9171"/>
      <path id="Path_1468" data-name="Path 1468" d="M85,455.583c.5.18.987.387,1.493.545.034.01.048-.042.015-.053-.506-.158-.994-.365-1.493-.545-.033-.012-.047.041-.015.053" transform="translate(-81.68 -437.809)" fill="#fff"/>
      <path id="Path_1469" data-name="Path 1469" d="M145.692,290.782l-2.627,8.137h4.212l2.173-6.785Z" transform="translate(-137.5 -279.471)" fill="#d5cdff"/>
      <path id="Path_1470" data-name="Path 1470" d="M255.942,326.257l-2.436-.716-2.173,6.785,2.926,2.244Z" transform="translate(-241.557 -312.878)" fill="#e0dcff"/>
      <path id="Path_1471" data-name="Path 1471" d="M328.233,295.7l1.722-1.953-1.593,8.022-1.811,2.244Z" transform="translate(-313.848 -282.318)" fill="#d5cdff"/>
      <path id="Path_1472" data-name="Path 1472" d="M118.029,404.549a1.038,1.038,0,0,0,.022.127.356.356,0,0,0,.2.283.208.208,0,0,0,.048.009h0a.328.328,0,0,0,.2-.063,1.526,1.526,0,0,0,.453-.575h0a3.413,3.413,0,0,0,.216-.528h0q.025-.078.045-.154a2.866,2.866,0,0,0,.1-.69.912.912,0,0,0-.124-.549.274.274,0,0,0-.035-.037.218.218,0,0,0-.079-.045.312.312,0,0,0-.278.077,1.76,1.76,0,0,0-.459.641l0,.006a3.554,3.554,0,0,0-.169.435,3.448,3.448,0,0,0-.111.453,2.187,2.187,0,0,0-.03.61" transform="translate(-113.429 -386.666)" fill="#4a0095"/>
      <path id="Path_1473" data-name="Path 1473" d="M119.041,404.28c.259-.05.691,0,.992-.024l-.152-.179.118-.032.2-.056.031-.009.374-1.308h0l-.818.073a1.76,1.76,0,0,0-.459.641l0,.006a3.554,3.554,0,0,0-.169.435,3.448,3.448,0,0,0-.111.453" transform="translate(-114.41 -387.007)" fill="#fbc7b1"/>
      <path id="Path_1474" data-name="Path 1474" d="M117.911,401.556a.875.875,0,0,0-.38.312,2.726,2.726,0,0,0-.34.6,2.577,2.577,0,0,0-.254,1.353.562.562,0,0,0,.25.425c.021.012.037-.022.016-.034-.324-.184-.258-.7-.2-1.006a3.222,3.222,0,0,1,.5-1.239.933.933,0,0,1,.418-.374c.023-.008.01-.043-.013-.035" transform="translate(-112.37 -385.934)" fill="#fff"/>
      <path id="Path_1475" data-name="Path 1475" d="M129.118,368.283a.867.867,0,0,0,.387.014.892.892,0,0,0,.529-.309c.076-.094.132-.2.2-.3a1.271,1.271,0,0,1,.417-.373l.014,0c.145.025.287.07.434.091a.649.649,0,0,0,.511-.1.1.1,0,0,0,.035-.046c.011-.043-.033-.08-.071-.1a3.965,3.965,0,0,0-.683-.331l.027,0c.178.018.349.079.526.105a.65.65,0,0,0,.511-.1.1.1,0,0,0,.035-.046c.011-.043-.033-.08-.071-.1a4.274,4.274,0,0,0-.485-.252c.073.01.147.019.221.022a.65.65,0,0,0,.5-.154.1.1,0,0,0,.03-.049c.007-.044-.041-.076-.081-.1a3.549,3.549,0,0,0-1.046-.325,1.263,1.263,0,0,1,.2-.045c.164-.021.33,0,.494-.017a.6.6,0,0,0,.437-.2.085.085,0,0,0,.022-.048c0-.042-.046-.065-.085-.078a2.588,2.588,0,0,0-1.6-.076,1.479,1.479,0,0,0-.239.106,2.619,2.619,0,0,0-.624.53q-.287.308-.553.636c-.081.1-.166.208-.242.312l-.021.029a.8.8,0,0,0,.033,1.193.7.7,0,0,0,.244.119" transform="translate(-123.585 -351.054)" fill="#fbc7b1"/>
      <path id="Path_1476" data-name="Path 1476" d="M183.022,392.366c-.145-.019-.29-.043-.435-.056a.514.514,0,0,0-.3.045c-.022.012-.006.047.015.035a.558.558,0,0,1,.344-.035l.372.049c.024,0,.028-.035,0-.038" transform="translate(-175.186 -377.045)" fill="#fc9171"/>
      <path id="Path_1477" data-name="Path 1477" d="M175.8,404.188a.553.553,0,0,0-.508.035c-.021.013-.006.048.015.035a.518.518,0,0,1,.48-.034c.023.01.036-.026.013-.036" transform="translate(-168.462 -388.421)" fill="#fc9171"/>
      <path id="Path_1478" data-name="Path 1478" d="M181.04,378.793a2.214,2.214,0,0,1-.429-.013c-.024,0-.028.035,0,.038a2.264,2.264,0,0,0,.438.013c.025,0,.018-.039-.006-.038" transform="translate(-173.566 -364.045)" fill="#fc9171"/>
      <path id="Path_1479" data-name="Path 1479" d="M140.747,2.511a16.255,16.255,0,0,0-.486,1.783c0,.264,1.575-.329,2.476-1.235s3.611-.884,3.816-1.048-1.577-.8-1.577-.8A1.978,1.978,0,0,0,143.515,0c-1-.077-2.721.537-2.885.972a3.886,3.886,0,0,0,.117,1.535" transform="translate(-134.805 0.002)" fill="#ffbf61"/>
      <path id="Path_1480" data-name="Path 1480" d="M152.007,30.831a3,3,0,0,0,1.907-.683,3.5,3.5,0,0,1,2.473-.613c.038.006.054-.052.016-.058a3.234,3.234,0,0,0-2.107.376c-.7.382-1.42,1.036-2.273.92-.038-.005-.054.053-.016.058" transform="translate(-146.073 -28.288)" fill="#fff"/>
      <path id="Path_1481" data-name="Path 1481" d="M54.487,749.751a2.952,2.952,0,0,1-.161.833c-.14.338-.036.559.359.678s3.1.565,3.644.118a.64.64,0,0,0,.116-.442c0-.331.21-.4.148-.516a13.017,13.017,0,0,1-2.826-.273c-1.135-.41-1.267-.558-1.28-.4" transform="translate(-52.156 -720.526)" fill="#f25242"/>
      <path id="Path_1482" data-name="Path 1482" d="M213.784,767.247a3.322,3.322,0,0,1,.044.844.457.457,0,0,0,.456.593c.364.04,2.822.138,3.188-.4,0,0,.142-.161-.036-.636-.116-.31.092-.431.014-.532a10.085,10.085,0,0,1-2.482.276c-1.062-.183-1.208-.3-1.184-.143" transform="translate(-205.466 -737.262)" fill="#f25242"/>
      <path id="Path_1483" data-name="Path 1483" d="M220.247,932.772c-.167,1.344-.272,2.374-.321,2.874l-1.87.1c-.053-.543-.126-1.215-.221-1.934-.044-.338-.092-.688-.138-1.047a6.169,6.169,0,0,0,2.55.011" transform="translate(-209.229 -896.477)" fill="#fff"/>
      <path id="Path_1484" data-name="Path 1484" d="M224.223,985.322c-.006.247-.013.488-.012.711a.281.281,0,0,0,.226.274,4.8,4.8,0,0,0,1.016.055l3.309-.057c.114,0,.24-.009.3-.122a.248.248,0,0,0,0-.233.633.633,0,0,0-.379-.264c-.716-.266-2.4-.832-2.448-2.043a2.248,2.248,0,0,1-.939.143,2.836,2.836,0,0,1-1.121-.244,9.215,9.215,0,0,1,.056,1.322c0,.154,0,.307-.007.459" transform="translate(-215.454 -945.283)" fill="#ffbc45"/>
      <path id="Path_1485" data-name="Path 1485" d="M91.618,160.786s2.736,4.778-1.869,7l-.214.54a4.343,4.343,0,0,0,3.39-3.349,5.624,5.624,0,0,0-.721-4.286.535.535,0,0,0-.587.1" transform="translate(-86.053 -154.392)" fill="#4a0095"/>
      <path id="Path_1486" data-name="Path 1486" d="M87.106,346.2c-.544-.408-1.091-.81-1.655-1.19l-.255-.171a1.492,1.492,0,0,1-.18-.111c-.008-.045.1-.195.12-.235l.261-.512c.016-.031-.031-.059-.047-.028l-.388.763a.028.028,0,0,0,.01.037c.718.48,1.418.976,2.108,1.494.028.021.055-.026.028-.047" transform="translate(-81.652 -330.565)" fill="#fff"/>
      <path id="Path_1487" data-name="Path 1487" d="M289.959,252.565a17.235,17.235,0,0,1,.221,2.561c0,.038.064.039.06,0a17.336,17.336,0,0,0-.223-2.577.03.03,0,0,0-.058.016" transform="translate(-278.678 -242.704)" fill="#fff"/>
      <path id="Path_1488" data-name="Path 1488" d="M80.311,576.96a27.762,27.762,0,0,1-1,6.519.03.03,0,0,0,.058.016,27.83,27.83,0,0,0,1-6.535c0-.039-.059-.039-.06,0" transform="translate(-76.223 -554.489)" fill="#fff"/>
      <path id="Path_1489" data-name="Path 1489" d="M65.694,752.164a.429.429,0,0,0-.1.269,1.146,1.146,0,0,0,.018.189.749.749,0,0,1-.067.473c-.091.193-.147.384.03.551.028.027.071-.016.043-.043-.251-.237.03-.451.073-.694s-.13-.48.046-.7c.024-.03-.019-.073-.043-.043" transform="translate(-62.913 -722.895)" fill="#fff"/>
      <path id="Path_1490" data-name="Path 1490" d="M276.989,545a1.772,1.772,0,0,0,1.313,1.034c.038.007.054-.051.016-.058a1.718,1.718,0,0,1-1.277-1.006c-.016-.035-.068,0-.052.03" transform="translate(-266.212 -523.754)" fill="#fff"/>
      <path id="Path_1491" data-name="Path 1491" d="M582.342,206.363a1.5,1.5,0,0,0-1.323.682,1.94,1.94,0,0,0-.059,1,39.685,39.685,0,0,1-.028,6.689,2.233,2.233,0,0,0,.129,1.135,1.765,1.765,0,0,0,.509.563,3.992,3.992,0,0,0,1.189.692,1.99,1.99,0,0,0,1.332.012l1.175-10.658a8.024,8.024,0,0,0-2.924-.12" transform="translate(-558.32 -198.262)" fill="#ffbc45"/>
      <path id="Path_1492" data-name="Path 1492" d="M956.77,99.056a2.884,2.884,0,0,0-.229-.52c-.084-.108-.414-.044-.486.157s-.025.275.165.275a3.283,3.283,0,0,1,.551.087" transform="translate(-918.834 -94.653)" fill="#e29171"/>
      <path id="Path_1493" data-name="Path 1493" d="M779.223,1002.354c-.006.234-.012.463-.011.675a.267.267,0,0,0,.214.26,4.552,4.552,0,0,0,.964.052l3.139-.054c.108,0,.228-.008.287-.116a.235.235,0,0,0,0-.221.6.6,0,0,0-.36-.251,5.514,5.514,0,0,1-1.926-.993l-.048-.047a2.023,2.023,0,0,1-.286-.364,1.264,1.264,0,0,1-.149-.333.841.841,0,0,1-.024-.123c0-.016,0-.032,0-.049l-.37-.016-.106,0-1.428-.063a4.744,4.744,0,0,1,.117,1.212c0,.146,0,.291-.007.435" transform="translate(-748.805 -961.78)" fill="#2a2c4b"/>
      <path id="Path_1494" data-name="Path 1494" d="M726.394,549.672a18.747,18.747,0,0,1,1.48,4.857c.038,1.649-.246,7.249-.246,7.249s.254.341,1.305.434a2.578,2.578,0,0,0,1.278-.109s1.049-5.9,1.21-8.091c.176-2.392-.921-9.46-.921-9.46l-4.542-.539Z" transform="translate(-697.72 -522.851)" fill="#4a0095"/>
      <path id="Path_1495" data-name="Path 1495" d="M518.505,974.674c-.094.215-.187.423-.267.62a.267.267,0,0,0,.1.322,4.557,4.557,0,0,0,.872.415l2.924,1.143a.3.3,0,0,0,.31,0,.235.235,0,0,0,.081-.206.6.6,0,0,0-.238-.368,5.514,5.514,0,0,1-1.4-1.651c-.009-.02-.018-.041-.026-.062a2.022,2.022,0,0,1-.126-.445,1.267,1.267,0,0,1-.011-.364.856.856,0,0,1,.025-.123c0-.016.009-.031.014-.047l-.336-.156-.1-.045-1.3-.6a4.744,4.744,0,0,1-.352,1.165c-.056.135-.114.268-.171.4" transform="translate(-498.06 -935.255)" fill="#2a2c4b"/>
      <path id="Path_1496" data-name="Path 1496" d="M528.113,513.158s-.817,8.419-1.4,9.928c-.592,1.539-3.219,6.859-3.219,6.859a2.214,2.214,0,0,0,1.08.978,2.1,2.1,0,0,0,1.309.237s3.325-5.236,4.308-7.2c1.072-2.146,2.743-9.1,2.743-9.1l-1.671-2.947Z" transform="translate(-503.132 -491.996)" fill="#4a0095"/>
      <path id="Path_1497" data-name="Path 1497" d="M768.3,180.153l-.393,3.584s-3.232-3.1-4.892-3.062c-.95.024-2.5,2.509-.7,3.925,2.84,2.235,6.891,4.213,8.107,2.252,1.071-1.727.258-6.635.258-6.635-.049-.127-2.415-.507-2.382-.063" transform="translate(-731.865 -172.945)" fill="#ff413c"/>
      <path id="Path_1498" data-name="Path 1498" d="M627.389,235.32s-.075.451,3.961.7a11.536,11.536,0,0,0,4.162-.286c.231-1.077.45-3.017.888-5.673a47.7,47.7,0,0,0,.411-6.4c0-.092-.95-.075-.97-.152-.223-.857-.811-.936-2.59-.592a42.749,42.749,0,0,0-6.125,1.842,50.692,50.692,0,0,1,.6,6.878h0a29.921,29.921,0,0,1-.337,3.682" transform="translate(-602.732 -214.064)" fill="#ff413c"/>
      <path id="Path_1499" data-name="Path 1499" d="M580.681,201.721a1.73,1.73,0,0,1-1.95,1.478,5.445,5.445,0,0,1-2.871-.317c-4.993-1.919-7.569-3.36-1.808-9.3,1.6-1.654,5.992-1.289,7.617-.194.792.534-2.545,1.7-3.237,2.36l-3.592,3.421,4.363.6a1.73,1.73,0,0,1,1.478,1.95" transform="translate(-548.559 -184.968)" fill="#ff413c"/>
      <path id="Path_1500" data-name="Path 1500" d="M818,72.126l.629-.533s.441,1.537.182,1.954S818,72.126,818,72.126" transform="translate(-786.176 -68.808)" fill="#4a0095"/>
      <path id="Path_1501" data-name="Path 1501" d="M725.13,63.916c-.483.273-1.014-.3-1.761-2.225a1.406,1.406,0,0,1,.992-2.052c.219.052,1.405,3.917.769,4.277" transform="translate(-695.081 -57.319)" fill="#4a0095"/>
      <path id="Path_1502" data-name="Path 1502" d="M756.106,147.114c-1.181.016-1.5-.582-1.413-.948.348-1.436.456-2.2.456-2.2l.44.247.105.05.912.435s0,.063,0,.166c0,.076,0,.174,0,.283s0,.2.006.31q0,.012,0,.025c0,.137.012.276.025.4a2.2,2.2,0,0,0,.054.343c0,.015.008.028.012.041.08.24.535.833-.6.848" transform="translate(-725.323 -138.364)" fill="#e29171"/>
      <path id="Path_1503" data-name="Path 1503" d="M777.147,164.567h0a1.819,1.819,0,0,1-1.182-1.519c0-.01.126.058.126.047l.109.084c.2.153.621.471.868.616v.025c0,.137.012.276.025.4a2.211,2.211,0,0,0,.054.343" transform="translate(-745.78 -156.706)" fill="#9b5846"/>
      <path id="Path_1504" data-name="Path 1504" d="M763.438,76.461c-1.755.252-2.08-1.837-2.08-1.837-.6-3.277,2.33-3.059,2.831-1.439.549,1.773.975,3.029-.751,3.276" transform="translate(-731.664 -69.236)" fill="#e29171"/>
      <path id="Path_1505" data-name="Path 1505" d="M770.177,158.823a2.719,2.719,0,0,1-.919-1.015c-.009-.015.016-.026.024-.011a2.688,2.688,0,0,0,.91,1c.015.009,0,.031-.015.022" transform="translate(-739.332 -151.652)" fill="#9b5846"/>
      <path id="Path_1506" data-name="Path 1506" d="M815.1,125.53c.019.049.062.125.032.178s-.108.05-.153.07a.02.02,0,0,1-.015-.036.817.817,0,0,0,.107-.032c.065-.044.007-.131-.014-.184-.038-.1-.085-.187-.126-.281a.655.655,0,0,1-.076-.439c.007-.024.043-.009.036.015-.068.235.127.5.209.71" transform="translate(-783.145 -119.939)" fill="#9b5846"/>
      <path id="Path_1507" data-name="Path 1507" d="M789.08,117.324c-.2.066-.363.1-.4,0s.088-.264.285-.331.394-.007.427.091-.119.173-.316.239" transform="translate(-757.999 -112.417)" fill="#9b5846"/>
      <path id="Path_1508" data-name="Path 1508" d="M816.8,112.088c-.22.03-.4.032-.416-.07s.149-.245.369-.275.415.064.429.166-.162.149-.382.179" transform="translate(-784.63 -107.391)" fill="#9b5846"/>
      <path id="Path_1509" data-name="Path 1509" d="M800.413,132.9c-.062.013-.128-.048-.146-.137s.017-.171.079-.184.127.048.146.137-.017.171-.079.184" transform="translate(-769.133 -127.423)" fill="#262f36"/>
      <path id="Path_1510" data-name="Path 1510" d="M821.792,126.939c-.062.013-.127-.048-.146-.137s.017-.171.079-.184.128.048.146.137-.017.171-.079.184" transform="translate(-789.68 -121.69)" fill="#262f36"/>
      <path id="Path_1511" data-name="Path 1511" d="M748.234,47.867a.427.427,0,0,1-.3.091,14.082,14.082,0,0,0-1.625.168.363.363,0,0,0-.3.158.425.425,0,0,0-.03.17c-.012.388.079.951-.073.987l-.282.334c-.15.07-.342-.077-.4-.253a.906.906,0,0,1,.039-.53.551.551,0,0,0,.031-.147.609.609,0,0,0-.073-.255,7.439,7.439,0,0,1-.434-1.262.6.6,0,0,1,0-.4.428.428,0,0,1,.148-.156,1.336,1.336,0,0,1,.587-.229.96.96,0,0,0,.4-.093,1.973,1.973,0,0,1,.192-.144c.162-.078.355.026.533.086a.571.571,0,0,0,.474-.013c.063-.038.113-.094.177-.13a.479.479,0,0,1,.54.118,1.322,1.322,0,0,1,.309.543,3.7,3.7,0,0,1,.139.535.488.488,0,0,1-.057.418" transform="translate(-715.787 -44.411)" fill="#4a0095"/>
      <path id="Path_1512" data-name="Path 1512" d="M754.983,127.909a.466.466,0,1,1,.721-.119.523.523,0,0,1-.721.119" transform="translate(-725.301 -122.086)" fill="#e29171"/>
      <path id="Path_1513" data-name="Path 1513" d="M755.178,138.75c.022,0,.027.031,0,.035a.957.957,0,0,1-.6-.109.591.591,0,0,1-.27-.414c-.005-.022.03-.027.035,0a.542.542,0,0,0,.3.412.928.928,0,0,0,.526.081" transform="translate(-724.971 -132.865)" fill="#9b5846"/>
      <path id="Path_1514" data-name="Path 1514" d="M770.732,136.147c.036.029.094.076.094.127a.1.1,0,0,1-.018.05.16.16,0,0,0,0,.163c.012.022-.024.037-.036.015a.194.194,0,0,1-.018-.144c0-.016.014-.03.02-.045.021-.064-.014-.1-.06-.136-.02-.016,0-.047.023-.031" transform="translate(-740.721 -130.847)" fill="#9b5846"/>
      <path id="Path_1515" data-name="Path 1515" d="M772.271,128.21a.345.345,0,0,0-.132-.081.013.013,0,0,1,.009-.025.376.376,0,0,1,.143.089c.012.012-.008.029-.021.017" transform="translate(-742.095 -123.12)" fill="#9b5846"/>
      <path id="Path_1516" data-name="Path 1516" d="M806.093,154.27a.593.593,0,0,0,.1.195.377.377,0,0,0,.282.133.462.462,0,0,0,.329-.106.571.571,0,0,0,.117-.156.063.063,0,0,0-.064-.093l-.021,0h-.01l-.032,0-.013,0c-.036,0-.076.007-.118.009H806.5l-.026,0-.061-.006-.022,0-.083-.013-.036-.008-.03-.007-.012,0-.027-.007-.036-.011a.055.055,0,0,0-.059.017.054.054,0,0,0-.01.052" transform="translate(-774.734 -148.2)" fill="#262f36"/>
      <path id="Path_1517" data-name="Path 1517" d="M806.43,154.217a.679.679,0,0,0,.464.159,1.262,1.262,0,0,0,.349-.1.063.063,0,0,0-.063-.031l-.021,0h-.01l-.032,0-.013,0c-.036,0-.075.007-.118.009h-.163l-.026,0-.061-.006-.022,0-.083-.013-.036-.008-.03-.007-.012,0-.027-.007-.036-.011a.055.055,0,0,0-.059.017" transform="translate(-775.06 -148.2)" fill="#fff"/>
      <path id="Path_1518" data-name="Path 1518" d="M808.614,159.53a.377.377,0,0,0,.282.133.462.462,0,0,0,.329-.106.575.575,0,0,0-.327-.057s-.2-.089-.285.03" transform="translate(-777.159 -153.265)" fill="#e55a4d"/>
      <path id="Path_1519" data-name="Path 1519" d="M936.533,178.2a.276.276,0,0,0,.146.131,1.347,1.347,0,0,0,.249.092,3.252,3.252,0,0,0,.491.093c.13.015.267.025.408.029a3.474,3.474,0,0,0,.687-.041c.041-.007.08-.016.116-.025a.933.933,0,0,0,.159-.053c.1-.045.146-.1.126-.162a.112.112,0,0,0-.015-.029.36.36,0,0,0-.137-.105,1.158,1.158,0,0,0-.157-.064c-.062-.021-.131-.04-.206-.057a4.093,4.093,0,0,0-.78-.093,3.441,3.441,0,0,0-.656.038,1.32,1.32,0,0,0-.283.076c-.113.048-.169.107-.147.173" transform="translate(-900.098 -170.993)" fill="#262f36"/>
      <path id="Path_1520" data-name="Path 1520" d="M924.305,276.949a5.955,5.955,0,0,0-.061,1.115,5.553,5.553,0,0,0,.242,1.089c.008.026-.032.042-.039.015a5.614,5.614,0,0,1-.245-1.1,6.009,6.009,0,0,1,.061-1.126c0-.027.045-.02.042.007" transform="translate(-888.242 -266.153)" fill="#fff"/>
      <path id="Path_1521" data-name="Path 1521" d="M656.492,327.922c-.015.02-.047,0-.032-.023l.67-.883c.015-.02.047,0,.032.023l-.67.883" transform="translate(-630.92 -314.288)" fill="#fff"/>
      <path id="Path_1522" data-name="Path 1522" d="M928.37,134.04c-.134.081-.176.3-.517.179-.369-.133-.453-.676-.5-.832-.231-.7-.463-.942-.414-.995.33-.349.818.391,1.007.7s.562.866.429.947" transform="translate(-890.871 -127.154)" fill="#e29171"/>
      <path id="Path_1523" data-name="Path 1523" d="M944.431,117.7l-.206,1.088c-.035.518-.926.732-1.232.643-.33-.1-.821-.1-.933-.719a2.011,2.011,0,0,1-.006-.577l.421-1.067a.4.4,0,0,1,.438-.358l.968.4a.759.759,0,0,1,.551.592" transform="translate(-905.39 -112.174)" fill="#e29171"/>
      <path id="Path_1524" data-name="Path 1524" d="M946.818,179.405a3.251,3.251,0,0,0,.491.093c.13.015.267.025.408.029a3.474,3.474,0,0,0,.687-.041c.041-.007.08-.016.116-.025-.013-.222-.024-.415-.024-.415l-1.643-.113Z" transform="translate(-909.987 -171.973)" fill="#e29171"/>
      <path id="Path_1525" data-name="Path 1525" d="M945.972,178.351a.572.572,0,0,0,.431.1c.027,0,.031.04,0,.041a.615.615,0,0,1-.461-.1c-.02-.018.006-.05.026-.033" transform="translate(-909.143 -171.408)" fill="#9b5846"/>
      <path id="Path_1526" data-name="Path 1526" d="M954.323,150.256a2.361,2.361,0,0,1,.545.979c.006.026-.036.03-.042,0a2.32,2.32,0,0,0-.537-.958c-.017-.021.016-.046.033-.025" transform="translate(-917.164 -144.403)" fill="#9b5846"/>
      <path id="Path_1527" data-name="Path 1527" d="M738.967,621.373c-.209.457-.43.911-.608,1.382a11.109,11.109,0,0,0-.4,1.408c-.007.029-.052.017-.045-.013a10.957,10.957,0,0,1,.422-1.452c.177-.459.392-.9.6-1.35.013-.027.053,0,.041.024" transform="translate(-709.204 -597.167)" fill="#fff"/>
      <path id="Path_1528" data-name="Path 1528" d="M660.846,586.349a2.325,2.325,0,0,1-1.785.978c-.03,0-.03-.046,0-.047a2.275,2.275,0,0,0,1.744-.955c.017-.024.058,0,.041.024" transform="translate(-633.403 -563.508)" fill="#fff"/>
      <path id="Path_1529" data-name="Path 1529" d="M541,611.574l-.579,3.1c-.185.992-.356,1.989-.585,2.973a23.317,23.317,0,0,1-2.076,5.366c-.507.983-1.052,1.946-1.6,2.909a.024.024,0,0,1-.041-.024,48.083,48.083,0,0,0,2.672-5.2,19.468,19.468,0,0,0,.915-2.727c.248-.99.421-2,.608-3l.637-3.415c.005-.03.051-.017.045.012" transform="translate(-515.267 -587.755)" fill="#fff"/>
      <path id="Path_1530" data-name="Path 1530" d="M527.776,972.32a8.162,8.162,0,0,1-1.479-.457,1.938,1.938,0,0,1-.928-.687c-.016-.026.024-.049.041-.024a2.091,2.091,0,0,0,1.062.731,8.33,8.33,0,0,0,1.316.391c.03.006.017.052-.012.045" transform="translate(-504.93 -933.365)" fill="#fff"/>
      <path id="Path_1531" data-name="Path 1531" d="M913.247,102.751h-.756a.1.1,0,0,1-.1-.1V102.4a.1.1,0,0,1,.1-.1h.756a.1.1,0,0,1,.1.1v.249a.1.1,0,0,1-.1.1" transform="translate(-876.895 -98.313)" fill="#2b2e4b"/>
      <path id="Path_1532" data-name="Path 1532" d="M918.678,102.751h-.756a.1.1,0,0,1-.1-.1V102.4a.1.1,0,0,1,.1-.1h.756a.1.1,0,0,1,.1.1v.249a.1.1,0,0,1-.1.1" transform="translate(-882.114 -98.313)" fill="#353659"/>
      <path id="Path_1533" data-name="Path 1533" d="M922.445,104.214h-.533a.059.059,0,0,1-.059-.059v-.1a.059.059,0,0,1,.059-.059h.533a.059.059,0,0,1,.059.059v.1a.059.059,0,0,1-.059.059" transform="translate(-885.992 -99.951)" fill="#e0dcff"/>
      <path id="Path_1534" data-name="Path 1534" d="M876.339,113.221h-3.194a.2.2,0,0,1-.2-.2v-1.885a.2.2,0,0,1,.2-.2h3.194a.2.2,0,0,1,.2.2v1.885a.2.2,0,0,1-.2.2" transform="translate(-838.991 -106.626)" fill="#4a0095"/>
      <path id="Path_1535" data-name="Path 1535" d="M886.374,113.221H883.18a.2.2,0,0,1-.2-.2v-1.885a.2.2,0,0,1,.2-.2h3.194a.2.2,0,0,1,.2.2v1.885a.2.2,0,0,1-.2.2" transform="translate(-848.635 -106.626)" fill="#4a0095"/>
      <path id="Path_1536" data-name="Path 1536" d="M898.991,117.963h0v-.854h-.854a.828.828,0,0,0-.159.015.854.854,0,0,0,.159,1.694h.854v-.854Z" transform="translate(-862.378 -112.552)" fill="#4a0095"/>
      <path id="Path_1537" data-name="Path 1537" d="M976.77,124.537c.411-.31.354-.444.248-.584s-.218-.232-.63.078-.857.713-.7.923c.147.195.668-.107,1.08-.418" transform="translate(-937.705 -119.007)" fill="#e29171"/>
      <path id="Path_1538" data-name="Path 1538" d="M970.466,110.652c.411-.31.354-.444.248-.584s-.218-.232-.63.078-.857.713-.7.923c.147.195.668-.107,1.08-.418" transform="translate(-931.646 -105.662)" fill="#e29171"/>
      <path id="Path_1539" data-name="Path 1539" d="M963.663,100.534c.411-.31.354-.444.248-.584s-.218-.232-.63.078-.857.713-.7.923c.147.195.668-.107,1.08-.418" transform="translate(-925.108 -95.937)" fill="#e29171"/>
      <path id="Path_1540" data-name="Path 1540" d="M974.316,140.016a.5.5,0,0,1-.631.1c-.215-.175.01-.428.158-.55.021-.017.043.018.022.035a.652.652,0,0,0-.2.221.216.216,0,0,0,.14.307.5.5,0,0,0,.48-.145c.019-.019.05.009.031.028" transform="translate(-935.724 -134.135)" fill="#9b5846"/>
      <path id="Path_1541" data-name="Path 1541" d="M969.39,115.022c-.162.11-.794.628-.96.245-.056-.13.068-.261.145-.35a4.967,4.967,0,0,1,.6-.583c.021-.017.043.018.022.035a5.12,5.12,0,0,0-.388.353,1.514,1.514,0,0,0-.284.32c-.088.176.11.336.275.287a.944.944,0,0,0,.209-.1c.122-.074.239-.16.357-.241.022-.015.044.02.022.035" transform="translate(-930.745 -109.882)" fill="#9b5846"/>
      <path id="Path_1542" data-name="Path 1542" d="M962.608,104.8c-.139.1-.323.2-.457.034-.082-.1-.046-.191.016-.293a2.173,2.173,0,0,1,.714-.672c.023-.013.046.022.022.035a2.418,2.418,0,0,0-.469.386,1.425,1.425,0,0,0-.239.284.3.3,0,0,0-.052.126c0,.118.221.175.306.148a.507.507,0,0,0,.138-.085c.022-.016.044.019.022.035" transform="translate(-924.678 -99.827)" fill="#9b5846"/>
      <path id="Path_1543" data-name="Path 1543" d="M920.958,117.963a.828.828,0,0,1-.015.159.854.854,0,1,1-1-1,.828.828,0,0,1,.159-.015.855.855,0,0,1,.854.855" transform="translate(-883.491 -112.552)" fill="#2b2e4b"/>
      <path id="Path_1544" data-name="Path 1544" d="M923.894,121.024a.713.713,0,0,1-.013.136.731.731,0,1,1-.854-.854.708.708,0,0,1,.136-.013.731.731,0,0,1,.731.731" transform="translate(-886.551 -115.614)" fill="#e0dcff"/>
      <path id="Path_1545" data-name="Path 1545" d="M938.27,121.024a.107.107,0,0,1-.149.149.731.731,0,0,1-.731-.731.107.107,0,0,1,.149-.149.731.731,0,0,1,.731.731" transform="translate(-900.927 -115.614)" fill="#ededff"/>
      <path id="Path_1546" data-name="Path 1546" d="M964.892,105.463a.279.279,0,0,0,.146-.188c.008-.038-.05-.054-.058-.016a.221.221,0,0,1-.118.152c-.035.018,0,.07.03.052" transform="translate(-927.314 -101.144)" fill="#9b5846"/>
      <path id="Path_1547" data-name="Path 1547" d="M642.435,189.3s2.766,6.091,2.264,7.775-3.531,2.5-5.3,2.243a1.25,1.25,0,0,0-.033.984s4.185.2,5.635-2.209-1.9-8.946-1.9-8.946a.573.573,0,0,0-.667.151" transform="translate(-614.404 -181.744)" fill="#ffbc45"/>
      <path id="Path_1548" data-name="Path 1548" d="M704.991,390.086a4.034,4.034,0,0,1-.308.424,2.064,2.064,0,0,1-.763.625.4.4,0,0,1-.24.025h0a.26.26,0,0,1-.051-.021.365.365,0,0,1-.144-.351,1.679,1.679,0,0,1,.1-.5,3.221,3.221,0,0,1,.188-.436c.055-.108.118-.218.188-.328a4.215,4.215,0,0,1,.316-.434q.069-.083.138-.156a2.77,2.77,0,0,1,.211-.2,1.612,1.612,0,0,1,.309-.217.419.419,0,0,1,.384-.047c.285.155.142.882-.327,1.619" transform="translate(-676.117 -373.327)" fill="#262f36"/>
      <path id="Path_1549" data-name="Path 1549" d="M651.646,348.038c-.478-.14-.946-.3-1.406-.485-.813-.32-1.605-.691-2.4-1.069-.023-.011-.008-.048.014-.037a25.43,25.43,0,0,0,3.8,1.554c.024.007.01.044-.014.037" transform="translate(-622.631 -332.969)" fill="#fff"/>
      <path id="Path_1550" data-name="Path 1550" d="M644.21,436.014c-.517-.153-1.026-.328-1.532-.514-.33-.121-.658-.254-1-.35a.021.021,0,0,1,.011-.041c.339.1.667.229,1,.35.506.186,1.015.361,1.532.514a.021.021,0,0,1-.011.041" transform="translate(-616.706 -418.182)" fill="#fff"/>
      <path id="Path_1551" data-name="Path 1551" d="M707.647,401.327l-.689,1.173h-.032l-.2,0-.123,0,.1.211h0c-.186-.032-.413-.1-.622-.159a3.227,3.227,0,0,1,.188-.436c.055-.108.118-.218.188-.328a4.212,4.212,0,0,1,.316-.434q.069-.083.138-.156Z" transform="translate(-678.613 -385.599)" fill="#e29171"/>
      <path id="Path_1552" data-name="Path 1552" d="M714.944,375.725a.084.084,0,0,1-.033.041.6.6,0,0,1-.473.086c-.163-.028-.319-.087-.483-.107a1.12,1.12,0,0,0-.18-.007h-.027l.025.01a3.566,3.566,0,0,1,.907.566c.035.028.073.071.055.112a.1.1,0,0,1-.041.041.651.651,0,0,1-.521.025c-.07-.022-.14-.049-.208-.077a4.261,4.261,0,0,1,.407.366c.031.032.065.078.043.117a.092.092,0,0,1-.045.036.649.649,0,0,1-.52-.027c-.161-.068-.309-.167-.472-.229h0l-.011,0-.026-.009.037.027a3.939,3.939,0,0,1,.541.465c.031.031.065.078.043.117a.094.094,0,0,1-.045.036.648.648,0,0,1-.52-.027c-.136-.057-.263-.136-.4-.2l-.013-.006a1.271,1.271,0,0,0-.5.257c-.092.078-.173.169-.27.241a.867.867,0,0,1-.4.161.9.9,0,0,1-.188.007.889.889,0,0,1-.289-.069h0a.86.86,0,0,1-.082-.041.7.7,0,0,1-.206-.176,1.049,1.049,0,0,1-.146-.378c.055-.108.118-.218.188-.328a4.2,4.2,0,0,1,.316-.434q.069-.083.138-.156a2.753,2.753,0,0,1,.211-.2,5.322,5.322,0,0,1,.594-.4,2.621,2.621,0,0,1,.737-.357,1.49,1.49,0,0,1,.258-.043,2.59,2.59,0,0,1,1.53.473c.035.022.075.057.063.1" transform="translate(-683.255 -360.556)" fill="#e29171"/>
      <path id="Path_1553" data-name="Path 1553" d="M771.635,401.269c-.135-.055-.27-.114-.408-.163a.513.513,0,0,0-.3-.031c-.024.006-.018.043.006.038a.558.558,0,0,1,.342.052l.348.14c.023.009.036-.027.013-.036" transform="translate(-740.924 -385.462)" fill="#9b5846"/>
      <path id="Path_1554" data-name="Path 1554" d="M761.49,411.344a.553.553,0,0,0-.5-.094c-.023.007-.017.045.006.038a.518.518,0,0,1,.473.087c.019.015.041-.016.022-.031" transform="translate(-731.373 -395.23)" fill="#9b5846"/>
      <path id="Path_1555" data-name="Path 1555" d="M773.4,386.755a2.21,2.21,0,0,1-.412-.12c-.023-.009-.036.027-.013.036a2.262,2.262,0,0,0,.421.122c.024,0,.028-.034,0-.038" transform="translate(-742.894 -371.593)" fill="#9b5846"/>
      <path id="Path_1556" data-name="Path 1556" d="M871.091,332.527a1.986,1.986,0,0,1,.21-1.051c.017-.035-.035-.065-.052-.03a2.047,2.047,0,0,0-.218,1.081c0,.039.063.039.06,0" transform="translate(-837.142 -318.538)" fill="#fff"/>
      <path id="Path_1557" data-name="Path 1557" d="M773.725,652.543q.428,1.274.8,2.567.18.635.346,1.274a4.378,4.378,0,0,1,.2,1.338c-.024.436-.135.863-.186,1.3s-.074.874-.09,1.312c-.033.909-.059,1.818-.088,2.727q-.05,1.559-.1,3.119c0,.039.059.039.06,0q.089-2.758.177-5.517c.015-.454.03-.908.072-1.361s.139-.895.193-1.345a6.459,6.459,0,0,0-.417-2.451q-.414-1.5-.911-2.975c-.012-.037-.071-.021-.058.016" transform="translate(-743.626 -627.124)" fill="#fff"/>
    </g>
  </g>
</svg>
