<svg id="Group_546" data-name="Group 546" xmlns="http://www.w3.org/2000/svg" xmlns:xlink="http://www.w3.org/1999/xlink" width="58.753" height="33.714" viewBox="0 0 58.753 33.714">
  <defs>
    <clipPath id="clip-path">
      <rect id="Rectangle_339" data-name="Rectangle 339" width="58.753" height="33.714" fill="none"/>
    </clipPath>
  </defs>
  <g id="Group_545" data-name="Group 545" clip-path="url(#clip-path)">
    <path id="Path_1558" data-name="Path 1558" d="M47.858,26.737H26.837a.911.911,0,0,1-.911-.911V.91A.911.911,0,0,1,26.837,0H47.858a.911.911,0,0,1,.911.911V25.826a.911.911,0,0,1-.911.911" transform="translate(-20.929 0.001)" fill="#4a0095"/>
    <path id="Path_1559" data-name="Path 1559" d="M53.508,8.207V30.719c0,.362-.191.657-.422.657H34.057c-.231,0-.422-.295-.422-.657V8.207c0-.362.191-.659.422-.659H53.086c.231,0,.422.3.422.659" transform="translate(-27.152 -6.093)" fill="#fff"/>
    <path id="Path_1560" data-name="Path 1560" d="M108,96.648a2.691,2.691,0,0,1,.566-1.271c.428-.413.947-.695.875-.346a5.5,5.5,0,0,1-.35.928l.806-.269a7.089,7.089,0,0,1,.9-.409.4.4,0,0,1,.522.15s.382-.128.558-.024.071.355.071.355.558-.024.375.416a5.336,5.336,0,0,1-1.76,1.508,8.459,8.459,0,0,1-1.713.518s-1.572-.611-.85-1.555" transform="translate(-87.035 -76.588)" fill="#f78f77"/>
    <path id="Path_1561" data-name="Path 1561" d="M118.074,100.925a.055.055,0,0,1-.022,0l-1.363-.626a.054.054,0,1,1,.045-.1l1.363.625a.054.054,0,0,1-.022.1" transform="translate(-94.173 -80.882)"/>
    <path id="Path_1562" data-name="Path 1562" d="M110.6,102.126a.054.054,0,0,1-.017-.1,1.079,1.079,0,0,0,.726-.536.581.581,0,0,0-.017-.453.054.054,0,1,1,.094-.051.679.679,0,0,1,.022.542,1.171,1.171,0,0,1-.793.6.052.052,0,0,1-.017,0" transform="translate(-89.24 -81.496)"/>
    <path id="Path_1563" data-name="Path 1563" d="M67.985,122.165l-.037.176h-3.58l1.179-.688Z" transform="translate(-51.962 -98.206)" fill="#ffa143"/>
    <path id="Path_1564" data-name="Path 1564" d="M67.836,122.582v1.33H63.484l.17-1.147s2.829-1.191,4.182-.183" transform="translate(-51.248 -98.629)" fill="#ffa143"/>
    <path id="Path_1565" data-name="Path 1565" d="M198.957,27.277H177.932a.909.909,0,0,1-.909-.909V1.577a.909.909,0,0,1,.909-.909h21.025a.909.909,0,0,1,.909.909V26.368a.909.909,0,0,1-.909.909" transform="translate(-142.904 -0.539)" fill="#4a0095"/>
    <path id="Path_1566" data-name="Path 1566" d="M204.605,9.053v22.4c0,.362-.189.655-.422.655H185.156c-.233,0-.422-.293-.422-.655V9.053c0-.36.189-.655.422-.655h19.027c.233,0,.422.295.422.655" transform="translate(-149.129 -6.779)" fill="#fff"/>
    <path id="Path_1567" data-name="Path 1567" d="M227.437,60.663a1.9,1.9,0,0,0-.624.958l-.054.48a1.467,1.467,0,0,0-.89,1.044,1.25,1.25,0,0,0,.484,1.51l5.934.641a1.878,1.878,0,0,0,.558-1.593,1.712,1.712,0,0,0-.714-1.295,2.339,2.339,0,0,0-.223-1.266,1.34,1.34,0,0,0-1.119-.739Z" transform="translate(-182.287 -48.761)" fill="#4a0095"/>
    <path id="Path_1568" data-name="Path 1568" d="M196.358,8.4c-.22,9.344-7.567,12.561-11.624,13.626V9.053c0-.36.189-.655.422-.655Z" transform="translate(-149.129 -6.779)" fill="#ffd300"/>
    <path id="Path_1569" data-name="Path 1569" d="M126.841,99.58c1.089-.2,1.886-.825,1.781-1.385s-1.074-.848-2.162-.643-1.886.825-1.781,1.385,1.074.848,2.163.643" transform="translate(-100.641 -78.697)" fill="#51d42f"/>
    <path id="Path_1570" data-name="Path 1570" d="M119.63,104.361a.053.053,0,0,1-.052-.044c-.247-1.52,2.446-2.052,2.56-2.074a.052.052,0,0,1,.062.042.053.053,0,0,1-.042.062c-.027.005-2.706.533-2.476,1.953a.053.053,0,0,1-.044.061h-.008" transform="translate(-96.518 -82.536)" fill="#507849"/>
    <path id="Path_1571" data-name="Path 1571" d="M76.561,91.345a8.9,8.9,0,0,0,1.929,2.264,2.692,2.692,0,0,0,2.722-.353l2.227,2.711a7.363,7.363,0,0,1-7.369,1.158c-3.255-1.2.491-5.78.491-5.78" transform="translate(-60.335 -73.74)" fill="#ff413c"/>
    <path id="Path_1572" data-name="Path 1572" d="M60.935,95.481s.977-7.1-1.1-7.785a6.142,6.142,0,0,0-5.144.325l.567,7.325Z" transform="translate(-44.153 -70.482)" fill="#ff413c"/>
    <path id="Path_1573" data-name="Path 1573" d="M67.305,81.493l-.074,1.168a1.391,1.391,0,0,0,.988.481,1.526,1.526,0,0,0,.784,0l-.043-.6-.042-.584-1.381-.4Z" transform="translate(-54.273 -65.786)" fill="#f78f77"/>
    <path id="Path_1574" data-name="Path 1574" d="M68.816,81.857a.434.434,0,0,0,.029.131,1.765,1.765,0,0,0,1.409.945l-.061-.659Z" transform="translate(-55.553 -66.08)"/>
    <path id="Path_1575" data-name="Path 1575" d="M66.055,66.128a5.226,5.226,0,0,1,.222,2.62c-.346.9-1.177.679-1.665.453a1.679,1.679,0,0,1-.694-.558.76.76,0,0,1-.516-1.4.745.745,0,0,1,.583.134l-.207-.5s1.283-2.339,2.277-.749" transform="translate(-50.885 -52.936)" fill="#f78f77"/>
    <path id="Path_1576" data-name="Path 1576" d="M76.791,75.935a.056.056,0,0,1-.021,0,.054.054,0,0,1-.029-.071.847.847,0,0,0-.072-.647.054.054,0,0,1,.093-.053.942.942,0,0,1,.078.742.054.054,0,0,1-.05.033" transform="translate(-61.886 -60.653)"/>
    <path id="Path_1577" data-name="Path 1577" d="M65.326,76.3a.054.054,0,0,1-.043-.021l-.4-.519a.054.054,0,0,1,.085-.066l.4.519a.054.054,0,0,1-.043.086" transform="translate(-52.368 -61.089)"/>
    <path id="Path_1578" data-name="Path 1578" d="M64.609,77.5a.054.054,0,0,1,0-.107l.315-.016a.056.056,0,0,1,.056.051.054.054,0,0,1-.051.056l-.314.016Z" transform="translate(-52.113 -62.465)"/>
    <path id="Path_1579" data-name="Path 1579" d="M85.61,103.486a.054.054,0,0,1-.054-.053c-.015-1.069-.143-2.831-.144-2.848a.054.054,0,1,1,.107-.008c0,.018.129,1.782.145,2.855a.054.054,0,0,1-.053.054Z" transform="translate(-68.95 -81.152)" fill="#ffa143"/>
    <path id="Path_1580" data-name="Path 1580" d="M72.366,71.585a.054.054,0,0,1-.045-.083.372.372,0,0,1,.416-.119.054.054,0,0,1,.035.067.053.053,0,0,1-.067.035c-.008,0-.2-.062-.293.075a.053.053,0,0,1-.045.024" transform="translate(-58.375 -57.609)"/>
    <path id="Path_1581" data-name="Path 1581" d="M77.464,71.252a.054.054,0,0,1-.039-.017.31.31,0,0,0-.192-.1.144.144,0,0,0-.107.059.054.054,0,0,1-.082-.069.247.247,0,0,1,.187-.1.42.42,0,0,1,.273.133.053.053,0,0,1,0,.076.052.052,0,0,1-.036.014" transform="translate(-62.184 -57.339)"/>
    <path id="Path_1582" data-name="Path 1582" d="M78.255,74.056A.054.054,0,0,1,78.2,74l-.015-.311a.054.054,0,0,1,.051-.056.055.055,0,0,1,.056.051l.014.311a.054.054,0,0,1-.051.056Z" transform="translate(-63.117 -59.445)"/>
    <path id="Path_1583" data-name="Path 1583" d="M73.92,74.18a.054.054,0,0,1-.054-.05l-.02-.31a.054.054,0,0,1,.05-.057.053.053,0,0,1,.057.05l.02.31a.054.054,0,0,1-.05.057Z" transform="translate(-59.613 -59.545)"/>
    <path id="Path_1584" data-name="Path 1584" d="M65.066,65a1.833,1.833,0,0,0,1.106-.761,1.569,1.569,0,0,0,.256-.836,1.554,1.554,0,0,1,.6.489,1.947,1.947,0,0,1,.21.452,2.855,2.855,0,0,0-.013-.862,1.539,1.539,0,0,0-1.731-.795c-1.382.276-1.613,2.061-.425,2.313" transform="translate(-51.906 -50.573)" fill="#4a0095"/>
    <path id="Path_1585" data-name="Path 1585" d="M68.229,87.877a2.36,2.36,0,0,1-1.7-.533.054.054,0,0,1,.082-.069c.518.614,1.962.482,1.977.481a.053.053,0,0,1,.059.048.054.054,0,0,1-.048.059c-.018,0-.16.015-.364.015" transform="translate(-53.692 -70.438)" fill="#ffa143"/>
    <path id="Path_1586" data-name="Path 1586" d="M271.963,166.675h-7.088a.34.34,0,0,1-.34-.34v-1.258a.34.34,0,0,1,.34-.34h7.088a.34.34,0,0,1,.34.34v1.258a.34.34,0,0,1-.34.34" transform="translate(-213.55 -132.985)" fill="#50d42f"/>
    <path id="Path_1587" data-name="Path 1587" d="M210.541,127.682h-2.147a5.832,5.832,0,0,1,.389-.894l1.671.376Z" transform="translate(-168.229 -102.351)" fill="#ff9c85"/>
    <path id="Path_1588" data-name="Path 1588" d="M71.032,113.734a15.353,15.353,0,0,1,2.687-.568c.338.095,1.646,1.177,1.565,1.438s-.382.187-.382.187.283.188.175.367-.45.109-.45.109.238.144-.07.263a2.566,2.566,0,0,1-1.134-.188,2.026,2.026,0,0,1-1.331.368,2.2,2.2,0,0,1-1.1-.248Z" transform="translate(-57.311 -91.347)" fill="#f78f77"/>
    <path id="Path_1589" data-name="Path 1589" d="M86.758,117.105a.052.052,0,0,1-.038-.016l-.92-.914a.054.054,0,0,1,.076-.076l.92.914a.053.053,0,0,1,0,.076.053.053,0,0,1-.038.016" transform="translate(-69.25 -93.71)"/>
    <path id="Path_1590" data-name="Path 1590" d="M84.9,119.742a.053.053,0,0,1-.036-.014l-.965-.891a.054.054,0,1,1,.073-.079l.964.891a.054.054,0,0,1-.036.093" transform="translate(-67.716 -95.858)"/>
    <rect id="Rectangle_335" data-name="Rectangle 335" width="20.615" height="1.49" transform="translate(35.161 6.382)" fill="#4a0095"/>
    <rect id="Rectangle_336" data-name="Rectangle 336" width="1.564" height="6.147" transform="translate(44.781 1.108)" fill="#4a0095"/>
    <path id="Path_1591" data-name="Path 1591" d="M7.428,155.99H.34a.34.34,0,0,1-.34-.34v-1.258a.34.34,0,0,1,.34-.34H7.428a.34.34,0,0,1,.34.34v1.258a.34.34,0,0,1-.34.34" transform="translate(0 -124.36)" fill="#ffd300"/>
    <path id="Path_1592" data-name="Path 1592" d="M28.741,166.806H21.653a.34.34,0,0,1-.34-.34v-1.258a.34.34,0,0,1,.34-.34h7.088a.34.34,0,0,1,.34.34v1.258a.34.34,0,0,1-.34.34" transform="translate(-17.205 -133.091)" fill="#ff403b"/>
    <path id="Path_1593" data-name="Path 1593" d="M53.5,8.093v6.759H33.63V8.093c0-.36.191-.655.422-.655H53.081c.231,0,.422.295.422.655" transform="translate(-27.148 -6.004)" fill="#50d42f"/>
    <path id="Path_1594" data-name="Path 1594" d="M56.657,14.284H39.026a.072.072,0,0,1,0-.145h17.63a.072.072,0,1,1,0,.145" transform="translate(-31.446 -11.414)" fill="#f4e0d7"/>
    <path id="Path_1595" data-name="Path 1595" d="M56.775,23.263H39.144a.072.072,0,0,1,0-.145H56.775a.072.072,0,0,1,0,.145" transform="translate(-31.541 -18.662)" fill="#f4e0d7"/>
    <path id="Path_1596" data-name="Path 1596" d="M56.657,32.242H39.026a.072.072,0,0,1,0-.145h17.63a.072.072,0,1,1,0,.145" transform="translate(-31.446 -25.911)" fill="#f4e0d7"/>
    <rect id="Rectangle_337" data-name="Rectangle 337" width="20.615" height="1.564" transform="translate(6.016 6.701)" fill="#4a0095"/>
    <rect id="Rectangle_338" data-name="Rectangle 338" width="1.564" height="6.452" transform="translate(15.636 1.165)" fill="#4a0095"/>
    <path id="Path_1597" data-name="Path 1597" d="M101.6,73.439c.862,1.127,1.091,2.4.512,2.844s-1.749-.111-2.611-1.238-1.091-2.4-.512-2.844,1.749.111,2.611,1.238" transform="translate(-79.654 -58.162)" fill="#51d42f"/>
    <path id="Path_1598" data-name="Path 1598" d="M97.518,100.042c-1.089-.2-1.886-.825-1.781-1.385s1.074-.848,2.163-.643,1.886.825,1.781,1.385-1.074.848-2.163.643" transform="translate(-77.277 -79.07)" fill="#51d42f"/>
    <path id="Path_1599" data-name="Path 1599" d="M110.638,89.213h-.012a.053.053,0,0,1-.039-.064c.69-2.918-2.379-5.871-2.41-5.9a.053.053,0,1,1,.072-.077c.032.03,3.144,3.024,2.441,6a.053.053,0,0,1-.052.041" transform="translate(-87.313 -67.129)" fill="#507849"/>
    <path id="Path_1600" data-name="Path 1600" d="M125.608,80.116c1.08-1.08,2.4-1.5,2.96-.949s.13,1.881-.949,2.96-2.4,1.5-2.96.949-.13-1.88.949-2.96" transform="translate(-100.436 -63.712)" fill="#51d42f"/>
    <path id="Path_1601" data-name="Path 1601" d="M110.271,104.823a.054.054,0,0,1-.052-.061c.231-1.419-2.449-1.948-2.476-1.953a.053.053,0,0,1-.042-.062.052.052,0,0,1,.062-.042c.115.022,2.808.554,2.56,2.074a.053.053,0,0,1-.052.044" transform="translate(-86.943 -82.909)" fill="#507849"/>
    <path id="Path_1602" data-name="Path 1602" d="M121.747,90.107h-.01a.053.053,0,0,1-.042-.062,9.53,9.53,0,0,1,3.213-5.194.053.053,0,1,1,.064.084,9.417,9.417,0,0,0-3.173,5.13.053.053,0,0,1-.052.043" transform="translate(-98.239 -68.488)" fill="#507849"/>
    <path id="Path_1603" data-name="Path 1603" d="M115.134,114.405h-2.47a.255.255,0,0,1-.259-.22l-.378-3.6a.251.251,0,0,1,.259-.268h3.226a.251.251,0,0,1,.259.268l-.378,3.6a.255.255,0,0,1-.259.22" transform="translate(-90.434 -89.056)" fill="#ffd300"/>
    <path id="Path_1604" data-name="Path 1604" d="M112.3,114.405h-2.47a.255.255,0,0,1-.259-.22l-.378-3.6a.251.251,0,0,1,.259-.268h3.226a.251.251,0,0,1,.259.268l-.378,3.6a.255.255,0,0,1-.259.22" transform="translate(-88.144 -89.056)" fill="#ffd300"/>
    <path id="Path_1605" data-name="Path 1605" d="M225.808,108.047c.039-.125.059-.193.059-.193.367-1.287.655-2.365.809-3.059.8-3.612,5.39-1.949,5.39-1.949l1.644,1.208-.247,2.789s.019.152.049.4c.025.208.059.488.094.8h-7.8Z" transform="translate(-182.287 -82.716)" fill="#ff413c"/>
    <path id="Path_1606" data-name="Path 1606" d="M255.274,122.5s-1.409.947-1.329,2.116.5,1.357.7,1.384a.715.715,0,0,0,.282,0,.726.726,0,0,0,.457.134.441.441,0,0,0,.336-.2,1.753,1.753,0,0,0,.591.04.71.71,0,0,0,.336-.43v-.82a.428.428,0,0,0,.376-.175c.375-.495.067-1.787.067-1.787s-1.5-.656-1.816-.262" transform="translate(-204.998 -98.785)" fill="#f78f77"/>
    <path id="Path_1607" data-name="Path 1607" d="M212.115,88.142H210.5a10.788,10.788,0,0,1-1.76-1.006c.013-.468,2.5-7.4,3.268-8.3s3.81-1.341,5.863-.788,4.848,3.162,4.874,5.985a6.612,6.612,0,0,1-1.521,4.031l-1.677-.71-1.576-.667,1.14-1.747a10.118,10.118,0,0,1-3.336.532,16.768,16.768,0,0,1-2.868-.225l-.771,2.893Z" transform="translate(-168.512 -62.811)" fill="#ffd300"/>
    <path id="Path_1608" data-name="Path 1608" d="M229,93.961a.054.054,0,0,1-.052-.06,8.653,8.653,0,0,0,.1-1.349,1.9,1.9,0,0,0-.1-.29,5.036,5.036,0,0,1-.355-1.453,7.887,7.887,0,0,1,.25-2.211.054.054,0,0,1,.065-.038.053.053,0,0,1,.038.065A7.755,7.755,0,0,0,228.7,90.8a4.921,4.921,0,0,0,.348,1.424,2.048,2.048,0,0,1,.1.309,9.485,9.485,0,0,1-.1,1.382.053.053,0,0,1-.052.046" transform="translate(-184.525 -71.49)" fill="#b75542"/>
    <path id="Path_1609" data-name="Path 1609" d="M263.27,106.532a.057.057,0,0,1-.019,0,.053.053,0,0,1-.03-.069c.026-.066.639-1.61,1.772-1.943a.053.053,0,0,1,.03.1c-1.084.318-1.7,1.864-1.7,1.879a.053.053,0,0,1-.049.034" transform="translate(-212.486 -84.371)" fill="#b75542"/>
    <path id="Path_1610" data-name="Path 1610" d="M266.772,103.52a.051.051,0,0,1-.018,0,.053.053,0,0,1-.035-.051c0-.111.03-1.087.305-1.249a.187.187,0,0,1,.191,0,.241.241,0,0,1,.127.173c.073.362-.5,1.079-.529,1.109a.053.053,0,0,1-.041.02m.343-1.223a.069.069,0,0,0-.037.011c-.147.086-.224.6-.246.994.184-.251.451-.675.407-.89a.136.136,0,0,0-.073-.1.11.11,0,0,0-.05-.014" transform="translate(-215.313 -82.495)" fill="#b75542"/>
    <path id="Path_1611" data-name="Path 1611" d="M257.556,135.539a.053.053,0,0,1-.049-.032,4.078,4.078,0,0,1-.308-1.329.053.053,0,1,1,.106,0,4.052,4.052,0,0,0,.3,1.288.053.053,0,0,1-.028.069.053.053,0,0,1-.02,0" transform="translate(-207.628 -108.274)"/>
    <path id="Path_1612" data-name="Path 1612" d="M261.613,135.472a.053.053,0,0,1-.049-.033,4.67,4.67,0,0,1-.321-1.259.053.053,0,0,1,.05-.056.054.054,0,0,1,.055.05,4.643,4.643,0,0,0,.313,1.224.053.053,0,0,1-.029.069.056.056,0,0,1-.02,0" transform="translate(-210.892 -108.274)"/>
    <path id="Path_1613" data-name="Path 1613" d="M238.4,75.583a1.287,1.287,0,0,1,.544.331c.142.218-.124.791-.878,1.236a4.217,4.217,0,0,1-1.017.441,4.213,4.213,0,0,1-.572-1.068,1.528,1.528,0,0,1,.246-.933Z" transform="translate(-190.887 -61.015)" fill="#51d42f"/>
    <path id="Path_1614" data-name="Path 1614" d="M232.976,54.988a3.252,3.252,0,0,1-.5-1.142,2.136,2.136,0,0,1,4.057,1.331,1.533,1.533,0,0,1-2.026,1.277s-2.459-.33-1.533-1.466" transform="translate(-187.671 -42.34)" fill="#4a0095"/>
    <path id="Path_1615" data-name="Path 1615" d="M237.8,73.343l0,.033.1.624.08.489s-.028.119.54.013a1.391,1.391,0,0,0,.968-.505l-.107-1.157-.227.073Z" transform="translate(-191.966 -58.801)" fill="#f78f77"/>
    <path id="Path_1616" data-name="Path 1616" d="M237.82,73.689l.1.624a1.64,1.64,0,0,0,1.229-.954.481.481,0,0,0,.024-.131l-1.356.451Z" transform="translate(-191.984 -59.114)"/>
    <path id="Path_1617" data-name="Path 1617" d="M233.5,57.806a5.187,5.187,0,0,0-.147,2.606c.368.886,1.187.64,1.665.4a1.668,1.668,0,0,0,.673-.573.754.754,0,0,0,.472-1.4.738.738,0,0,0-.574.149l.191-.5s-1.339-2.285-2.281-.679" transform="translate(-188.268 -46.203)" fill="#f78f77"/>
    <path id="Path_1618" data-name="Path 1618" d="M235.889,67.584a.053.053,0,0,1-.048-.031.934.934,0,0,1,.056-.738.053.053,0,1,1,.094.049.841.841,0,0,0-.054.645.053.053,0,0,1-.026.07.056.056,0,0,1-.022,0" transform="translate(-190.34 -53.915)"/>
    <path id="Path_1619" data-name="Path 1619" d="M246.122,67.623a.051.051,0,0,1-.031-.01.053.053,0,0,1-.012-.074l.383-.526a.053.053,0,0,1,.085.062l-.383.527a.053.053,0,0,1-.043.022" transform="translate(-198.643 -54.08)"/>
    <path id="Path_1620" data-name="Path 1620" d="M247.164,68.835l-.314-.007a.053.053,0,0,1-.052-.054.058.058,0,0,1,.054-.052l.312.007a.053.053,0,0,1,0,.106" transform="translate(-199.232 -55.477)"/>
    <path id="Path_1621" data-name="Path 1621" d="M237.087,71.4a.173.173,0,0,1-.053-.008c-.136-.043-.215-.238-.223-.26a.053.053,0,0,1,.026-.067l.61-.294a.053.053,0,0,1,.073.064,1.232,1.232,0,0,1-.325.529.2.2,0,0,1-.109.035m-.157-.262c.029.056.08.135.136.153a.077.077,0,0,0,.071-.014.881.881,0,0,0,.236-.353Z" transform="translate(-191.166 -57.129)"/>
    <path id="Path_1622" data-name="Path 1622" d="M239.14,63.171a.053.053,0,0,1-.044-.023c-.092-.134-.284-.069-.293-.066a.052.052,0,0,1-.067-.032.053.053,0,0,1,.032-.067.37.37,0,0,1,.416.106.053.053,0,0,1-.044.083" transform="translate(-192.721 -50.824)"/>
    <path id="Path_1623" data-name="Path 1623" d="M233.377,63.078a.053.053,0,0,1-.04-.088.416.416,0,0,1,.267-.139.245.245,0,0,1,.188.091.053.053,0,1,1-.079.07.142.142,0,0,0-.108-.055.305.305,0,0,0-.188.1.052.052,0,0,1-.04.018" transform="translate(-188.354 -50.737)"/>
    <path id="Path_1624" data-name="Path 1624" d="M235.831,57.886a2.558,2.558,0,0,1-1.082-.754,2.179,2.179,0,0,1-.366-.736.679.679,0,0,1-.311.462,1.985,1.985,0,0,1-.41.142l-.1.5-.038-1.154a6.5,6.5,0,0,1,.75-.478,8.528,8.528,0,0,1,1.388.111c.078.063.571.938.571.938l.079.413Z" transform="translate(-188.512 -45.099)" fill="#4a0095"/>
    <path id="Path_1625" data-name="Path 1625" d="M238.893,65.137a.053.053,0,0,1-.048-.031c-.027-.058-.06-.091-.1-.1a.307.307,0,0,0-.216.09.053.053,0,1,1-.072-.077.411.411,0,0,1,.308-.117.252.252,0,0,1,.178.159.053.053,0,0,1-.026.07.056.056,0,0,1-.022,0" transform="translate(-192.483 -52.391)"/>
    <path id="Path_1626" data-name="Path 1626" d="M233.955,65.066a.055.055,0,0,1-.019,0,.053.053,0,0,1-.031-.068c.046-.119.106-.182.18-.188.126-.007.207.141.217.158a.053.053,0,0,1-.092.052c-.025-.044-.078-.106-.117-.1s-.061.047-.089.12a.053.053,0,0,1-.05.034" transform="translate(-188.821 -52.315)"/>
    <path id="Path_1627" data-name="Path 1627" d="M239.213,76.007s-.812.766-1.288.77-.409-.391-.409-.391l.079.913.42.138,1.05-.423.59-.66Z" transform="translate(-191.735 -61.358)" fill="#51d42f"/>
    <path id="Path_1628" data-name="Path 1628" d="M235.526,82.893a2.725,2.725,0,0,1,.429,1.252,3.48,3.48,0,0,1-.371,1.624,3.792,3.792,0,0,1-.806-1.416,3.653,3.653,0,0,1,.231-1.474,7,7,0,0,0-.4,1.183c-.08.449-.19,1.026-.19,1.026a2.2,2.2,0,0,1-.406-1.252,1.621,1.621,0,0,1,.756-1.126Z" transform="translate(-188.908 -66.768)" fill="#51d42f"/>
    <path id="Path_1631" data-name="Path 1631" d="M197.97,118.334a5.731,5.731,0,0,1,4.861-1.028c2.848.707,2.76,2.585,2.76,2.585h-7.386Z" transform="translate(-159.814 -94.56)" fill="#4a0095"/>
    <path id="Path_1632" data-name="Path 1632" d="M224.862,129.831s-1.133.321-.31.45a7.213,7.213,0,0,0,2.256-.263l-1-.337Z" transform="translate(-181.031 -104.687)" fill="#4a0095"/>
    <path id="Path_1633" data-name="Path 1633" d="M234.023,126.511s2.129.588,1.685,4.838c-.381,3.641-2.134,3.062-1.542,1.5.54-1.425.79-4.84-.258-5.8s.115-.534.115-.534" transform="translate(-188.472 -102.051)" fill="#4a0095"/>
    <path id="Path_1634" data-name="Path 1634" d="M192.593,120.821c0,.666-.755,1.207-1.686,1.207s-1.686-.54-1.686-1.207.755-1.207,1.686-1.207,1.686.54,1.686,1.207" transform="translate(-152.751 -96.56)" fill="#4a0095"/>
    <path id="Path_1635" data-name="Path 1635" d="M191.326,129.158s-1.326.125-.825.473a4.714,4.714,0,0,0,1.61,0,10.208,10.208,0,0,0,1.9-.074c.671-.136-.215-.285-1.211-.4a4.858,4.858,0,0,0-1.478,0" transform="translate(-153.694 -104.224)" fill="#4a0095"/>
    <path id="Path_1636" data-name="Path 1636" d="M189.673,117.769a6.948,6.948,0,0,1,.705-1.461c.161-.042.45.809.45.809Z" transform="translate(-153.116 -93.891)" fill="#4a0095"/>
    <path id="Path_1637" data-name="Path 1637" d="M200.828,117.769a6.958,6.958,0,0,0-.705-1.461c-.161-.042-.45.809-.45.809Z" transform="translate(-161.189 -93.891)" fill="#4a0095"/>
    <path id="Path_1638" data-name="Path 1638" d="M192.883,124.194a.311.311,0,0,1-.231-.1.053.053,0,0,1,.082-.066c.005.007.121.138.347-.011a.053.053,0,0,1,.058.088.469.469,0,0,1-.257.088" transform="translate(-155.512 -100.107)" fill="#b75542"/>
    <path id="Path_1639" data-name="Path 1639" d="M199.921,124.194a.469.469,0,0,1-.257-.088.053.053,0,1,1,.058-.088c.227.15.343.016.348.011a.053.053,0,0,1,.082.066.311.311,0,0,1-.231.1" transform="translate(-161.162 -100.108)" fill="#b75542"/>
    <path id="Path_1640" data-name="Path 1640" d="M196.73,126.468s.3-.008.3,0c0,.042-.1.151-.149.151-.07,0-.151-.151-.151-.151" transform="translate(-158.813 -102.09)" fill="#b75542"/>
    <path id="Path_1641" data-name="Path 1641" d="M201.1,118.574a.053.053,0,0,1-.053-.05.791.791,0,0,0-.093-.394,1.164,1.164,0,0,0-.125.31.052.052,0,0,1-.065.037.053.053,0,0,1-.037-.065c.028-.1.1-.347.207-.381a.091.091,0,0,1,.086.015c.11.085.13.408.133.472a.053.053,0,0,1-.05.055Z" transform="translate(-162.036 -95.279)" fill="#b75542"/>
    <path id="Path_1642" data-name="Path 1642" d="M192.447,118.74a.053.053,0,0,1-.053-.055c0-.064.024-.387.134-.472a.09.09,0,0,1,.086-.015c.1.034.178.278.207.381a.053.053,0,0,1-.1.028.755.755,0,0,0-.138-.309,1.009,1.009,0,0,0-.08.392.053.053,0,0,1-.053.05" transform="translate(-155.313 -95.412)" fill="#b75542"/>
    <path id="Path_1643" data-name="Path 1643" d="M199.612,62.088a.072.072,0,0,1-.027-.139,10.8,10.8,0,0,0,3.091-1.9.072.072,0,1,1,.1.1,10.735,10.735,0,0,1-3.141,1.933.078.078,0,0,1-.027.005" transform="translate(-161.081 -48.458)" fill="#f4e0d7"/>
    <path id="Path_1644" data-name="Path 1644" d="M61.344,64.575a2.758,2.758,0,0,1-.492-1.009.523.523,0,0,1,.342-.532s-.1-.615,1.119-.988c1.147-.35,1.953.024,2.05.241a2.12,2.12,0,0,1,.1.658l-.93-.39-.815.054L62.283,64.4s.116.407.051.375-.4-.7-.991-.2" transform="translate(-49.124 -49.972)" fill="#4a0095"/>
    <path id="Path_1645" data-name="Path 1645" d="M74.284,80.488a.35.35,0,0,1-.33-.243.054.054,0,0,1,.1-.032.241.241,0,0,0,.278.164.052.052,0,0,1,.062.044.054.054,0,0,1-.044.062.425.425,0,0,1-.068.006" transform="translate(-59.698 -64.722)"/>
    <path id="Path_1646" data-name="Path 1646" d="M42.609,94l.945,3.024s-4.768,4.217-7.033,1.258,1.756-7.905,3.33-8.526.7,4.679.7,4.679Z" transform="translate(-28.936 -72.413)" fill="#ff413c"/>
    <path id="Path_1647" data-name="Path 1647" d="M51.458,112.923a.054.054,0,0,1-.022-.1,10.89,10.89,0,0,1,3.239-.538.054.054,0,1,1,0,.107,11.032,11.032,0,0,0-3.2.528.056.056,0,0,1-.022,0" transform="translate(-41.497 -90.642)" fill="#ffa143"/>
    <path id="Path_1648" data-name="Path 1648" d="M53.324,111.183c-.357-.023-1.514-.117-1.587-.349a.124.124,0,0,1,.057-.139c.356-.287,1.435.317,1.557.387a.054.054,0,0,1-.027.1m-1.263-.459a.317.317,0,0,0-.2.055c-.02.016-.022.024-.022.024a2.963,2.963,0,0,0,1.233.253,2.8,2.8,0,0,0-1.011-.332" transform="translate(-41.762 -89.299)" fill="#ffa143"/>
  </g>
</svg>
