<svg xmlns="http://www.w3.org/2000/svg" width="21.028" height="19.795" viewBox="0 0 21.028 19.795">
  <g id="Group_579" data-name="Group 579" transform="translate(-78.683 -760.997)">
    <path id="Path_1906" data-name="Path 1906" d="M.409,6.97h19.2a.407.407,0,0,0,.182-.771L10.228.065a.407.407,0,0,0-.439,0L.189,6.221a.407.407,0,0,0,.22.75m9.6-6.08,8.211,5.265H1.8Z" transform="translate(79.192 761.51)" fill="gray" stroke="gray" stroke-width="1"/>
    <path id="Path_1907" data-name="Path 1907" d="M51.116,187.618a.407.407,0,1,0,0-.814H34.733a.407.407,0,1,0,0,.814h.785v8.123h-.785a.407.407,0,1,0,0,.814H51.116a.407.407,0,1,0,0-.814h-.807v-8.123Zm-14.055,8.123h-.729v-8.123h.729Zm2.6,0H37.875v-8.123h1.787Zm1.543,0h-.729v-8.123h.729Zm2.6,0H42.02v-8.123h1.788Zm1.543,0h-.729v-8.123h.729Zm2.6,0H46.164v-8.123h1.787Zm1.543,0h-.729v-8.123h.729Z" transform="translate(46.289 582.44)" fill="gray" stroke="gray" stroke-width="0.5"/>
    <path id="Path_1908" data-name="Path 1908" d="M19.986,434.441a.407.407,0,0,0-.407-.407H.407a.407.407,0,0,0,0,.814H19.579a.407.407,0,0,0,.407-.407" transform="translate(79.194 345.444)" fill="gray" stroke="gray" stroke-width="1"/>
  </g>
</svg>
