<svg xmlns="http://www.w3.org/2000/svg" width="19.04" height="21.738" viewBox="0 0 19.04 21.738">
  <g id="Group_584" data-name="Group 584" transform="translate(-250.592 -762.945)">
    <path id="Path_1909" data-name="Path 1909" d="M132.269,214.348h.279a.305.305,0,0,0,.3-.3v-.279a.306.306,0,0,0-.3-.3h-.279a.305.305,0,0,0-.3.3v.279a.3.3,0,0,0,.3.3" transform="translate(124.755 559.159)" fill="#707070"/>
    <path id="Path_1910" data-name="Path 1910" d="M159.71,241.79h.279a.305.305,0,0,0,.3-.3v-.279a.305.305,0,0,0-.3-.3h-.279a.3.3,0,0,0-.3.3v.279a.3.3,0,0,0,.3.3" transform="translate(98.505 532.908)" fill="#707070"/>
    <path id="Path_1911" data-name="Path 1911" d="M159.71,214.348h.279a.3.3,0,0,0,.3-.3v-.279a.305.305,0,0,0-.3-.3h-.279a.305.305,0,0,0-.3.3v.279a.3.3,0,0,0,.3.3" transform="translate(98.505 559.159)" fill="#707070"/>
    <path id="Path_1912" data-name="Path 1912" d="M132.269,241.79h.279a.305.305,0,0,0,.3-.3v-.279a.305.305,0,0,0-.3-.3h-.279a.305.305,0,0,0-.3.3v.279a.305.305,0,0,0,.3.3" transform="translate(124.755 532.908)" fill="#707070"/>
    <path id="Path_1913" data-name="Path 1913" d="M280.335,295.393h-.307a.335.335,0,0,0-.335.335v.307a.335.335,0,0,0,.335.334h.307a.335.335,0,0,0,.335-.334v-.307a.335.335,0,0,0-.335-.335" transform="translate(-16.562 480.783)" fill="#707070"/>
    <path id="Path_1914" data-name="Path 1914" d="M310.2,326.548h.307a.336.336,0,0,0,.335-.334v-.307a.336.336,0,0,0-.335-.334H310.2a.336.336,0,0,0-.334.334v.307a.336.336,0,0,0,.334.334" transform="translate(-45.428 451.913)" fill="#707070"/>
    <path id="Path_1915" data-name="Path 1915" d="M310.2,296.368h.307a.336.336,0,0,0,.335-.334v-.307a.336.336,0,0,0-.335-.335H310.2a.336.336,0,0,0-.334.335v.307a.335.335,0,0,0,.334.334" transform="translate(-45.428 480.784)" fill="#707070"/>
    <path id="Path_1916" data-name="Path 1916" d="M280.335,325.573h-.307a.335.335,0,0,0-.335.334v.307a.336.336,0,0,0,.335.334h.307a.336.336,0,0,0,.335-.334v-.307a.335.335,0,0,0-.335-.334" transform="translate(-16.562 451.913)" fill="#707070"/>
    <path id="Path_1917" data-name="Path 1917" d="M83.868,332.192h-.246a.269.269,0,0,0-.268.268v.246a.269.269,0,0,0,.268.268h.246a.269.269,0,0,0,.268-.268v-.246a.269.269,0,0,0-.268-.268" transform="translate(171.255 445.581)" fill="#707070"/>
    <path id="Path_1918" data-name="Path 1918" d="M107.8,357.15h.246a.269.269,0,0,0,.268-.268v-.246a.269.269,0,0,0-.268-.268H107.8a.269.269,0,0,0-.268.268v.246a.269.269,0,0,0,.268.268" transform="translate(148.131 422.454)" fill="#707070"/>
    <path id="Path_1919" data-name="Path 1919" d="M107.8,332.973h.246a.269.269,0,0,0,.268-.268v-.246a.269.269,0,0,0-.268-.268H107.8a.269.269,0,0,0-.268.268v.246a.269.269,0,0,0,.268.268" transform="translate(148.131 445.582)" fill="#707070"/>
    <path id="Path_1920" data-name="Path 1920" d="M83.868,356.369h-.246a.268.268,0,0,0-.268.268v.246a.269.269,0,0,0,.268.268h.246a.269.269,0,0,0,.268-.268v-.246a.269.269,0,0,0-.268-.268" transform="translate(171.255 422.454)" fill="#707070"/>
    <path id="Path_1921" data-name="Path 1921" d="M.213,15.853l8.693,5.019a.427.427,0,0,0,.427,0l8.693-5.019a.427.427,0,0,0,.213-.369V5.446a.427.427,0,0,0-.213-.37L9.334.057a.427.427,0,0,0-.427,0L.213,5.076A.428.428,0,0,0,0,5.446V15.484a.428.428,0,0,0,.213.369M9.12,20.009,1.738,15.747l2.8-2.8,6.153,6.153Zm8.266-4.773-5.934,3.426L8.043,15.254l5.24-5.24,4.1,4.1ZM.854,5.692,9.12.92l8.266,4.772v7.219l-3.8-3.8a.427.427,0,0,0-.6,0l-1.36,1.36L7.069,5.916a.439.439,0,0,0-.6,0L.854,11.528Zm0,7.043L6.767,6.821l4.251,4.251L7.44,14.651l-2.6-2.6a.427.427,0,0,0-.6,0L.973,15.306l-.119-.069Z" transform="translate(250.992 763.354)" fill="#707070" stroke="#707070" stroke-width="0.8"/>
  </g>
</svg>
