<svg xmlns="http://www.w3.org/2000/svg" width="20.388" height="20.388" viewBox="0 0 20.388 20.388">
  <g id="Group_554" data-name="Group 554" transform="translate(0.1 0.1)">
    <g id="Group_555" data-name="Group 555">
      <path id="Path_1662" data-name="Path 1662" d="M73.509,63.733c.073-.129.141-.264.2-.4.026-.062.053-.123.076-.185.059-.15.111-.3.155-.455a4.151,4.151,0,0,0,.111-.466,1.261,1.261,0,0,0,.026-.153c.009-.044.015-.091.02-.138s.015-.12.02-.179c.009-.082.015-.167.018-.249s.006-.153.006-.229,0-.153-.006-.229-.009-.167-.018-.249c-.006-.059-.012-.12-.02-.179,0-.026-.006-.056-.012-.085a.325.325,0,0,0-.009-.053,1.3,1.3,0,0,0-.026-.153,4.461,4.461,0,0,0-.111-.466c-.044-.153-.1-.305-.155-.455-.023-.062-.05-.123-.076-.185a5.605,5.605,0,0,0-3.355-2.945A5.5,5.5,0,0,0,68.573,56a5.623,5.623,0,0,0-5.138,3.226c-.026.062-.053.123-.076.185-.059.15-.111.3-.155.455a4.467,4.467,0,0,0-.111.466,1.257,1.257,0,0,0-.026.153.327.327,0,0,0-.009.053c-.006.029-.009.059-.012.085-.009.059-.015.12-.02.179-.009.082-.015.167-.018.249S63,61.2,63,61.278s0,.153.006.229.009.167.018.249c.006.059.012.12.02.179s.012.094.02.138a1.291,1.291,0,0,0,.026.153,4.13,4.13,0,0,0,.111.466c.044.153.1.305.155.455.023.062.05.123.076.185.044.1.091.194.141.287a5.722,5.722,0,0,0,9.934.114Z" transform="translate(-58.479 -51.905)" fill="none" stroke="#707070" stroke-width="2"/>
      <path id="Path_1663" data-name="Path 1663" d="M18.014,6.878h-.007A7.21,7.21,0,0,0,10.815,0H9.373A7.211,7.211,0,0,0,2.181,6.875H2.174a2.449,2.449,0,0,0-1.431.714A2.485,2.485,0,0,0,0,9.373,2.526,2.526,0,0,0,2.524,11.9H2.9V9.871c-.011-.166-.018-.332-.018-.5s.007-.328.018-.49V6.85A6.49,6.49,0,0,1,9.373.721h1.442A6.49,6.49,0,0,1,17.286,6.85V8.883c.011.162.018.328.018.49s-.007.332-.018.5V11.9H17.3v3.245a3.249,3.249,0,0,1-3.245,3.245h-1.8v-.721A.361.361,0,0,0,11.9,17.3H9.373a1.442,1.442,0,0,0,0,2.884H11.9a.361.361,0,0,0,.361-.361v-.721h1.8a3.968,3.968,0,0,0,3.966-3.966v-3.27a2.533,2.533,0,0,0,2.163-2.5,2.52,2.52,0,0,0-2.174-2.495Z" fill="gray" stroke="#707070" stroke-width="0.2"/>
    </g>
  </g>
</svg>
