<svg xmlns="http://www.w3.org/2000/svg" xmlns:xlink="http://www.w3.org/1999/xlink" width="136.63" height="79.279" viewBox="0 0 136.63 79.279">
  <defs>
    <clipPath id="clip-path">
      <rect id="Rectangle_455" data-name="Rectangle 455" width="121.365" height="79.279" fill="none"/>
    </clipPath>
    <clipPath id="clip-path-3">
      <rect id="Rectangle_380" data-name="Rectangle 380" width="92.356" height="0.794" fill="#fff"/>
    </clipPath>
    <clipPath id="clip-path-4">
      <rect id="Rectangle_387" data-name="Rectangle 387" width="3.196" height="0.855" fill="none"/>
    </clipPath>
    <clipPath id="clip-path-6">
      <rect id="Rectangle_393" data-name="Rectangle 393" width="3.302" height="0.855" fill="none"/>
    </clipPath>
    <clipPath id="clip-path-8">
      <rect id="Rectangle_398" data-name="Rectangle 398" width="3.302" height="0.854" fill="none"/>
    </clipPath>
    <clipPath id="clip-path-13">
      <rect id="Rectangle_415" data-name="Rectangle 415" width="3.303" height="0.854" fill="none"/>
    </clipPath>
    <clipPath id="clip-path-14">
      <rect id="Rectangle_417" data-name="Rectangle 417" width="3.303" height="0.855" fill="none"/>
    </clipPath>
    <clipPath id="clip-path-16">
      <rect id="Rectangle_423" data-name="Rectangle 423" width="3.581" height="0.854" fill="none"/>
    </clipPath>
    <clipPath id="clip-path-17">
      <rect id="Rectangle_425" data-name="Rectangle 425" width="3.581" height="0.855" fill="none"/>
    </clipPath>
    <clipPath id="clip-path-20">
      <rect id="Rectangle_435" data-name="Rectangle 435" width="3.447" height="0.855" fill="none"/>
    </clipPath>
    <clipPath id="clip-path-24">
      <rect id="Rectangle_446" data-name="Rectangle 446" width="2.83" height="2.922" fill="none"/>
    </clipPath>
    <clipPath id="clip-path-25">
      <rect id="Rectangle_447" data-name="Rectangle 447" width="2.831" height="2.922" fill="none"/>
    </clipPath>
    <clipPath id="clip-path-26">
      <rect id="Rectangle_456" data-name="Rectangle 456" width="17.453" height="17.314" fill="none"/>
    </clipPath>
    <clipPath id="clip-path-27">
      <rect id="Rectangle_461" data-name="Rectangle 461" width="9.81" height="9.912" fill="none"/>
    </clipPath>
    <clipPath id="clip-path-28">
      <rect id="Rectangle_463" data-name="Rectangle 463" width="12.719" height="8.657" fill="none"/>
    </clipPath>
    <clipPath id="clip-path-29">
      <rect id="Rectangle_462" data-name="Rectangle 462" width="0.925" height="3.753" fill="none"/>
    </clipPath>
  </defs>
  <g id="Group_773" data-name="Group 773" transform="translate(-191.866 -169.86)">
    <g id="Group_756" data-name="Group 756" transform="translate(198.226 169.86)">
      <g id="Mask_Group_755" data-name="Mask Group 755" clip-path="url(#clip-path)">
        <g id="Group_754" data-name="Group 754">
          <g id="Group_753" data-name="Group 753" clip-path="url(#clip-path)">
            <path id="Path_2191" data-name="Path 2191" d="M24.065,143.109S7.7,137.313,9.95,128.781c0,0,.968-1.675,3.6-.1,0,0-6.5-5.284-3.092-8.963,0,0,1.159-1.373,4.124.53,0,0-3.656-7.732.3-10.359,0,0,5.029-.944,6.185,8.993,0,0,5.766-7.049,4.245,6.356,0,0,1.412-2.173,3.18-1.219.979.3,5.291,4.03-3.093,17.259Z" transform="translate(-5.867 -68.092)" fill="#51d42f"/>
            <path id="Path_2192" data-name="Path 2192" d="M28.193,146.636a.31.31,0,0,1-.429-.09c-.35-.535-.679-1.1-.992-1.679l-.007-.013c-.08-.149-.157-.3-.234-.454-2.853-.44-6.782-3.185-8.9-4.8l-.135-.1a.31.31,0,1,1,.364-.5l.148.113c3.3,2.53,6.168,4.139,8.177,4.6a40.145,40.145,0,0,1-2.335-6.366.3.3,0,0,1-.033-.12q-.249-.9-.466-1.783c-2.149-1.461-4.758-3.742-4.784-3.765a.309.309,0,0,1,.385-.484l.022.018c.024.022,2.179,1.9,4.162,3.324a73.507,73.507,0,0,1-1.629-11.063.31.31,0,1,1,.618-.032,72.545,72.545,0,0,0,2.009,12.589,16.829,16.829,0,0,1,2.009-3.718,6.076,6.076,0,0,0,.621-1.029.31.31,0,0,1,.619,0c0,.275-.219.62-.726,1.376a13.723,13.723,0,0,0-2.214,4.526,39.495,39.495,0,0,0,2.284,6.231,10.511,10.511,0,0,1,2.157-5.915l.046-.06a.309.309,0,0,1,.5.363l-.057.076a9.969,9.969,0,0,0-2.029,6.762c.295.545.605,1.071.933,1.574a.31.31,0,0,1-.09.429" transform="translate(-10.766 -76.318)" fill="#fff"/>
            <path id="Path_2193" data-name="Path 2193" d="M18.936,169.789s-12.4,2.821-14.345-3.34c0,0-.056-1.416,2.187-1.468,0,0-6.09-.726-5.423-4.336,0,0,.18-1.3,2.759-1.286,0,0-5.291-3.354-3.872-6.527,0,0,2.742-2.554,7.348,3.143,0,0,.809-6.62,5.116,2.272,0,0,.022-1.9,1.49-2,.722-.2,4.853.422,4.844,11.892Z" transform="translate(0 -94.365)" fill="#ffd300"/>
            <path id="Path_2194" data-name="Path 2194" d="M22.11,171.816a.228.228,0,0,1-.3.112c-.426-.195-.85-.413-1.272-.651l-.01-.006c-.108-.061-.215-.126-.323-.189-1.938.845-5.444.684-7.387.51l-.124-.011a.227.227,0,0,1,.029-.452l.136.012a18.009,18.009,0,0,0,6.862-.354,29.413,29.413,0,0,1-3.937-3.025.223.223,0,0,1-.068-.062q-.505-.457-.987-.921a44.557,44.557,0,0,1-4.434-.457.227.227,0,0,1,.049-.45l.021,0c.023,0,2.092.321,3.877.427a53.816,53.816,0,0,1-5.34-6.208.227.227,0,1,1,.37-.262,53.174,53.174,0,0,0,6.172,7,12.357,12.357,0,0,1-.212-3.088,4.444,4.444,0,0,0-.019-.88.227.227,0,0,1,.383-.244c.11.168.107.47.089,1.136a10.052,10.052,0,0,0,.4,3.668,28.918,28.918,0,0,0,3.853,2.962,7.7,7.7,0,0,1-.981-4.505l0-.055a.227.227,0,0,1,.452.029l-.006.07a7.3,7.3,0,0,0,1.392,4.979c.4.222.794.426,1.194.609a.227.227,0,0,1,.112.3" transform="translate(-5.492 -98.999)" fill="#fff"/>
            <path id="Path_2195" data-name="Path 2195" d="M260.9,143.109s16.366-5.8,14.115-14.327c0,0-.968-1.675-3.6-.1,0,0,6.5-5.284,3.092-8.963,0,0-1.159-1.373-4.123.53,0,0,3.656-7.732-.3-10.359,0,0-5.029-.944-6.185,8.993,0,0-5.767-7.049-4.245,6.356,0,0-1.412-2.173-3.18-1.219-.979.3-5.291,4.03,3.093,17.259Z" transform="translate(-157.729 -68.092)" fill="#51d42f"/>
            <path id="Path_2196" data-name="Path 2196" d="M271.231,146.636a.311.311,0,0,0,.429-.09c.35-.535.679-1.1.992-1.679l.007-.013c.08-.149.157-.3.234-.454,2.853-.44,6.781-3.185,8.9-4.8l.135-.1a.31.31,0,1,0-.364-.5l-.148.113c-3.3,2.53-6.168,4.139-8.177,4.6a40.147,40.147,0,0,0,2.335-6.366.3.3,0,0,0,.033-.12q.25-.9.466-1.783a60.876,60.876,0,0,0,4.784-3.765.309.309,0,0,0-.385-.484l-.022.018c-.024.022-2.179,1.9-4.162,3.324a73.509,73.509,0,0,0,1.629-11.063.31.31,0,1,0-.618-.032,72.544,72.544,0,0,1-2.009,12.589,16.83,16.83,0,0,0-2.009-3.718,6.1,6.1,0,0,1-.621-1.029.31.31,0,0,0-.619,0c0,.275.219.62.725,1.376a13.724,13.724,0,0,1,2.214,4.526,39.489,39.489,0,0,1-2.284,6.231,10.511,10.511,0,0,0-2.157-5.915l-.046-.06a.309.309,0,0,0-.5.363l.058.076a9.971,9.971,0,0,1,2.029,6.762c-.295.545-.605,1.071-.933,1.574a.31.31,0,0,0,.09.429" transform="translate(-167.292 -76.318)" fill="#fff"/>
            <path id="Path_2197" data-name="Path 2197" d="M269.215,169.789s12.4,2.821,14.345-3.34c0,0,.057-1.416-2.187-1.468,0,0,6.09-.726,5.423-4.336,0,0-.18-1.3-2.76-1.286,0,0,5.291-3.354,3.872-6.527,0,0-2.742-2.554-7.349,3.143,0,0-.809-6.62-5.115,2.272,0,0-.023-1.9-1.49-2-.722-.2-4.853.422-4.844,11.892Z" transform="translate(-166.785 -94.365)" fill="#ffd300"/>
            <path id="Path_2198" data-name="Path 2198" d="M275.446,171.816a.228.228,0,0,0,.3.112c.426-.195.85-.413,1.271-.651l.009-.006c.108-.061.215-.126.323-.189,1.938.845,5.444.684,7.387.51l.124-.011a.227.227,0,1,0-.029-.452l-.136.012a18.009,18.009,0,0,1-6.862-.354,29.44,29.44,0,0,0,3.938-3.025.226.226,0,0,0,.067-.062q.505-.457.987-.921c1.9-.063,4.409-.452,4.435-.457a.227.227,0,0,0-.049-.45l-.021,0c-.023,0-2.091.321-3.877.427a53.817,53.817,0,0,0,5.34-6.208.227.227,0,1,0-.37-.262,53.142,53.142,0,0,1-6.172,7,12.338,12.338,0,0,0,.212-3.088,4.449,4.449,0,0,1,.019-.88.227.227,0,0,0-.382-.244c-.11.168-.107.47-.089,1.136a10.053,10.053,0,0,1-.4,3.668,28.9,28.9,0,0,1-3.853,2.962,7.7,7.7,0,0,0,.981-4.505l0-.055a.226.226,0,1,0-.452.029l.006.07a7.3,7.3,0,0,1-1.392,4.979c-.4.222-.794.426-1.194.609a.227.227,0,0,0-.112.3" transform="translate(-170.699 -98.999)" fill="#fff"/>
            <path id="Path_2199" data-name="Path 2199" d="M123.5,202.083H18.957a1.968,1.968,0,0,1,0-3.937H123.5a1.968,1.968,0,0,1,0,3.937" transform="translate(-10.529 -122.804)" fill="#ffd300"/>
            <path id="Path_2200" data-name="Path 2200" d="M120.706,0H42.118L33.423,12.541H129.4Z" transform="translate(-20.714 0)" fill="#ffd300"/>
            <rect id="Rectangle_377" data-name="Rectangle 377" width="92.356" height="38.179" transform="translate(14.52 35.992)" fill="#ff413c"/>
            <rect id="Rectangle_378" data-name="Rectangle 378" width="92.356" height="2.564" transform="translate(14.52 35.992)" fill="#ffd300"/>
            <g id="Group_686" data-name="Group 686" transform="translate(14.52 38.556)" opacity="0.15">
              <g id="Group_685" data-name="Group 685">
                <g id="Group_684" data-name="Group 684" clip-path="url(#clip-path-3)">
                  <rect id="Rectangle_379" data-name="Rectangle 379" width="92.356" height="0.794" transform="translate(0)" fill="#fff"/>
                </g>
              </g>
            </g>
            <rect id="Rectangle_381" data-name="Rectangle 381" width="83.104" height="23.451" transform="translate(18.319 12.541)" fill="#ff413c"/>
            <rect id="Rectangle_382" data-name="Rectangle 382" width="85.556" height="1.491" transform="translate(17.92 12.541)" fill="#51d42f"/>
            <path id="Path_2201" data-name="Path 2201" d="M128.231,194.33H34.593a1.171,1.171,0,0,1,0-2.341h93.638a1.171,1.171,0,0,1,0,2.341" transform="translate(-20.714 -118.988)" fill="#8846c9"/>
            <path id="Path_2202" data-name="Path 2202" d="M143.313,112.54h-26l-4.988,8.286H148.3Z" transform="translate(-69.616 -69.749)" fill="#8d4cce"/>
            <rect id="Rectangle_383" data-name="Rectangle 383" width="30.325" height="21.923" transform="translate(45.536 51.078)" fill="#51d42f"/>
            <path id="Path_2203" data-name="Path 2203" d="M58.52,127.627H52.626v-4.865a1.609,1.609,0,0,1,1.609-1.61h2.676a1.609,1.609,0,0,1,1.609,1.61Z" transform="translate(-32.616 -75.086)" fill="#fff"/>
            <path id="Path_2204" data-name="Path 2204" d="M88.643,127.627H82.749v-4.865a1.609,1.609,0,0,1,1.609-1.61h2.675a1.609,1.609,0,0,1,1.61,1.61Z" transform="translate(-51.285 -75.086)" fill="#fff"/>
            <path id="Path_2205" data-name="Path 2205" d="M58.52,155.772H52.626v-4.865a1.609,1.609,0,0,1,1.609-1.61h2.676a1.609,1.609,0,0,1,1.609,1.61Z" transform="translate(-32.616 -92.529)" fill="#fff"/>
            <path id="Path_2206" data-name="Path 2206" d="M88.643,155.772H82.749v-4.865a1.609,1.609,0,0,1,1.609-1.61h2.675a1.609,1.609,0,0,1,1.61,1.61Z" transform="translate(-51.285 -92.529)" fill="#8846c9"/>
            <rect id="Rectangle_384" data-name="Rectangle 384" width="6.605" height="0.855" transform="translate(19.732 52.541)" fill="#f26a40"/>
            <rect id="Rectangle_385" data-name="Rectangle 385" width="6.605" height="0.854" transform="translate(19.732 63.243)" fill="#f26a40"/>
            <g id="Group_689" data-name="Group 689" transform="translate(19.731 52.541)" opacity="0.15">
              <g id="Group_688" data-name="Group 688">
                <g id="Group_687" data-name="Group 687" clip-path="url(#clip-path-4)">
                  <rect id="Rectangle_386" data-name="Rectangle 386" width="3.196" height="0.855" transform="translate(0 0)"/>
                </g>
              </g>
            </g>
            <g id="Group_692" data-name="Group 692" transform="translate(19.731 63.243)" opacity="0.15">
              <g id="Group_691" data-name="Group 691">
                <g id="Group_690" data-name="Group 690" clip-path="url(#clip-path-4)">
                  <rect id="Rectangle_388" data-name="Rectangle 388" width="3.196" height="0.854" transform="translate(0 0)"/>
                </g>
              </g>
            </g>
            <rect id="Rectangle_390" data-name="Rectangle 390" width="6.605" height="0.855" transform="translate(31.109 52.541)" fill="#f26a40"/>
            <rect id="Rectangle_391" data-name="Rectangle 391" width="6.605" height="0.854" transform="translate(31.109 63.243)" fill="#f26a40"/>
            <g id="Group_695" data-name="Group 695" transform="translate(31.109 52.541)" opacity="0.15">
              <g id="Group_694" data-name="Group 694">
                <g id="Group_693" data-name="Group 693" clip-path="url(#clip-path-6)">
                  <rect id="Rectangle_392" data-name="Rectangle 392" width="3.302" height="0.855" transform="translate(0 0)"/>
                </g>
              </g>
            </g>
            <g id="Group_698" data-name="Group 698" transform="translate(31.109 63.243)" opacity="0.15">
              <g id="Group_697" data-name="Group 697">
                <g id="Group_696" data-name="Group 696" clip-path="url(#clip-path-6)">
                  <rect id="Rectangle_394" data-name="Rectangle 394" width="3.302" height="0.854" transform="translate(0 0)"/>
                </g>
              </g>
            </g>
            <path id="Path_2207" data-name="Path 2207" d="M66.56,47.9H60.666V43.039a1.609,1.609,0,0,1,1.609-1.61h2.676a1.609,1.609,0,0,1,1.609,1.61Z" transform="translate(-37.599 -25.676)" fill="#fff"/>
            <path id="Path_2208" data-name="Path 2208" d="M96.683,47.9H90.789V43.039a1.609,1.609,0,0,1,1.609-1.61h2.676a1.609,1.609,0,0,1,1.609,1.61Z" transform="translate(-56.268 -25.676)" fill="#fff"/>
            <path id="Path_2209" data-name="Path 2209" d="M66.56,76.048H60.666V71.183a1.609,1.609,0,0,1,1.609-1.61h2.676a1.609,1.609,0,0,1,1.609,1.61Z" transform="translate(-37.599 -43.119)" fill="#8e4ccf"/>
            <path id="Path_2210" data-name="Path 2210" d="M96.683,76.048H90.789V71.183a1.609,1.609,0,0,1,1.609-1.61h2.676a1.609,1.609,0,0,1,1.609,1.61Z" transform="translate(-56.268 -43.119)" fill="#fff"/>
            <rect id="Rectangle_396" data-name="Rectangle 396" width="6.605" height="0.855" transform="translate(22.789 22.227)" fill="#f26a40"/>
            <g id="Group_701" data-name="Group 701" transform="translate(22.789 22.227)" opacity="0.15">
              <g id="Group_700" data-name="Group 700">
                <g id="Group_699" data-name="Group 699" clip-path="url(#clip-path-8)">
                  <rect id="Rectangle_397" data-name="Rectangle 397" width="3.302" height="0.855" transform="translate(0 0)"/>
                </g>
              </g>
            </g>
            <rect id="Rectangle_399" data-name="Rectangle 399" width="6.605" height="0.855" transform="translate(22.789 32.929)" fill="#f26a40"/>
            <g id="Group_704" data-name="Group 704" transform="translate(22.789 32.929)" opacity="0.15">
              <g id="Group_703" data-name="Group 703">
                <g id="Group_702" data-name="Group 702" clip-path="url(#clip-path-6)">
                  <rect id="Rectangle_400" data-name="Rectangle 400" width="3.302" height="0.855" transform="translate(0)"/>
                </g>
              </g>
            </g>
            <rect id="Rectangle_402" data-name="Rectangle 402" width="6.605" height="0.855" transform="translate(34.166 22.227)" fill="#f26a40"/>
            <g id="Group_707" data-name="Group 707" transform="translate(34.166 22.227)" opacity="0.15">
              <g id="Group_706" data-name="Group 706">
                <g id="Group_705" data-name="Group 705" clip-path="url(#clip-path-8)">
                  <rect id="Rectangle_403" data-name="Rectangle 403" width="3.302" height="0.855" transform="translate(0 0)"/>
                </g>
              </g>
            </g>
            <rect id="Rectangle_405" data-name="Rectangle 405" width="6.605" height="0.855" transform="translate(34.166 32.929)" fill="#f26a40"/>
            <g id="Group_710" data-name="Group 710" transform="translate(34.166 32.929)" opacity="0.15">
              <g id="Group_709" data-name="Group 709">
                <g id="Group_708" data-name="Group 708" clip-path="url(#clip-path-6)">
                  <rect id="Rectangle_406" data-name="Rectangle 406" width="3.302" height="0.855" transform="translate(0)"/>
                </g>
              </g>
            </g>
            <path id="Path_2211" data-name="Path 2211" d="M140.439,47.9h-5.894V43.039a1.609,1.609,0,0,1,1.609-1.61h2.676a1.609,1.609,0,0,1,1.609,1.61Z" transform="translate(-83.386 -25.676)" fill="#fff"/>
            <path id="Path_2212" data-name="Path 2212" d="M170.562,47.9h-5.894V43.039a1.609,1.609,0,0,1,1.609-1.61h2.676a1.609,1.609,0,0,1,1.609,1.61Z" transform="translate(-102.055 -25.676)" fill="#fff"/>
            <path id="Path_2213" data-name="Path 2213" d="M140.439,76.048h-5.894V71.183a1.609,1.609,0,0,1,1.609-1.61h2.676a1.609,1.609,0,0,1,1.609,1.61Z" transform="translate(-83.386 -43.119)" fill="#8e4ccf"/>
            <path id="Path_2214" data-name="Path 2214" d="M170.562,76.048h-5.894V71.183a1.609,1.609,0,0,1,1.609-1.61h2.676a1.609,1.609,0,0,1,1.609,1.61Z" transform="translate(-102.055 -43.119)" fill="#fff"/>
            <rect id="Rectangle_408" data-name="Rectangle 408" width="6.605" height="0.855" transform="translate(50.88 22.227)" fill="#f26a40"/>
            <rect id="Rectangle_409" data-name="Rectangle 409" width="6.605" height="0.855" transform="translate(50.88 32.929)" fill="#f26a40"/>
            <rect id="Rectangle_410" data-name="Rectangle 410" width="6.605" height="0.855" transform="translate(62.257 22.227)" fill="#f26a40"/>
            <rect id="Rectangle_411" data-name="Rectangle 411" width="6.605" height="0.855" transform="translate(62.257 32.929)" fill="#f26a40"/>
            <g id="Group_713" data-name="Group 713" transform="translate(62.257 22.227)" opacity="0.15">
              <g id="Group_712" data-name="Group 712">
                <g id="Group_711" data-name="Group 711" clip-path="url(#clip-path-8)">
                  <rect id="Rectangle_412" data-name="Rectangle 412" width="3.302" height="0.855" transform="translate(0 0)"/>
                </g>
              </g>
            </g>
            <g id="Group_716" data-name="Group 716" transform="translate(50.88 22.227)" opacity="0.15">
              <g id="Group_715" data-name="Group 715">
                <g id="Group_714" data-name="Group 714" clip-path="url(#clip-path-13)">
                  <rect id="Rectangle_414" data-name="Rectangle 414" width="3.302" height="0.855" transform="translate(0 0)"/>
                </g>
              </g>
            </g>
            <g id="Group_719" data-name="Group 719" transform="translate(50.88 32.929)" opacity="0.15">
              <g id="Group_718" data-name="Group 718">
                <g id="Group_717" data-name="Group 717" clip-path="url(#clip-path-14)">
                  <rect id="Rectangle_416" data-name="Rectangle 416" width="3.302" height="0.855" transform="translate(0)"/>
                </g>
              </g>
            </g>
            <g id="Group_722" data-name="Group 722" transform="translate(62.257 32.929)" opacity="0.15">
              <g id="Group_721" data-name="Group 721">
                <g id="Group_720" data-name="Group 720" clip-path="url(#clip-path-6)">
                  <rect id="Rectangle_418" data-name="Rectangle 418" width="3.302" height="0.855"/>
                </g>
              </g>
            </g>
            <path id="Path_2215" data-name="Path 2215" d="M214.317,47.9h-5.894V43.039a1.609,1.609,0,0,1,1.609-1.61h2.676a1.609,1.609,0,0,1,1.609,1.61Z" transform="translate(-129.173 -25.676)" fill="#fff"/>
            <path id="Path_2216" data-name="Path 2216" d="M244.44,47.9h-5.894V43.039a1.609,1.609,0,0,1,1.609-1.61h2.675a1.609,1.609,0,0,1,1.61,1.61Z" transform="translate(-147.842 -25.676)" fill="#fff"/>
            <path id="Path_2217" data-name="Path 2217" d="M214.317,76.048h-5.894V71.183a1.609,1.609,0,0,1,1.609-1.61h2.676a1.609,1.609,0,0,1,1.609,1.61Z" transform="translate(-129.173 -43.119)" fill="#8e4ccf"/>
            <path id="Path_2218" data-name="Path 2218" d="M244.44,76.048h-5.894V71.183a1.609,1.609,0,0,1,1.609-1.61h2.675a1.609,1.609,0,0,1,1.61,1.61Z" transform="translate(-147.842 -43.119)" fill="#fff"/>
            <rect id="Rectangle_420" data-name="Rectangle 420" width="6.605" height="0.855" transform="translate(78.971 22.227)" fill="#f26a40"/>
            <rect id="Rectangle_421" data-name="Rectangle 421" width="6.605" height="0.855" transform="translate(78.971 32.929)" fill="#f26a40"/>
            <g id="Group_725" data-name="Group 725" transform="translate(78.971 22.227)" opacity="0.15">
              <g id="Group_724" data-name="Group 724">
                <g id="Group_723" data-name="Group 723" clip-path="url(#clip-path-16)">
                  <rect id="Rectangle_422" data-name="Rectangle 422" width="3.581" height="0.855" transform="translate(0 0)"/>
                </g>
              </g>
            </g>
            <g id="Group_728" data-name="Group 728" transform="translate(78.971 32.929)" opacity="0.15">
              <g id="Group_727" data-name="Group 727">
                <g id="Group_726" data-name="Group 726" clip-path="url(#clip-path-17)">
                  <rect id="Rectangle_424" data-name="Rectangle 424" width="3.581" height="0.855" transform="translate(0)"/>
                </g>
              </g>
            </g>
            <rect id="Rectangle_426" data-name="Rectangle 426" width="6.605" height="0.855" transform="translate(90.349 22.227)" fill="#f26a40"/>
            <rect id="Rectangle_427" data-name="Rectangle 427" width="6.605" height="0.855" transform="translate(90.349 32.929)" fill="#f26a40"/>
            <g id="Group_731" data-name="Group 731" transform="translate(90.348 22.227)" opacity="0.15">
              <g id="Group_730" data-name="Group 730">
                <g id="Group_729" data-name="Group 729" clip-path="url(#clip-path-13)">
                  <rect id="Rectangle_428" data-name="Rectangle 428" width="3.302" height="0.855" transform="translate(0 0)"/>
                </g>
              </g>
            </g>
            <g id="Group_734" data-name="Group 734" transform="translate(90.348 32.929)" opacity="0.15">
              <g id="Group_733" data-name="Group 733">
                <g id="Group_732" data-name="Group 732" clip-path="url(#clip-path-14)">
                  <rect id="Rectangle_430" data-name="Rectangle 430" width="3.302" height="0.855" transform="translate(0)"/>
                </g>
              </g>
            </g>
            <path id="Path_2219" data-name="Path 2219" d="M226.8,127.627H220.9v-4.865a1.609,1.609,0,0,1,1.609-1.61h2.676a1.609,1.609,0,0,1,1.609,1.61Z" transform="translate(-136.908 -75.086)" fill="#fff"/>
            <path id="Path_2220" data-name="Path 2220" d="M256.921,127.627h-5.894v-4.865a1.61,1.61,0,0,1,1.609-1.61h2.676a1.61,1.61,0,0,1,1.61,1.61Z" transform="translate(-155.577 -75.086)" fill="#fff"/>
            <path id="Path_2221" data-name="Path 2221" d="M226.8,155.772H220.9v-4.865a1.609,1.609,0,0,1,1.609-1.61h2.676a1.609,1.609,0,0,1,1.609,1.61Z" transform="translate(-136.908 -92.529)" fill="#8846c9"/>
            <path id="Path_2222" data-name="Path 2222" d="M256.921,155.772h-5.894v-4.865a1.61,1.61,0,0,1,1.609-1.61h2.676a1.61,1.61,0,0,1,1.61,1.61Z" transform="translate(-155.577 -92.529)" fill="#fff"/>
            <rect id="Rectangle_432" data-name="Rectangle 432" width="6.605" height="0.855" transform="translate(83.717 52.541)" fill="#f26a40"/>
            <rect id="Rectangle_433" data-name="Rectangle 433" width="6.605" height="0.854" transform="translate(83.717 63.243)" fill="#f26a40"/>
            <g id="Group_737" data-name="Group 737" transform="translate(83.717 52.541)" opacity="0.15">
              <g id="Group_736" data-name="Group 736">
                <g id="Group_735" data-name="Group 735" clip-path="url(#clip-path-20)">
                  <rect id="Rectangle_434" data-name="Rectangle 434" width="3.447" height="0.855" transform="translate(0 0)"/>
                </g>
              </g>
            </g>
            <g id="Group_740" data-name="Group 740" transform="translate(83.717 63.243)" opacity="0.15">
              <g id="Group_739" data-name="Group 739">
                <g id="Group_738" data-name="Group 738" clip-path="url(#clip-path-20)">
                  <rect id="Rectangle_436" data-name="Rectangle 436" width="3.447" height="0.854" transform="translate(0 0)"/>
                </g>
              </g>
            </g>
            <rect id="Rectangle_438" data-name="Rectangle 438" width="6.605" height="0.855" transform="translate(95.094 52.541)" fill="#f26a40"/>
            <rect id="Rectangle_439" data-name="Rectangle 439" width="6.605" height="0.854" transform="translate(95.094 63.243)" fill="#f26a40"/>
            <g id="Group_743" data-name="Group 743" transform="translate(95.094 52.541)" opacity="0.15">
              <g id="Group_742" data-name="Group 742">
                <g id="Group_741" data-name="Group 741" clip-path="url(#clip-path-6)">
                  <rect id="Rectangle_440" data-name="Rectangle 440" width="3.302" height="0.855" transform="translate(0 0)"/>
                </g>
              </g>
            </g>
            <g id="Group_746" data-name="Group 746" transform="translate(95.094 63.243)" opacity="0.15">
              <g id="Group_745" data-name="Group 745">
                <g id="Group_744" data-name="Group 744" clip-path="url(#clip-path-6)">
                  <rect id="Rectangle_442" data-name="Rectangle 442" width="3.302" height="0.854" transform="translate(0 0)"/>
                </g>
              </g>
            </g>
            <rect id="Rectangle_444" data-name="Rectangle 444" width="11.868" height="15.272" transform="translate(54.763 57.729)" fill="#fff"/>
            <rect id="Rectangle_445" data-name="Rectangle 445" width="0.594" height="15.272" transform="translate(60.401 57.729)" fill="#f26a40"/>
            <g id="Group_749" data-name="Group 749" transform="translate(55.997 63.386)" opacity="0.1">
              <g id="Group_748" data-name="Group 748">
                <g id="Group_747" data-name="Group 747" clip-path="url(#clip-path-24)">
                  <path id="Path_2223" data-name="Path 2223" d="M147.763,169.625h-.495l1.1-2.922h.495Z" transform="translate(-147.269 -166.703)"/>
                  <path id="Path_2224" data-name="Path 2224" d="M151.005,169.625h-.495l1.1-2.922h.495Z" transform="translate(-149.278 -166.703)"/>
                </g>
              </g>
            </g>
            <g id="Group_752" data-name="Group 752" transform="translate(62.115 63.386)" opacity="0.1">
              <g id="Group_751" data-name="Group 751">
                <g id="Group_750" data-name="Group 750" clip-path="url(#clip-path-25)">
                  <path id="Path_2225" data-name="Path 2225" d="M163.853,169.625h-.495l1.1-2.922h.495Z" transform="translate(-163.358 -166.703)"/>
                  <path id="Path_2226" data-name="Path 2226" d="M167.095,169.625H166.6l1.1-2.922h.495Z" transform="translate(-165.367 -166.703)"/>
                </g>
              </g>
            </g>
            <rect id="Rectangle_448" data-name="Rectangle 448" width="2.73" height="21.923" transform="translate(45.536 51.078)" fill="#fff"/>
            <rect id="Rectangle_449" data-name="Rectangle 449" width="2.73" height="21.923" transform="translate(73.13 51.078)" fill="#fff"/>
            <rect id="Rectangle_450" data-name="Rectangle 450" width="4.139" height="2.706" transform="translate(44.127 70.295)" fill="#f26a40"/>
            <rect id="Rectangle_451" data-name="Rectangle 451" width="4.139" height="2.706" transform="translate(73.13 70.295)" fill="#f26a40"/>
            <rect id="Rectangle_452" data-name="Rectangle 452" width="4.086" height="1.138" transform="translate(44.85 51.079)" fill="#f26a40"/>
            <rect id="Rectangle_453" data-name="Rectangle 453" width="4.086" height="1.138" transform="translate(72.452 51.079)" fill="#f26a40"/>
          </g>
        </g>
      </g>
    </g>
    <g id="Group_759" data-name="Group 759" transform="translate(304.339 187.164)">
      <g id="Group_758" data-name="Group 758" transform="translate(0 0)" clip-path="url(#clip-path-26)">
        <path id="Path_2227" data-name="Path 2227" d="M12.365,18.287A4.62,4.62,0,1,1,18.192,24a1.076,1.076,0,0,0-.713.718l-.057.193a.657.657,0,0,1-.816.444l-2.771-.817a.656.656,0,0,1-.444-.815l.057-.192a1.079,1.079,0,0,0-.212-.994,4.6,4.6,0,0,1-.871-4.248" transform="translate(-8.631 -10.608)" fill="#ffd300"/>
        <path id="Path_2228" data-name="Path 2228" d="M16.966,51.077h0A1.592,1.592,0,0,0,18.944,50l.407-1.38-3.054-.9-.407,1.38a1.592,1.592,0,0,0,1.077,1.978" transform="translate(-11.218 -33.828)" fill="#51d42f"/>
        <path id="Path_2229" data-name="Path 2229" d="M35.943,20.217a4.554,4.554,0,0,1,1.189,2.708.316.316,0,0,1-.628.065,4.509,4.509,0,0,0-1.071-2.317.316.316,0,0,1,.045-.464l.043-.032a.316.316,0,0,1,.423.04" transform="translate(-25.061 -14.259)" fill="#51d42f"/>
        <path id="Path_2230" data-name="Path 2230" d="M33.96,3.6a.125.125,0,0,1-.08-.154L34.872.09a.125.125,0,1,1,.24.071L34.12,3.519a.125.125,0,0,1-.155.084h0" transform="translate(-24.015 0)" fill="#ffd300"/>
        <path id="Path_2231" data-name="Path 2231" d="M47.179,36.817a.125.125,0,0,1,.072-.239l3.493.915a.123.123,0,0,1,.089.153.125.125,0,0,1-.153.089l-3.493-.915-.008,0" transform="translate(-33.386 -25.927)" fill="#ffd300"/>
        <path id="Path_2232" data-name="Path 2232" d="M1.467,24.843a.125.125,0,0,1,.072-.239l1.747.457a.124.124,0,0,1,.089.153.125.125,0,0,1-.153.089l-1.747-.457-.008,0" transform="translate(-0.98 -17.439)" fill="#ffd300"/>
        <path id="Path_2233" data-name="Path 2233" d="M45.026,16.775A.125.125,0,0,1,45,16.549l3.114-1.828a.125.125,0,1,1,.127.216l-3.114,1.828a.125.125,0,0,1-.1.011" transform="translate(-31.859 -10.424)" fill="#ffd300"/>
        <path id="Path_2234" data-name="Path 2234" d="M12.483,6.329a.125.125,0,0,1-.068-.055L10.587,3.16a.125.125,0,0,1,.216-.127l1.828,3.115a.125.125,0,0,1-.148.182" transform="translate(-7.493 -2.107)" fill="#ffd300"/>
        <path id="Path_2235" data-name="Path 2235" d="M47.552,27.385a.125.125,0,0,1,.019-.242l1.779-.307a.125.125,0,0,1,.042.247l-1.779.307a.123.123,0,0,1-.061,0" transform="translate(-33.649 -19.023)" fill="#ffd300"/>
        <path id="Path_2236" data-name="Path 2236" d="M.085,35.453A.125.125,0,0,1,.1,35.211l2.041-.352a.125.125,0,1,1,.043.246l-2.041.352a.123.123,0,0,1-.061,0" transform="translate(0 -24.711)" fill="#ffd300"/>
        <path id="Path_2237" data-name="Path 2237" d="M23.087,7.022a.125.125,0,0,1-.083-.1l-.309-1.793a.125.125,0,0,1,.247-.042l.309,1.793a.125.125,0,0,1-.1.144.123.123,0,0,1-.061,0" transform="translate(-16.087 -3.535)" fill="#ffd300"/>
        <path id="Path_2238" data-name="Path 2238" d="M45.747,44.453a.122.122,0,0,1-.042-.024L44.24,43.155a.125.125,0,0,1,.164-.189l1.465,1.273a.125.125,0,0,1-.122.213" transform="translate(-31.332 -30.438)" fill="#ffd300"/>
        <path id="Path_2239" data-name="Path 2239" d="M3.1,15.1a.13.13,0,0,1-.031-.015L.086,13.047a.125.125,0,1,1,.141-.206L3.21,14.875a.125.125,0,0,1-.11.222" transform="translate(-0.022 -9.088)" fill="#ffd300"/>
        <path id="Path_2240" data-name="Path 2240" d="M38.888,10.365a.128.128,0,0,1-.03-.015.125.125,0,0,1-.033-.174l1.2-1.763a.125.125,0,0,1,.207.141l-1.2,1.763a.125.125,0,0,1-.143.048" transform="translate(-27.508 -5.926)" fill="#ffd300"/>
      </g>
    </g>
    <g id="Group_761" data-name="Group 761" transform="translate(202.262 183.227)">
      <g id="Group_762" data-name="Group 762" transform="translate(0 0)">
        <path id="Path_2241" data-name="Path 2241" d="M11.323,13.722,2.421.277A.619.619,0,0,0,1.564.1L.277.955A.619.619,0,0,0,.1,1.812L9,15.257Z" transform="translate(0 0)" fill="#ffd300"/>
        <rect id="Rectangle_457" data-name="Rectangle 457" width="2.781" height="0.587" transform="translate(1.734 4.276) rotate(-33.497)" fill="#fff"/>
        <rect id="Rectangle_458" data-name="Rectangle 458" width="0.927" height="12.562" transform="translate(2.07 4.783) rotate(-33.506)" fill="#51d42f"/>
        <rect id="Rectangle_459" data-name="Rectangle 459" width="0.927" height="12.562" transform="translate(2.843 4.271) rotate(-33.506)" fill="#8e4ccf"/>
        <rect id="Rectangle_460" data-name="Rectangle 460" width="0.927" height="12.562" transform="translate(3.616 3.76) rotate(-33.506)" fill="#51d42f"/>
        <path id="Path_2242" data-name="Path 2242" d="M37.994,59.438l2.472,1.216L40.313,57.9Z" transform="translate(-28.99 -44.181)" fill="#ffd300"/>
        <path id="Path_2243" data-name="Path 2243" d="M45.643,66.823l.66.324-.041-.734" transform="translate(-34.826 -50.674)" fill="#fff"/>
      </g>
    </g>
    <g id="Group_764" data-name="Group 764" transform="translate(318.686 235.183)">
      <g id="Group_763" data-name="Group 763" transform="translate(0 0)" clip-path="url(#clip-path-27)">
        <path id="Path_2244" data-name="Path 2244" d="M9.578,5.8,9.1,5.623a.239.239,0,0,1-.158-.239q.008-.128.008-.257c0-.062,0-.124,0-.186A.238.238,0,0,1,9.119,4.7l.512-.137a.24.24,0,0,0,.17-.294L9.5,3.14A.241.241,0,0,0,9.2,2.97l-.584.157a.244.244,0,0,1-.27-.111q-.1-.164-.215-.316a.242.242,0,0,1,.012-.3l.394-.47a.24.24,0,0,0-.03-.339l-.9-.752a.241.241,0,0,0-.34.031l-.419.508a.241.241,0,0,1-.281.067,5.619,5.619,0,0,0-.647-.225A.242.242,0,0,1,5.753.989V.24A.24.24,0,0,0,5.513,0H4.252a.24.24,0,0,0-.24.24V.994a.24.24,0,0,1-.173.231c-.094.028-.2.059-.31.094a.24.24,0,0,1-.273-.093L2.885.681A.241.241,0,0,0,2.547.62L1.6,1.288a.241.241,0,0,0-.058.335l.362.513a.24.24,0,0,1-.013.3q-.125.14-.237.292a.243.243,0,0,1-.279.087L.8,2.6a.24.24,0,0,0-.308.144l-.4,1.1a.241.241,0,0,0,.144.308l.512.186A.238.238,0,0,1,.9,4.595a4.028,4.028,0,0,0-.036.532c0,.026,0,.051,0,.077l-.688.184a.241.241,0,0,0-.17.295l.3,1.131a.24.24,0,0,0,.294.17l.438-.117a.239.239,0,0,1,.274.118,4.018,4.018,0,0,0,.25.419.238.238,0,0,1-.017.286l-.281.335a.24.24,0,0,0,.03.339l.891.748a.24.24,0,0,0,.344-.035L2.751,8.8a.238.238,0,0,1,.3-.067,3.963,3.963,0,0,0,.792.309.237.237,0,0,1,.173.231v.4a.24.24,0,0,0,.24.24h1.26a.24.24,0,0,0,.24-.24v-.4a.239.239,0,0,1,.176-.231,4.609,4.609,0,0,0,.486-.16.239.239,0,0,1,.284.087l.215.31a.241.241,0,0,0,.336.06l.955-.67a.24.24,0,0,0,.059-.335l-.246-.35a.238.238,0,0,1,.008-.287,4.009,4.009,0,0,0,.289-.4A.238.238,0,0,1,8.6,7.2l.415.151a.24.24,0,0,0,.308-.144l.4-1.1A.241.241,0,0,0,9.578,5.8M4.9,6.774A1.818,1.818,0,1,1,6.723,4.956,1.818,1.818,0,0,1,4.9,6.774" transform="translate(0 0)" fill="#51d42f"/>
        <path id="Path_2245" data-name="Path 2245" d="M13.389,10.8a2.85,2.85,0,1,0,2.85,2.85,2.85,2.85,0,0,0-2.85-2.85m0,4.668a1.818,1.818,0,1,1,1.818-1.818,1.818,1.818,0,0,1-1.818,1.818" transform="translate(-8.484 -8.695)" fill="#ffd300"/>
      </g>
    </g>
    <g id="Group_771" data-name="Group 771" transform="translate(191.866 212.204)">
      <g id="Group_772" data-name="Group 772">
        <g id="Group_769" data-name="Group 769" transform="translate(0 0)">
          <g id="Group_768" data-name="Group 768" clip-path="url(#clip-path-28)">
            <path id="Path_2246" data-name="Path 2246" d="M19.73,10.861s-.4,1.034-4.115,1.034c-3.683,0-4.151-1.034-4.151-1.034v-3.7H19.73Z" transform="translate(-9.241 -5.773)" fill="#ffd300"/>
            <path id="Path_2247" data-name="Path 2247" d="M19.73,11.275s-.4,1.034-4.115,1.034c-3.683,0-4.151-1.034-4.151-1.034v-3H19.73Z" transform="translate(-9.241 -6.673)" fill="#51d42f"/>
            <g id="Group_767" data-name="Group 767" transform="translate(2.223 1.945)" opacity="0.2">
              <g id="Group_766" data-name="Group 766">
                <g id="Group_765" data-name="Group 765" clip-path="url(#clip-path-29)">
                  <path id="Path_2248" data-name="Path 2248" d="M12.389,10.238v3.55a2.159,2.159,0,0,1-.925-.611V10.035Z" transform="translate(-11.464 -10.035)" fill="#565656"/>
                </g>
              </g>
            </g>
            <path id="Path_2249" data-name="Path 2249" d="M6.36,3.623,0,1.812,6.36,0l6.36,1.812Z" transform="translate(0 0)" fill="#ff413c"/>
            <path id="Path_2250" data-name="Path 2250" d="M37.771,14.287a.048.048,0,0,1-.048-.048L37.676,8.7,32.67,8.125a.049.049,0,0,1-.042-.054.047.047,0,0,1,.054-.043L37.73,8.6a.049.049,0,0,1,.043.048l.047,5.585a.048.048,0,0,1-.048.049Z" transform="translate(-26.302 -6.472)" fill="#fead19"/>
            <path id="Path_2251" data-name="Path 2251" d="M57.731,39.688c0,.294.124.533.277.533s.277-.239.277-.533-.124-.533-.277-.533-.277.239-.277.533" transform="translate(-46.539 -31.564)" fill="#f26a40"/>
            <path id="Path_2252" data-name="Path 2252" d="M31.3,7.338c-.015.118.12.232.3.255s.34-.054.355-.172-.12-.232-.3-.255-.34.054-.355.172" transform="translate(-25.234 -5.774)" fill="#f26a40"/>
          </g>
        </g>
      </g>
    </g>
  </g>
</svg>
