<svg xmlns="http://www.w3.org/2000/svg" width="18.066" height="25.967" viewBox="0 0 18.066 25.967">
  <g id="Icon_How_to_use_Access_HR" data-name="Icon_How to use Access HR" transform="translate(-956.966 -580.033)">
    <circle id="Ellipse_87" data-name="Ellipse 87" cx="6.406" cy="6.406" r="6.406" transform="translate(957.968 580.033)" fill="#ee0c19"/>
    <g id="Group_1289" data-name="Group 1289" transform="translate(957.831 584.553)">
      <g id="Group_1288" data-name="Group 1288" transform="translate(0.137 0.136)">
        <path id="Path_1453" data-name="Path 1453" d="M7.458.5a1.9,1.9,0,0,1,1.031.535,1.8,1.8,0,0,1,.466,1.287c0,.865,0,1.731,0,2.618a2.27,2.27,0,0,1,.739-.2,1.677,1.677,0,0,1,1.639.988c.049.105.073.132.191.068a1.671,1.671,0,0,1,2.34.767c.053.112.085.139.207.073A1.676,1.676,0,0,1,16.541,7.95c.012.152.023.3.023.455q0,3.381,0,6.76a5.533,5.533,0,0,1-.332,2,5.388,5.388,0,0,1-3.866,3.474,6.01,6.01,0,0,1-3.889-.37A6.765,6.765,0,0,1,6.3,18.75Q3.682,16.127,1.06,13.508A1.766,1.766,0,0,1,.5,12.126,1.575,1.575,0,0,1,2.1,10.6a2.538,2.538,0,0,1,1.218.3q.994.494,1.984.992c.194.1.2.1.2-.127q0-4.636,0-9.272a2.393,2.393,0,0,1,.089-.764A1.591,1.591,0,0,1,7.062.5Z" transform="translate(-0.501 -0.5)" fill="#fff" stroke="#283897" stroke-width="2"/>
        <line id="Line_131" data-name="Line 131" y2="5.159" transform="translate(8.454 4.44)" fill="none" stroke="#283897" stroke-linecap="round" stroke-width="2"/>
        <line id="Line_132" data-name="Line 132" y2="4.373" transform="translate(10.824 5.226)" fill="none" stroke="#283897" stroke-linecap="round" stroke-width="2"/>
        <line id="Line_133" data-name="Line 133" y2="3.54" transform="translate(13.282 6.06)" fill="none" stroke="#283897" stroke-linecap="round" stroke-width="2"/>
      </g>
    </g>
  </g>
</svg>
